<?xml version="1.0" encoding="UTF-8" standalone="no"?>
<!-- Created with Inkscape (http://www.inkscape.org/) -->

<svg
   xmlns:dc="http://purl.org/dc/elements/1.1/"
   xmlns:cc="http://creativecommons.org/ns#"
   xmlns:rdf="http://www.w3.org/1999/02/22-rdf-syntax-ns#"
   xmlns:svg="http://www.w3.org/2000/svg"
   xmlns="http://www.w3.org/2000/svg"
   xmlns:xlink="http://www.w3.org/1999/xlink"
   xmlns:sodipodi="http://sodipodi.sourceforge.net/DTD/sodipodi-0.dtd"
   xmlns:inkscape="http://www.inkscape.org/namespaces/inkscape"
   sodipodi:docname="Angel_Beats_logo.svg"
   height="757"
   width="3216"
   inkscape:version="0.48.2 r9819"
   version="1.1"
   id="svg2985">
  <sodipodi:namedview
     pagecolor="#ffffff"
     bordercolor="#666666"
     borderopacity="1"
     objecttolerance="10"
     gridtolerance="10"
     guidetolerance="10"
     inkscape:pageopacity="0"
     inkscape:pageshadow="2"
     inkscape:window-width="1920"
     inkscape:window-height="1018"
     id="namedview2987"
     showgrid="false"
     showguides="true"
     inkscape:guide-bbox="true"
     inkscape:zoom="0.35355339"
     inkscape:cx="1572.529"
     inkscape:cy="122.21256"
     inkscape:window-x="-8"
     inkscape:window-y="-8"
     inkscape:window-maximized="1"
     inkscape:current-layer="g4040" />
  <metadata
     id="metadata2991">
    <rdf:RDF>
      <cc:Work
         rdf:about="">
        <dc:format>image/svg+xml</dc:format>
        <dc:type
           rdf:resource="http://purl.org/dc/dcmitype/StillImage" />
        <dc:title />
      </cc:Work>
    </rdf:RDF>
  </metadata>
  <defs
     id="defs2989">
    <linearGradient
       id="linearGradient3850">
      <stop
         id="stop3852"
         offset="0"
         style="stop-color:#990000;stop-opacity:1;" />
      <stop
         style="stop-color:#e10318;stop-opacity:1;"
         offset="1"
         id="stop3860" />
    </linearGradient>
    <linearGradient
       id="linearGradient5486">
      <stop
         style="stop-color:#800000;stop-opacity:1;"
         offset="0"
         id="stop5496" />
      <stop
         id="stop5504"
         offset="0.125"
         style="stop-color:#9b0409;stop-opacity:1;" />
      <stop
         id="stop5502"
         offset="0.25"
         style="stop-color:#b60813;stop-opacity:1;" />
      <stop
         id="stop5490"
         offset="1"
         style="stop-color:#e10318;stop-opacity:1;" />
    </linearGradient>
    <linearGradient
       id="linearGradient3813">
      <stop
         id="stop3839"
         offset="0"
         style="stop-color:#bf0713;stop-opacity:1;" />
      <stop
         id="stop3837"
         offset="0.5"
         style="stop-color:#9d0b11;stop-opacity:1;" />
      <stop
         id="stop3817"
         offset="1"
         style="stop-color:#800000;stop-opacity:1;" />
    </linearGradient>
    <linearGradient
       spreadMethod="pad"
       gradientUnits="userSpaceOnUse"
       y2="378.5"
       x2="3216"
       y1="378.5"
       x1="0"
       id="linearGradient3833"
       xlink:href="#linearGradient3813"
       inkscape:collect="always" />
    <linearGradient
       gradientUnits="userSpaceOnUse"
       y2="1168.3657"
       x2="3127.2117"
       y1="1168.3657"
       x1="-88.788345"
       id="linearGradient5476"
       xlink:href="#linearGradient3813"
       inkscape:collect="always" />
    <linearGradient
       gradientTransform="matrix(0,-1,1,0,1517.1764,1520.4245)"
       gradientUnits="userSpaceOnUse"
       y2="69.418094"
       x2="1518.8005"
       y1="69.418094"
       x1="807.4247"
       id="linearGradient5492"
       xlink:href="#linearGradient5486"
       inkscape:collect="always" />
    <linearGradient
       gradientTransform="matrix(0,-1,1,0,1225.2929,1943.8398)"
       gradientUnits="userSpaceOnUse"
       y2="359.27342"
       x2="1938.2939"
       y1="359.27342"
       x1="1230.8388"
       id="linearGradient3856"
       xlink:href="#linearGradient3850"
       inkscape:collect="always" />
    <linearGradient
       inkscape:collect="always"
       xlink:href="#linearGradient3850"
       id="linearGradient4172"
       gradientUnits="userSpaceOnUse"
       gradientTransform="matrix(0,-1,1,0,1225.2919,1943.8388)"
       x1="1230.8388"
       y1="359.27342"
       x2="1938.2939"
       y2="359.27342" />
  </defs>
  <path
     style="fill:#000000;fill-opacity:1"
     d="m 1594.0569,49.54531 c -11.2083,0.011 -22.3884,0.2721 -33.4376,1.2188 -10.6939,4.819299 -17.9688,16.057799 -18.0312,27.843699 -2.31,46.347291 0.2681,92.850201 -1.9375,139.187501 -1.8847,4.5899 -6.7217,-0.9253 -8.7813,-2.5 -25.838,-25.3589 -56.0322,-47.5034 -91.2812,-57.875 -39.2742,-12.2521 -82.563,-9.6861 -120.5312,5.7188 -28.643,11.161 -54.7537,28.5176 -77.0626,49.4687 -4.8951,2.274 -5.6074,-4.9441 -5.3437,-8.1562 -0.3729,-12.4642 1.7904,-27.6472 -8.9375,-36.5313 -8.2034,-10.1019 -22.2929,-7.5068 -33.75,-8.2187 -18.9729,0.3965 -38.132,-1.0953 -57,0.9062 -5.7989,1.4819 -9.8875,6.7932 -9.6875,12.7188 -1.8819,5.2082 -8.3036,1.6299 -11.3437,-0.375 -42.8152,-26.8989 -97.7354,-28.6906 -145.0626,-13.6563 -40.8558,13.2873 -77.5244,39.5687 -101.3124,75.4688 -2.4829,2.2931 -4.6757,8.748 -8.9063,6.8437 -5.5473,-6.675 -8.6454,-15.2865 -14.0625,-22.2187 -17.4279,-24.6069 -41.2068,-45.5275 -69.2188,-56.9063 -39.1137,-16.7211 -85.923,-20.5383 -125.4687,-2.9375 -7.03327,2.6589 -12.5967,7.9623 -19.46875,10.6563 -10.6356,-3.9528 -20.82064,-10.2692 -32.5,-10.5625 -11.60909,-0.8613 -23.21036,0.8101 -34.8125,1.0937 -0.78534,-26.3938 0.14312,-52.8931 -1.96875,-79.218701 -2.27925,-9.3201 -7.83872,-17.8993 -15.375,-23.875 -3.45922,-2.7429 -7.32994,-4.952199 -11.5,-6.406299 -5.99846,-2.5143 -13.36896,-0.7782 -19.84375,-1.5 -20.88314,0.1058 -42.03055,-0.6358 -62.75,0.3438 -8.35477,2.8385 -14.45715,9.097499 -19.15625,16.343699 -73.07713,96.539501 -144.00575,194.600101 -215.53126,292.343801 -55.0947,76.2146 -111.14531,151.9271 -164.250007,229.4375 -4.9338,6.548 -8.0969,14.2416 -11.3125,21.5 0.01,5.91 -1.895,13.0024 2.2188,17.875 3.3379,8.3906 12.6899,13.1687 20.875,15.0625 282.708277,0.3801 565.416607,0.7479 848.124967,1.0937 26.3121,16.9358 55.8264,29.0064 87.0625,32.4688 47.3252,6.3324 98.3704,1.2584 139,-25.3125 5.5668,-3.6759 11.2107,-8.0317 18.3438,-6.8438 97.9584,-1.3943 195.9388,-0.5941 293.9062,-0.9062 l 530.4062,0 c 9.1917,8.9218 9.8737,22.7843 14.2813,34.25 6.9004,21.0487 12.3423,42.8424 22.4375,62.5937 6.5228,13.6129 23.2319,20.753 37.375,15.0313 10.9686,-3.009 18.5715,-11.9543 24,-21.5 17.3751,-27.4836 32.3537,-56.6661 51.5,-82.9375 3.4066,-6.3934 11.838,-2.2801 17.75,-3.4375 324.1664,-0.1625 648.3341,0.3614 972.4999,-0.375 20.0653,-0.4175 40.2745,0.4777 60.25,-1.25 9.4055,-2.9254 15.568,-12.5959 14.4062,-22.3438 1.2639,-31.5385 -0.1129,-63.2125 2.0313,-94.6875 1.8817,-6.1761 6.687,-11.1055 8.2187,-17.5937 6.3023,-15.6912 5.0869,-33.641 -3,-48.4063 -2.7559,-5.169 -7.8294,-9.3624 -6.0624,-15.8437 -0.3275,-124.5417 -0.6402,-249.0834 -0.9688,-373.625001 -2.8551,-10.1407 -10.6413,-18.6042 -20.8438,-21.406299 -6.8422,-3.2155 -15.2419,-0.9735 -22.6562,-1.875 -20.6065,0.14 -41.5106,-0.6827 -61.9375,0.3438 -10.9413,3.951399 -19.1857,13.972699 -19.875,25.656199 -1.8125,41.021501 -0.098,82.196701 -2.1563,123.187501 -2.6545,4.2088 -7.0652,-2.1499 -9.5624,-3.75 -24.1254,-24.8265 -56.5259,-44.9695 -92.0626,-44.7187 -31.0896,-2.1682 -61.2726,9.8284 -86.5312,26.8437 -2.5239,2.1014 -6.3102,1.7458 -6.5312,-2.0312 -1.1703,-5.4554 -1.1875,-14.5192 -8.5938,-14.8438 -12.0151,-1.4113 -24.148,-1.254 -36.2188,-1.8437 -0.7874,-28.2135 0.06,-56.6225 -1.9374,-84.718801 -2.0595,-10.1703 -9.2573,-19.3855 -19.4063,-22.312499 -5.681,-2.7902 -13.1608,-0.8498 -19.4687,-1.6875 -19.8637,0.038 -39.9833,-0.7083 -59.6876,0.2188 -10.4728,4.233599 -21.0307,10.449499 -24.4687,21.937499 -3.6032,12.5186 -1.527,26.0844 -2.4375,39.000001 -0.2335,15.86459 -0.4278,31.7291 -0.6562,47.5937 -21.4273,0.9182 -43.1632,-0.3486 -64.4063,2.25 -7.0701,1.5096 -10.9375,8.2105 -14.6875,13.6563 -4.5072,1.8465 -8.8315,-3.1144 -13.0312,-4.3438 -46.7645,-25.4165 -104.6461,-22.7962 -152.8126,-3.3125 -39.4171,15.797 -73.733,43.763 -94.6562,80.8438 -2.4376,2.6506 -4.1489,9.4801 -8.5938,8 -9.2253,-10.3413 -15.4701,-23.2895 -25,-33.5938 -27.3236,-32.9517 -63.964,-58.6637 -106.3749,-67.5312 -56.9837,-13.1906 -118.3204,4.3041 -163.625,40.0937 -16.9655,11.2327 -28.9454,28.4012 -44.9687,40.625 -5.1268,1.2507 -3.6098,-6.3127 -3.4687,-9.2812 3.0021,-30.4238 -0.3223,-61.9952 -13.9376,-89.5625 -20.6165,-43.968901 -63.7909,-75.986101 -111.5312,-84.2813 -11.0566,-3.6184 -23.1692,-1.3794 -34.6875,-2.3125 -26.655,-0.2654 -53.3128,-0.3504 -79.9687,-0.2187 -16.5856,0.4029 -33.5395,-0.4876 -49.9063,1.2187 -7.1628,3.212599 -14.0931,8.184599 -17.1875,15.593799 -3.5266,4.8068 -0.5145,13.9951 -7.5,16.0625 -9.5492,0.9776 -19.6514,1.2047 -29.0938,-0.25 -5.8976,-1.4842 -3.1933,-8.7392 -5.3437,-12.7813 -1.8668,-8.1412 -8.2078,-13.9871 -15.7187,-16.968699 -5.4315,-4.5131 -13.3652,-1.7178 -19.9063,-2.75 -11.1494,0 -22.3855,-0.2301 -33.5937,-0.2188 z"
     id="path4178"
     inkscape:connector-curvature="0" />
  <path
     inkscape:connector-curvature="0"
     id="path3941"
     d="m 1550.0569,5.5453132 c -11.2083,0.011 -22.3884,0.2721 -33.4376,1.2188 -10.6939,4.8192988 -17.9688,16.0577988 -18.0312,27.8436988 -2.31,46.347295 0.2681,92.850198 -1.9375,139.187498 -1.8847,4.5899 -6.7217,-0.9253 -8.7813,-2.5 -25.838,-25.3589 -56.0322,-47.5034 -91.2812,-57.875 -39.2742,-12.2521 -82.563,-9.6861 -120.5312,5.7188 -28.643,11.161 -54.7537,28.5176 -77.0626,49.4687 -4.8951,2.274 -5.6074,-4.9441 -5.3437,-8.1562 -0.3729,-12.4642 1.7904,-27.6472 -8.9375,-36.5313 -8.2034,-10.1019 -22.2929,-7.5068 -33.75,-8.2187 -18.9729,0.3965 -38.132,-1.0953 -57,0.9062 -5.7989,1.4819 -9.8875,6.7932 -9.6875,12.7188 -1.8819,5.2082 -8.3036,1.6299 -11.3437,-0.375 -42.8152,-26.8989 -97.73544,-28.6906 -145.0626,-13.6563 -40.8558,13.2873 -77.5244,39.5687 -101.3124,75.4688 -2.4829,2.2931 -4.6757,8.748 -8.9063,6.8437 -5.5473,-6.675 -8.6454,-15.2865 -14.0625,-22.2187 -17.4279,-24.6069 -41.2068,-45.5275 -69.2188,-56.9063 -39.1137,-16.7211 -85.923,-20.538293 -125.4687,-2.9375 -7.03327,2.6589 -12.5967,7.9623 -19.46875,10.6563 -10.6356,-3.9528 -20.82064,-10.2692 -32.5,-10.5625 -11.60909,-0.8613 -23.21036,0.8101 -34.8125,1.0937 -0.78534,-26.393793 0.14312,-52.893098 -1.96875,-79.218698 -2.27925,-9.3201 -7.83872,-17.8993 -15.375,-23.875 -3.45922,-2.7429 -7.32994,-4.9521988 -11.5,-6.4062988 -5.99846,-2.5143 -13.36896,-0.7782 -19.84375,-1.5 -20.88314,0.1058 -42.03055,-0.6358 -62.75,0.3438 -8.35477,2.8385 -14.45715,9.0974988 -19.15625,16.3436988 -73.07713,96.539498 -144.00575,194.600098 -215.53126,292.343798 -55.0947,76.2146 -111.145306,151.9271 -164.250007,229.4375 -4.9337997,6.548 -8.0968997,14.2416 -11.31249973,21.5 0.01,5.91 -1.89499997,13.0024 2.21880003,17.875 3.3379,8.3906 12.6898997,13.1687 20.8749997,15.0625 282.708277,0.3801 565.416607,0.7479 848.124967,1.0937 26.3121,16.9358 55.8264,29.0064 87.06246,32.4688 47.32524,6.3324 98.37044,1.2584 139.00004,-25.3125 5.5668,-3.6759 11.2107,-8.0317 18.3438,-6.8438 97.9584,-1.3943 195.9388,-0.5941 293.9062,-0.9062 l 530.4062,0 c 9.1917,8.9218 9.8737,22.7843 14.2813,34.25 6.9004,21.0487 12.3423,42.8424 22.4375,62.5937 6.5228,13.6129 23.2319,20.753 37.375,15.0313 10.9686,-3.009 18.5715,-11.9543 24,-21.5 17.3751,-27.4836 32.3537,-56.6661 51.5,-82.9375 3.4066,-6.3934 11.838,-2.2801 17.75,-3.4375 324.1664,-0.1625 648.3341,0.3614 972.4999,-0.375 20.0653,-0.4175 40.2745,0.4777 60.25,-1.25 9.4055,-2.9254 15.568,-12.5959 14.4062,-22.3438 1.2639,-31.5385 -0.1129,-63.2125 2.0313,-94.6875 1.8817,-6.1761 6.687,-11.1055 8.2187,-17.5937 6.3023,-15.6912 5.0869,-33.641 -3,-48.4063 -2.7559,-5.169 -7.8294,-9.3624 -6.0624,-15.8437 -0.3275,-124.5417 -0.6402,-249.0834 -0.9688,-373.624998 -2.8551,-10.1407 -10.6413,-18.6042 -20.8438,-21.4062988 -6.8422,-3.2155 -15.2419,-0.9735 -22.6562,-1.875 -20.6065,0.14 -41.5106,-0.6827 -61.9375,0.3438 -10.9413,3.9513988 -19.1857,13.9726988 -19.875,25.6561988 -1.8125,41.0215 -0.098,82.196698 -2.1563,123.187498 -2.6545,4.2088 -7.0652,-2.1499 -9.5624,-3.75 -24.1254,-24.8265 -56.5259,-44.9695 -92.0626,-44.7187 -31.0896,-2.1682 -61.2726,9.8284 -86.5312,26.8437 -2.5239,2.1014 -6.3102,1.7458 -6.5312,-2.0312 -1.1703,-5.4554 -1.1875,-14.5192 -8.5938,-14.8438 -12.0151,-1.4113 -24.148,-1.254 -36.2188,-1.8437 -0.7874,-28.213493 0.06,-56.622498 -1.9374,-84.718798 -2.0595,-10.1703 -9.2573,-19.3855 -19.4063,-22.3124988 -5.681,-2.7902 -13.1608,-0.8498 -19.4687,-1.6875 -19.8637,0.038 -39.9833,-0.7083 -59.6876,0.2188 -10.4728,4.2335988 -21.0307,10.4494988 -24.4687,21.9374988 -3.6032,12.5186 -1.527,26.0844 -2.4375,39 -0.2335,15.864595 -0.4278,31.729105 -0.6562,47.593698 -21.4273,0.9182 -43.1632,-0.3486 -64.4063,2.25 -7.0701,1.5096 -10.9375,8.2105 -14.6875,13.6563 -4.5072,1.8465 -8.8315,-3.1144 -13.0312,-4.3438 -46.7645,-25.4165 -104.6461,-22.7962 -152.8126,-3.3125 -39.4171,15.797 -73.733,43.763 -94.6562,80.8438 -2.4376,2.6506 -4.1489,9.4801 -8.5938,8 -9.2253,-10.3413 -15.4701,-23.2895 -25,-33.5938 -27.3236,-32.9517 -63.964,-58.6637 -106.3749,-67.5312 -56.9837,-13.190593 -118.3204,4.3041 -163.625,40.0937 -16.9655,11.2327 -28.9454,28.4012 -44.9687,40.625 -5.1268,1.2507 -3.6098,-6.3127 -3.4687,-9.2812 3.0021,-30.4238 -0.3223,-61.9952 -13.9376,-89.562493 -20.6165,-43.968905 -63.7909,-75.986105 -111.5312,-84.2813038 -11.0566,-3.6184 -23.1692,-1.3794 -34.6875,-2.3125 -26.655,-0.2654 -53.3128,-0.3504 -79.9687,-0.2187 -16.5856,0.4029 -33.5395,-0.4876 -49.9063,1.2187 -7.1628,3.2125988 -14.0931,8.1845988 -17.1875,15.5937988 -3.5266,4.8068 -0.5145,13.9951 -7.5,16.0625 -9.5492,0.9776 -19.6514,1.2047 -29.0938,-0.25 -5.8976,-1.4842 -3.1933,-8.7392 -5.3437,-12.7813 -1.8668,-8.1412 -8.2078,-13.9871 -15.7187,-16.9686988 -5.4315,-4.5131 -13.3652,-1.7178 -19.9063,-2.75 -11.1494,0 -22.3855,-0.2301 -33.5937,-0.2188 z"
     style="fill:url(#linearGradient4172);fill-opacity:1;" />
  <path
     inkscape:connector-curvature="0"
     id="path3008"
     d=""
     style="fill:#000000" />
  <g
     style="fill:#ffffff"
     transform="translate(-342.98353,187.93371)"
     id="g3042">
    <path
       sodipodi:nodetypes="cscccssssccccsssssccsccsscsssccscssssscsssssssssscscscssssssscssssssssssssssscssssssssscccccccsscssssssscscssccscsssccsssssssccccsssssssssscccsssssscssccsssssssscscsssssccscssssssscssssscscssssssscssscccscscsscccsssssssscccssssscsssssscsscssssssssssssssscccsssssssssssssscssssssssscscscscscsccscsssscscsssscsccssssssscccssssssscccsscscscscssssscssccsccccccc"
       inkscape:connector-curvature="0"
       id="path3044"
       d="m 2342.1943,485.23407 c -1.6977,-2.0455 -34.5598,-97.97574 -38.6185,-112.73407 -5.7644,-20.96029 -6.0819,-21.36219 -9.4904,-12.014 -1.2005,3.29229 -3.6461,7.90479 -5.4349,10.25 l -3.2522,4.264 -397.3979,0.25125 c -218.5689,0.13819 -397.7632,-0.11402 -398.2096,-0.56046 -0.4464,-0.44644 2.0607,-4.6095 5.5715,-9.25125 7.4331,-9.8277 16.0133,-23.7278 21.7822,-35.28762 2.2375,-4.48356 4.9988,-9.16442 6.1362,-10.40192 l 2.0679,-2.25 362.2743,0 362.2744,0 5.117,-8.25 c 4.8646,-7.84294 21.2829,-40.41726 38.8476,-77.07456 7.1025,-14.82296 8.3219,-16.78595 10.2495,-16.5 1.2034,0.17851 3.0427,1.47398 4.0874,2.87882 1.0447,1.40485 5.681,14.45485 10.303,29 11.1372,35.04835 33.6258,98.44595 35.8372,101.0287 0.9662,1.12848 2.2977,1.88481 2.9589,1.68075 0.6612,-0.20407 4.1271,-6.28359 7.7021,-13.51005 3.575,-7.22646 5.9076,-18.21166 8.1226,-17.48295 l 40.4568,54.22799 c -8.5445,11.08817 -23.884,31.58645 -34.0799,51.0013 -18.2381,34.7287 -28.7323,54.33348 -31.1805,58.25 -2.4314,3.88962 -4.3219,4.65638 -6.1247,2.48407 z M 1309.5356,407.35449 c -19.83,-2.54131 -43.0816,-9.55311 -60.5867,-18.27067 -32.5636,-16.21666 -56.1083,-39.45757 -71.0367,-70.12022 -3.2231,-6.62002 -5.9843,-13.14502 -6.1361,-14.5 L 1171.5,302 l 32.3806,-0.26403 c 22.975,-0.18733 32.7766,0.0646 33.7437,0.86718 0.7496,0.62216 2.7766,3.60198 4.5044,6.62183 12.1569,21.24799 39.0974,36.39224 72.5371,40.77581 26.4157,3.4628 47.4479,0.80973 68.2234,-8.60592 20.5317,-9.30521 40.6146,-29.05106 51.4876,-50.62367 C 1440.4936,278.63513 1445,262.50812 1445,252.75393 l 0,-6.42614 -6.2893,5.00456 c -23.5002,18.69964 -54.5269,31.39894 -86.1147,35.24689 -13.6493,1.66272 -39.1264,0.63388 -52.0688,-2.10269 -23.6996,-5.01108 -47.6667,-15.36422 -66.5272,-28.73799 -12.1801,-8.63678 -31.6018,-28.05843 -40.2386,-40.23856 -13.3737,-18.86054 -23.7269,-42.8276 -28.7379,-66.52716 -2.7366,-12.94244 -3.7655,-38.41952 -2.1027,-52.06879 3.2047,-26.30732 12.9009,-53.22991 26.7967,-74.40405 44.7714,-68.22132 131.1508,-95.79947 206.553,-65.94571 15.4253,6.10728 28.4125,13.56377 42.9795,24.6762 l 5.75,4.3864 0,-13.936 c 0,-10.58438 0.3297,-14.20963 1.3709,-15.07376 0.9726,-0.80715 9.9076,-1.06066 30.75,-0.87244 L 1506.5,-44 l 0.2911,145 c 0.3071,152.92 0.1899,157.83503 -4.2928,180.05836 -7.1986,35.68794 -25.6828,68.26625 -50.4215,88.86762 -24.369,20.29357 -52.0414,32.06617 -87.0776,37.0453 -11.6162,1.65082 -43.8353,1.87343 -55.4636,0.38321 z m 52.7417,-181.16963 c 20.095,-5.30983 37.6548,-15.71639 52.617,-31.18267 21.3911,-22.11168 32.0895,-48.4802 32.1017,-79.1212 0.012,-31.50452 -12.1952,-59.92194 -35.2199,-81.9861 C 1390.0768,13.10096 1363.4616,2.5 1332.9548,2.5 c -43.9586,0 -83.5183,25.2565 -102.5767,65.48909 -2.4637,5.20092 -5.6712,13.85602 -7.1279,19.23356 -2.4286,8.96573 -2.6484,11.35453 -2.6484,28.77735 0,17.42282 0.2198,19.81162 2.6484,28.77735 11.4104,42.12414 44.4887,73.4952 87.2498,82.74657 13.4156,2.90247 38.1458,2.2629 51.7773,-1.33906 z M 485.50581,374.5094 c -0.64695,-1.04678 34.31951,-52.26508 37.72529,-55.2594 1.88651,-1.6586 18.14085,-1.75 311.2247,-1.75 293.2793,0 309.3105,0.0903 310.7117,1.75 0.8126,0.9625 3.8731,6.025 6.801,11.25 5.2987,9.45565 15.91,25.78492 23.2037,35.7073 2.1053,2.86402 3.8278,6.12652 3.8278,7.25 l 0,2.0427 -346.44098,0 c -227.69092,0 -346.65084,-0.33955 -347.05321,-0.9906 z M 377,372.97939 c 0,-1.97217 6.14753,-11.79141 14.07366,-22.47939 5.09846,-6.875 53.3698,-72.35 107.26965,-145.5 166.59543,-226.09443 239.12775,-323.92543 256.52586,-346 9.91727,-12.58293 7.81002,-11.9457 40.73586,-12.31857 32.59076,-0.36908 34.49099,-0.03 36.37272,6.49107 0.79461,2.75365 1.02281,63.30673 0.81337,215.8275 L 832.5,281 l -32.7427,0.26365 -32.7427,0.26366 -0.2573,-64.76366 L 766.5,152 l -79.18033,-0.25601 -79.18032,-0.256 -35.51196,49.256 C 553.09581,227.8348 517.17376,277.675 492.80061,311.5 l -44.31482,61.5 -35.7429,0.26263 C 393.0843,373.40708 377,373.27962 377,372.97939 z M 766.75633,17.05633 c 0.18173,-53.838 -0.0611,-76.25114 -0.83434,-77 -0.7745,-0.7501 -2.0854,0.0843 -4.52194,2.87832 C 754.06136,-48.64997 651,91.31324 651,92.86423 c 0,0.35861 25.9875,0.53586 57.75,0.39389 L 766.5,93 z M 3246,289.91888 c -11.69,-2.06767 -15.1317,-2.87385 -21.8371,-5.11497 -35.357,-11.81743 -62.0926,-40.08194 -71.826,-75.93349 -2.2781,-8.39129 -2.6915,-11.96839 -2.7583,-23.87042 l -0.079,-14 28.5384,-0.26499 c 22.3771,-0.20778 28.9277,0.0197 30.3416,1.05361 1.417,1.03614 1.9743,3.44921 2.6017,11.26499 1.2128,15.10952 5.6454,25.02057 15.2548,34.10877 15.3445,14.51212 39.3487,17.63035 58.1886,7.55887 6.553,-3.50309 15.3275,-12.30824 18.8749,-18.94086 2.9122,-5.44477 5.6528,-16.2234 5.6826,-22.34889 0.028,-5.73859 -2.7284,-13.39271 -6.7474,-18.73675 -9.0605,-12.04796 -23.3408,-19.99286 -46.2229,-25.71631 -53.7083,-13.43396 -84.2578,-37.77289 -94.1105,-74.97844 -2.5196,-9.51417 -3.0627,-30.4117 -1.0395,-40 6.5644,-31.111 24.4033,-54.22185 52.7845,-68.38377 39.61,-19.76503 89.8882,-12.01712 121.0371,18.65192 16.1021,15.85401 26.9964,39.24048 27.5925,59.23185 l 0.2236,7.5 -30.4549,0 -30.455,0 -1.2561,-6.2065 C 3297.7816,22.18502 3289.8538,11.75603 3278.4455,6 c -5.6215,-2.83634 -6.6005,-3 -17.9459,-3 -10.9259,0 -12.5118,0.23988 -17.7181,2.68006 -15.6458,7.33321 -24.2157,23.77941 -20.8469,40.00676 2.1912,10.55479 11.4345,19.80593 24.8015,24.82231 3.1699,1.18962 12.5135,3.88978 20.7635,6.00034 35.5551,9.09591 59.4502,21.10206 77.0742,38.72601 24.4747,24.47472 32.6963,58.44837 23.296,96.26452 -9.5138,38.27255 -37.5604,65.69504 -77.3702,75.64846 -8.0544,2.01379 -13.113,2.56954 -26,2.85643 -8.8,0.1959 -17.125,0.15719 -18.5,-0.086 z m 176.286,-1.81332 c -10.4141,-3.39385 -20.3608,-12.26352 -25.1059,-22.38749 -2.3746,-5.06635 -2.6801,-6.91722 -2.6801,-16.2391 0,-9.86071 0.2051,-10.93761 3.2677,-17.15868 4.1612,-8.45261 12.862,-16.73751 20.9477,-19.94636 8.306,-3.29628 22.3358,-3.26267 30.7846,0.0738 8.316,3.28398 18.2683,13.23636 21.5523,21.55231 3.3364,8.44876 3.3701,22.47859 0.074,30.78458 -3.1948,8.05029 -11.4971,16.78812 -19.8657,20.90798 -5.7016,2.80687 -7.7443,3.26439 -15.6587,3.50713 -5.742,0.17611 -10.6572,-0.22776 -13.3157,-1.09413 z M 2467,287.86853 c -41.4718,-5.19286 -76.734,-22.66603 -105.0011,-52.03021 -13.0423,-13.5486 -22.1708,-26.29589 -29.9608,-41.83832 -13.9737,-27.87991 -20.0361,-57.91219 -17.9349,-88.84696 4.1041,-60.42312 40.218,-114.21396 95.2071,-141.80876 38.8977,-19.5198 85.9506,-23.14866 126.1571,-9.72963 33.7261,11.2562 64.312,35.388 84.7739,66.88535 11.3415,17.4582 21.321,40.57513 24.1749,56 2.9921,16.17154 4.7576,61.93816 2.5486,66.06574 -1.0156,1.89774 -3.5942,1.93426 -136.5794,1.93426 l -135.5443,0 0.6898,3.25 c 1.3622,6.41826 6.5738,18.56014 11.5483,26.90471 15.8664,26.61563 40.3327,44.95014 70.6591,52.95029 11.9804,3.16042 35.7948,3.71016 48.2617,1.11407 25.9195,-5.39741 47.747,-20.06005 60.8677,-40.88785 2.7133,-4.30717 6.0744,-9.06872 7.469,-10.58122 l 2.5358,-2.75 31.0951,0 c 26.8981,0 31.1739,0.20514 31.6784,1.51985 0.9398,2.44923 -9.4825,24.8889 -17.2115,37.05666 -16.4743,25.93585 -41.4744,48.17887 -67.98,60.483 -21.3407,9.90653 -40.1549,14.02914 -65.9545,14.45214 -9.9,0.16232 -19.575,0.0979 -21.5,-0.14312 z M 2585.4702,93.25 C 2580.3181,62.21836 2564.1298,35.56909 2540.7594,19.64666 2533.587,14.76007 2520.4489,8.78019 2511.5,6.32916 2504.6115,4.44243 2500.9297,4.13749 2485,4.13427 c -16.85,-0.003 -19.372,0.2312 -28.2773,2.63034 -11.4031,3.07205 -25.713,9.60692 -35.9604,16.42199 -15.9293,10.5938 -32.0066,30.07798 -39.8713,48.3203 -3.0613,7.10071 -7.891,22.65284 -7.891,25.40971 0,0.32087 47.9646,0.58339 106.5879,0.58339 l 106.5879,0 z m 234.9313,194.22273 c -72.481,-6.95539 -132.7511,-58.41953 -150.4399,-128.45943 -3.9445,-15.61835 -5.1804,-25.76102 -5.1804,-42.5133 0,-16.75228 1.2359,-26.89495 5.1804,-42.5133 7.2193,-28.5852 20.9557,-53.51259 41.4169,-75.15882 25.6112,-27.09453 58.5829,-44.90656 95.1908,-51.42421 16.6237,-2.95967 42.1569,-2.97463 58.6604,-0.0344 27.6039,4.91793 57.0951,17.97942 76.5203,33.89047 l 4.25,3.48114 0,-13.92933 c 0,-9.5662 0.3915,-14.46413 1.25,-15.6367 1.1376,-1.55378 3.9037,-1.68342 30.75,-1.44113 l 29.5,0.26624 0,163.5 0,163.5 -29.5,0.26624 c -26.8463,0.24229 -29.6124,0.11265 -30.75,-1.44113 -0.8679,-1.18552 -1.25,-6.2705 -1.25,-16.6367 l 0,-14.92933 -4.25,3.48114 c -19.3174,15.82269 -49.5345,29.21426 -76.0723,33.71359 -13.6915,2.32132 -33.1042,3.18696 -45.2762,2.01892 z M 2849.5,229.39144 c 12.8979,-1.5806 24.393,-5.11025 37,-11.36116 13.1431,-6.51673 21.4951,-12.66281 31.6465,-23.28821 15.1883,-15.8974 24.5258,-33.45192 29.5301,-55.51677 1.137,-5.01331 1.6387,-11.97055 1.6387,-22.7253 0,-20.59951 -2.83,-33.17854 -11.2792,-50.1341 -7.6698,-15.39162 -20.2437,-30.551 -33.985,-40.97331 -8.603,-6.52507 -26.3445,-15.2527 -37.3143,-18.3562 -63.5404,-17.97632 -129.5591,22.89762 -142.3805,88.15162 -2.2637,11.52084 -2.2527,30.87212 0.024,42.62398 11.3144,58.39809 66.468,98.76702 125.1196,91.57945 z M 1666.3839,286.0213 c -19.049,-2.91949 -33.4938,-7.54048 -51.8839,-16.59801 -18.1399,-8.93432 -30.1627,-17.60016 -44.9929,-32.43039 -14.4424,-14.44239 -23.2744,-26.60534 -31.9452,-43.9929 -7.8929,-15.82765 -11.7722,-26.84383 -15.2827,-43.39845 -2.3863,-11.25327 -2.6769,-14.79491 -2.7159,-33.10155 -0.037,-17.5018 0.2906,-22.15761 2.2427,-31.83379 10.3959,-51.5309 41.2083,-93.85453 86.694,-119.08212 40.3987,-22.40617 89.7304,-27.13205 132.7955,-12.72155 41.3064,13.82199 75.7905,45.30198 96.1764,87.79796 7.0618,14.7208 12.0884,30.08447 13.5252,41.3395 1.3498,10.57307 2.5756,55.08187 1.6217,58.8826 l -0.6569,2.6174 -135.981,0 c -74.7895,0 -135.9809,0.1738 -135.9809,0.38623 0,0.21243 1.1829,3.92493 2.6286,8.25 12.0558,36.06567 41.9513,64.07555 79.0941,74.1053 8.853,2.39061 11.5261,2.64579 28.2773,2.69933 16.3227,0.0522 19.4925,-0.21206 26.9332,-2.24521 25.0757,-6.85191 46.0957,-22.96129 59.063,-45.26495 1.7366,-2.98689 3.8838,-5.9932 4.7717,-6.6807 1.8831,-1.45809 61.795,-1.81353 64.056,-0.38003 1.0573,0.67035 0.782,2.12704 -1.3672,7.23469 -23.499,55.847 -64.6748,91.169 -119.9567,102.90297 -13.0909,2.77862 -43.589,3.58688 -57.1161,1.51367 z M 1790.5927,91.48711 c -1.8118,-13.65821 -9.9289,-34.15452 -18.6953,-47.20731 -10.2055,-15.19559 -28.5439,-29.56801 -45.6033,-35.74082 -26.7502,-9.67937 -60.5339,-7.46355 -86.7941,5.69269 -19.3309,9.68467 -38.363,28.12509 -48.9208,47.39968 -4.1323,7.54422 -9.0356,20.43879 -11.0413,29.03661 l -1.3605,5.83204 106.5401,0 106.5402,0 z M 852.2,280.3 c -0.92344,-0.92344 -1.2,-38.47302 -1.2,-162.92857 0,-145.69264 0.15581,-161.88439 1.57143,-163.3 1.35435,-1.35435 5.47099,-1.57143 29.8,-1.57143 20.62222,0 28.55192,0.32335 29.42857,1.2 0.79774,0.79774 1.2,5.15556 1.2,13 0,6.49 0.22248,11.8 0.4944,11.8 0.27191,0 4.15436,-2.7137 8.62765,-6.03044 17.89112,-13.26546 34.86628,-21.01732 56.10977,-25.62304 11.44362,-2.48105 40.39768,-2.47316 53.70158,0.0146 28.9938,5.42173 51.6387,16.95732 70.6934,36.01202 24.426,24.42601 36.3013,53.86997 38.1646,94.62682 0.3897,8.525 0.4836,57.8 0.2086,109.5 l -0.5,94 -29.3791,0.26531 c -20.8424,0.18822 -29.7774,-0.0653 -30.75,-0.87244 C 1079.2261,279.44276 1079,262.4376 1079,177.28464 1079,78.78312 1078.931,74.97563 1076.972,65.36266 1071.5805,38.90596 1058.5997,19.79183 1039.7503,10.55371 1026.7682,4.19116 1020.9227,2.99515 1003,3.03449 985.16975,3.07359 978.48866,4.40738 965.15648,10.58921 940.1258,22.19538 924.37084,42.11353 915.79049,73 c -2.21681,7.97977 -2.22327,8.25149 -2.55607,107.47165 -0.25488,75.988 -0.61704,99.65179 -1.53404,100.23468 -2.11004,1.34128 -58.13537,0.95868 -59.50038,-0.40633 z m 1020.05,0.54514 c -0.9946,-0.40722 -1.25,-44.72773 -1.25,-216.89329 0,-212.90657 0.031,-216.39811 1.9343,-217.41667 1.2055,-0.64518 12.8385,-1.03518 30.8775,-1.03518 23.1331,0 29.1691,0.27205 30.068,1.35521 0.8271,0.99652 1.058,58.627906 0.8725,217.75 L 1934.5,281 1904,281.17847 c -16.775,0.0982 -31.0625,-0.0518 -31.75,-0.33333 z m 157.999,-0.49616 C 2029.2581,279.35806 2029,234.51969 2029,63.33518 l 0,-215.76481 2.0707,-1.10821 c 1.4791,-0.79161 21.5482,-0.9907 70.25,-0.69689 64.4326,0.38871 68.6739,0.52453 77.1793,2.47143 48.5668,11.11706 83.7638,47.01203 93.1413,94.98842 2.2797,11.66305 2.2392,32.91039 -0.083,43.77488 -4.5005,21.05183 -13.0575,38.88078 -25.8226,53.80241 -2.7301,3.19132 -4.7999,5.92768 -4.5996,6.08079 0.2004,0.1531 3.9546,2.71702 8.3428,5.69759 9.983,6.78072 23.5305,20.09927 30.4336,29.91921 26.3972,37.5515 29.8762,86.6946 9.0614,128 -17.3761,34.48168 -47.6432,58.07411 -86.9735,67.7936 l -10.5,2.59481 -80.001,0.35477 c -63.0156,0.27946 -80.2662,0.0896 -81.25,-0.8942 z m 155.413,-61.32681 c 23.0844,-4.35248 43.4824,-22.49476 50.6201,-45.02217 1.8643,-5.88402 2.211,-9.23196 2.1746,-21 -0.04,-12.89603 -0.2672,-14.59141 -2.8833,-21.5 -7.2607,-19.17366 -21.5581,-33.4593 -40.5734,-40.54019 -7.3144,-2.72371 -8.193,-2.8111 -35.5,-3.53067 -15.4,-0.40581 -36.2125,-0.78088 -46.25,-0.83349 L 2095,86.5 l 0,67 0,67 41.412,0 c 32.3321,0 43.1306,-0.32403 49.25,-1.47783 z m -16.1221,-195.0372 c 25.7603,-6.54815 44.3281,-29.02631 46.1139,-55.82528 0.6959,-10.44314 -1.4019,-20.65836 -6.2963,-30.65969 -5.1899,-10.60511 -16.9786,-22.33261 -27.533,-27.389963 C 2169.6086,-95.743502 2163.3241,-96.5 2126.912,-96.5 l -31.912,0 0,61 0,61 34.2899,0 c 27.3418,0 35.4976,-0.30699 40.25,-1.51503 z m 865.5803,256.15982 c -0.8271,-0.99652 -1.058,-58.62791 -0.8725,-217.75 L 3034.5,-154 l 30.8799,-0.26464 c 21.9522,-0.18813 31.276,0.0641 32.25,0.87244 1.1285,0.9366 1.3701,10.46043 1.3701,54.014645 l 0,52.877555 25.3,0 c 18.3444,0 25.6299,0.32991 26.5,1.2 0.8732,0.87318 1.2,8.44444 1.2,27.8 0,19.35556 -0.3268,26.92682 -1.2,27.8 -0.8701,0.87009 -8.1556,1.2 -26.5,1.2 l -25.3,0 0,133.8 c 0,102.73333 -0.2786,134.07862 -1.2,135 -1.8493,1.84931 -61.1381,1.7025 -62.6798,-0.15521 z m 367.3471,-88.66876 C 3402.203,187.75091 3402.1021,111.825 3402.2433,17.5 l 0.2567,-171.5 32,0 32,0 0,172.5 0,172.5 -31.776,0.26408 c 0,0 -2.1874,-0.0101 -32.2567,0.21195 z"
       style="fill:#ffffff" />
  </g>
  <g
     id="g4040"
     inkscape:groupmode="layer"
     inkscape:label="Edit: Alb1183">
    <flowRoot
       xml:space="preserve"
       id="flowRoot3803"
       style="font-size:40px;font-style:normal;font-weight:normal;line-height:125%;letter-spacing:0px;word-spacing:0px;fill:#000000;fill-opacity:1;stroke:none;font-family:Sans"
       transform="translate(-662,52)"><flowRegion
         id="flowRegion3805"><rect
           id="rect3807"
           width="950"
           height="435"
           x="1960"
           y="833" /></flowRegion><flowPara
         id="flowPara3809">Autor: VisualArt's/Key</flowPara><flowPara
         id="flowPara3822">Editor &amp; Vertor: Alb1183</flowPara><flowPara
         id="flowPara3828" /><flowPara
         id="flowPara3824">Español: Logo de Angel Beats</flowPara><flowPara
         id="flowPara3830">English: Angel Beats logo</flowPara><flowPara
         id="flowPara3832" /><flowPara
         id="flowPara3834">Source: http://www.angelbeats.jp/</flowPara><flowPara
         id="flowPara3826" /></flowRoot>  </g>
  <path
     style="fill:#ffffff"
     d="m 2606.9701,498.95362 0,36.41812 c 0,40.75387 -1.1609,37.69806 13.2149,34.61501 14.7336,-3.1598 24.7376,-15.61996 24.8165,-30.89016 0.035,-6.94346 -0.024,-7.02265 -5.7414,-7.02265 -5.2361,0 -5.7889,0.43172 -5.7889,4.60268 0,6.53345 -6.7543,18.89384 -11.1746,20.45109 l -3.7248,1.32861 0,-29.75135 0,-29.75135 -5.8127,0 z m -388.9976,1.66076 0,6.54815 0.404,7.35611 12.4313,-0.30974 12.8353,0.47451 0,21.51872 0,21.51871 -14.4961,0.4745 -14.4723,0.49823 0,6.54815 0,6.54814 36.4181,0 36.418,0 0,-6.61932 0,-6.61932 -14.0689,0 -14.069,0 0,-22.34909 0,-22.34911 12.4082,0 12.4083,0 0,-6.61931 0,-6.61933 -33.0966,0 z m 147.3332,0 0,11.64906 c 0,13.11604 -3.4075,21.79361 -12.1948,31.1274 -8.6113,9.14702 -16.6085,12.36566 -32.9067,13.19119 l -14.4962,0.71176 0,7.25989 0,7.23618 10.534,0 c 29.5672,0 50.1507,-10.9777 59.9298,-31.98152 3.3004,-7.08828 3.9965,-11.18756 4.0096,-23.86751 l 0.024,-15.32645 -7.4497,0 -7.4497,0 z m 216.848,0 0,25.52828 c 0,14.03703 -0.4884,26.74683 -1.0677,28.25665 -0.5795,1.50983 -2.8066,3.42868 -4.9585,4.24681 -3.0919,1.17549 -3.9147,2.69669 -3.9147,7.30735 0,3.3914 0.8297,5.83639 1.9692,5.83639 4.5317,0 15.8854,-6.99025 17.6515,-10.86612 1.203,-2.64036 1.898,-14.56613 1.898,-32.24249 l 0,-28.06687 -5.789,0 z m 100.9742,0 0,26.64335 c 0,31.50653 1.4775,36.48978 12.2896,41.40041 5.6666,2.57366 11.0502,3.07747 33.6422,3.10799 l 26.9044,0.0237 0,-7.4497 0,-7.4497 -26.501,0 c -24.4784,0 -26.739,-0.23802 -29.8699,-3.36897 -2.819,-2.81906 -3.303,-5.12041 -2.8946,-13.6657 l 0.4982,-10.27299 29.3719,-0.45078 29.3954,-0.45078 0,-7.40224 0,-7.42597 -29.7988,0 -29.7987,0 0,-6.61933 c 0,-6.62124 0,-6.61932 -6.6194,-6.61932 l -6.6193,0 z m 233.8588,0 -0.8777,14.02157 c -0.6946,11.13397 -1.7799,15.56133 -5.2433,21.47127 -8.4331,14.38988 -21.5422,20.78324 -42.563,20.78324 l -13.0251,0 0,7.66322 0,7.66323 17.7939,-0.8541 c 23.2837,-1.12433 31.566,-4.15042 43.6306,-15.96703 11.4061,-11.17157 14.7096,-20.37701 14.7096,-40.99707 l 0,-13.78433 -7.2125,0 z m -611.2787,1.66077 0,7.4497 0,7.44969 18.221,0 18.1973,0 0,-7.44969 0,-7.4497 -18.1973,0 z m 549.5696,0 0,16.56016 0,16.53643 6.6194,0 6.6192,0 0,-16.53643 0,-16.56016 -6.6192,0 z m 24.8165,0 0,16.56016 0,16.53643 7.4497,0 7.4497,0 0,-16.53643 0,-16.56016 -7.4497,0 z m -481.6917,1.66076 0,5.71777 0,5.71775 12.8352,0.5694 c 7.0559,0.3103 15.6135,0.71833 19.0276,0.90156 6.1937,0.3324 6.2159,0.31972 6.2159,-6.28717 l 0,-6.61931 -19.0275,0 z m 69.1349,13.23863 c -7.465,0 -7.4892,0.0213 -9.3239,7.30735 -2.2738,9.03003 -10.452,19.95648 -19.8579,26.57218 -6.567,4.61883 -8.3953,5.05067 -23.5354,5.57542 l -16.4177,0.5694 0,7.49714 0,7.47343 17.7937,-0.6643 c 14.8443,-0.54242 19.3562,-1.36563 27.1654,-4.98229 16.7488,-7.75682 28.6012,-23.55656 30.6528,-40.87845 l 0.9965,-8.46988 z m 25.2199,0 0,6.61933 0,6.61931 10.8187,0 10.8424,0 -0.4982,14.49607 -0.4746,14.47235 -10.3441,0.49823 -10.3442,0.49822 0,5.69404 0,5.71777 28.138,0 28.1381,0 0,-5.78894 0,-5.78893 -9.9171,0 -9.9409,0 0,-14.89941 0,-14.8994 9.9409,0 9.9171,0 0,-6.61931 0,-6.61933 -28.1381,0 z m -94.3548,6.61933 0,6.61931 0,6.61932 19.0512,0 19.0275,0 0,-6.61932 0,-6.61931 -19.0275,0 z m 374.0982,3.32151 0,8.25636 0,8.28009 31.4595,0 31.4597,0 0,-8.28009 0,-8.25636 -31.4597,0 z"
     id="path4132"
     inkscape:connector-curvature="0"
     sodipodi:nodetypes="csscssccccccccccccccccccccccccccccccccssccccscccccccscssscsccccssccccssccccccccssccccssccccssccccccccccccccccccccccccccccccccccsscccssscccccsccsccccccccccccccccccccccccccccccccccccccccccc" />
  <rect
     style="fill:#ffffff;fill-opacity:1;fill-rule:nonzero;stroke:none"
     id="rect4164"
     width="179.17647"
     height="55.529411"
     x="2945.647"
     y="505.23529" />
  <rect
     style="fill:#ffffff;fill-opacity:1;fill-rule:nonzero;stroke:none"
     id="rect4166"
     width="151.32552"
     height="54.521614"
     x="2029.8512"
     y="507.18423" />
  <rect
     style="fill:#ffffff;fill-opacity:1;fill-rule:nonzero;stroke:none"
     id="rect4168"
     width="7.6756787"
     height="8.8876524"
     x="2468.7407"
     y="502.49063" />
  <rect
     y="502.49063"
     x="2458.6411"
     height="8.8876524"
     width="7.6756787"
     id="rect4170"
     style="fill:#ffffff;fill-opacity:1;fill-rule:nonzero;stroke:none" />
  <rect
     y="498.45081"
     x="2752.3369"
     height="8.8876524"
     width="7.6756787"
     id="rect4174"
     style="fill:#ffffff;fill-opacity:1;fill-rule:nonzero;stroke:none" />
  <rect
     style="fill:#ffffff;fill-opacity:1;fill-rule:nonzero;stroke:none"
     id="rect4176"
     width="7.6756787"
     height="8.8876524"
     x="2742.2373"
     y="498.45081" />
</svg>
