<!-- Created with Inkscape (http://www.inkscape.org/) -->
<svg xmlns:rdf="http://www.w3.org/1999/02/22-rdf-syntax-ns#" xmlns="http://www.w3.org/2000/svg" version="1.1" xmlns:cc="http://creativecommons.org/ns#" xmlns:xlink="http://www.w3.org/1999/xlink" viewBox="0 0 4093.6 751.46" xmlns:dc="http://purl.org/dc/elements/1.1/">
	<defs>
		<linearGradient id="linearGradient4172" y2="359.27" gradientUnits="userSpaceOnUse" y1="359.27" gradientTransform="matrix(0,-1,1,0,673.86333,2278.1245)" x2="1938.3" x1="1230.8">
			<stop stop-color="#900" offset="0"/>
			<stop stop-color="#e10318" offset="1"/>
		</linearGradient>
	</defs>
	<metadata>
		<rdf:RDF>
			<cc:Work rdf:about="">
				<dc:format>image/svg+xml</dc:format>
				<dc:type rdf:resource="http://purl.org/dc/dcmitype/StillImage"/>
				<dc:title/>
			</cc:Work>
		</rdf:RDF>
	</metadata>
	<g transform="translate(1006.5654,-147.42847)">
		<g transform="translate(-455.13678,-192.40216)">
			<path d="m1042.6,383.83c-11.208,0.011-22.388,0.2721-33.438,1.2188-10.694,4.8193-17.969,16.058-18.031,27.844-2.31,46.347,0.2681,92.85-1.9375,139.19-1.8847,4.5899-6.7217-0.9253-8.7813-2.5-25.838-25.359-56.032-47.503-91.281-57.875-39.274-12.252-82.563-9.6861-120.53,5.7188-28.643,11.161-54.754,28.518-77.063,49.469-4.8951,2.274-5.6074-4.9441-5.3437-8.1562-0.3729-12.464,1.7904-27.647-8.9375-36.531-8.2034-10.102-22.293-7.5068-33.75-8.2187-18.973,0.3965-38.132-1.0953-57,0.9062-5.7989,1.4819-9.8875,6.7932-9.6875,12.719-1.8819,5.2082-8.3036,1.6299-11.344-0.375-42.815-26.899-97.735-28.691-145.06-13.656-40.856,13.287-77.524,39.569-101.31,75.469-2.4829,2.2931-4.6757,8.748-8.9063,6.8437-5.5473-6.675-8.6454-15.286-14.062-22.219-17.428-24.607-41.207-45.528-69.219-56.906-39.114-16.721-85.923-20.538-125.47-2.9375-7.0333,2.6589-12.597,7.9623-19.469,10.656-10.636-3.9528-20.821-10.269-32.5-10.562-11.609-0.8613-23.21,0.8101-34.812,1.0937-0.78534-26.394,0.14312-52.893-1.9688-79.219-2.2792-9.3201-7.8387-17.899-15.375-23.875-3.4592-2.7429-7.3299-4.9522-11.5-6.4063-5.9985-2.5143-13.369-0.7782-19.844-1.5-20.883,0.1058-42.031-0.6358-62.75,0.3438-8.3548,2.8385-14.457,9.0975-19.156,16.344-73.077,96.54-144.01,194.6-215.53,292.34-55.095,76.215-111.15,151.93-164.25,229.44-4.9338,6.548-8.0969,14.242-11.312,21.5,0.01,5.91-1.895,13.002,2.2188,17.875,3.3379,8.3906,12.69,13.169,20.875,15.062,282.71,0.3801,565.42,0.7479,848.12,1.0937,26.312,16.936,55.826,29.006,87.062,32.469,47.325,6.3324,98.37,1.2584,139-25.312,5.5668-3.6759,11.211-8.0317,18.344-6.8438,97.958-1.3943,195.94-0.5941,293.91-0.9062h530.41c9.1917,8.9218,9.8737,22.784,14.281,34.25,6.9004,21.049,12.342,42.842,22.438,62.594,6.5228,13.613,23.232,20.753,37.375,15.031,10.969-3.009,18.572-11.954,24-21.5,17.375-27.484,32.354-56.666,51.5-82.937,3.4066-6.3934,11.838-2.2801,17.75-3.4375,324.17-0.1625,648.33,0.3614,972.5-0.375,20.065-0.4175,934.6,0.4777,954.57-1.25,9.4055-2.9254,15.568-12.596,14.406-22.344,0-172.58,0.6767-376.31,0.2188-550.16-2.8551-10.141-10.641-18.604-20.844-21.406-6.8422-3.2155-909.56-0.9735-916.98-1.875-20.606,0.14-41.511-0.6827-61.938,0.3438-10.941,3.9514-19.186,13.973-19.875,25.656-1.8125,41.022-0.098,82.197-2.1563,123.19-2.6545,4.2088-7.0652-2.1499-9.5624-3.75-24.125-24.826-56.526-44.97-92.063-44.719-31.09-2.1682-61.273,9.8284-86.531,26.844-2.5239,2.1014-6.3102,1.7458-6.5312-2.0312-1.1703-5.4554-1.1875-14.519-8.5938-14.844-12.015-1.4113-24.148-1.254-36.219-1.8437-0.7874-28.214,0.06-56.622-1.9374-84.719-2.0595-10.17-9.2573-19.386-19.406-22.312-5.681-2.7902-13.161-0.8498-19.469-1.6875-19.864,0.038-39.983-0.7083-59.688,0.2188-10.473,4.2336-21.031,10.45-24.469,21.938-3.6032,12.519-1.527,26.084-2.4375,39-0.2335,15.865-0.4278,31.729-0.6562,47.594-21.427,0.9182-43.163-0.3486-64.406,2.25-7.0701,1.5096-10.938,8.2105-14.688,13.656-4.5072,1.8465-8.8315-3.1144-13.031-4.3438-46.764-25.416-104.65-22.796-152.81-3.3125-39.417,15.797-73.733,43.763-94.656,80.844-2.4376,2.6506-4.1489,9.4801-8.5938,8-9.2253-10.341-15.47-23.29-25-33.594-27.324-32.952-63.964-58.664-106.37-67.531-56.984-13.191-118.32,4.3041-163.62,40.094-16.966,11.233-28.945,28.401-44.969,40.625-5.1268,1.2507-3.6098-6.3127-3.4687-9.2812,3.0021-30.424-0.3223-61.995-13.938-89.562-20.616-43.969-63.791-75.986-111.53-84.281-11.057-3.6184-23.169-1.3794-34.688-2.3125-26.655-0.2654-53.313-0.3504-79.969-0.2187-16.586,0.4029-33.54-0.4876-49.906,1.2187-7.1628,3.2126-14.093,8.1846-17.188,15.594-3.5266,4.8068-0.5145,13.995-7.5,16.062-9.5492,0.9776-19.651,1.2047-29.094-0.25-5.8976-1.4842-3.1933-8.7392-5.3437-12.781-1.8668-8.1412-8.2078-13.987-15.719-16.969-5.4315-4.5131-13.365-1.7178-19.906-2.75-11.149,0-22.386-0.2301-33.594-0.2188z" fill="#000"/>
			<path fill="url(#linearGradient4172)" d="m998.63,339.83c-11.208,0.011-22.388,0.2721-33.438,1.2188-10.694,4.8193-17.969,16.058-18.031,27.844-2.31,46.347,0.2681,92.85-1.9375,139.19-1.8847,4.5899-6.7217-0.9253-8.7813-2.5-25.838-25.359-56.032-47.503-91.281-57.875-39.274-12.252-82.563-9.6861-120.53,5.7188-28.643,11.161-54.754,28.518-77.063,49.469-4.8951,2.274-5.6074-4.9441-5.3437-8.1562-0.3729-12.464,1.7904-27.647-8.9375-36.531-8.2034-10.102-22.293-7.5068-33.75-8.2187-18.973,0.3965-38.132-1.0953-57,0.9062-5.7989,1.4819-9.8875,6.7932-9.6875,12.719-1.8819,5.2082-8.3036,1.6299-11.344-0.375-42.815-26.899-97.735-28.691-145.06-13.656-40.856,13.287-77.524,39.569-101.31,75.469-2.4829,2.2931-4.6757,8.748-8.9063,6.8437-5.5473-6.675-8.6454-15.286-14.062-22.219-17.428-24.607-41.207-45.528-69.219-56.906-39.114-16.721-85.923-20.538-125.47-2.9375-7.0333,2.6589-12.597,7.9623-19.469,10.656-10.636-3.9528-20.821-10.269-32.5-10.562-11.609-0.8613-23.21,0.8101-34.812,1.0937-0.78534-26.394,0.14312-52.893-1.9688-79.219-2.2792-9.3201-7.8387-17.899-15.375-23.875-3.4592-2.7429-7.3299-4.9522-11.5-6.4063-5.9985-2.5143-13.369-0.7782-19.844-1.5-20.883,0.1058-42.031-0.6358-62.75,0.3438-8.3548,2.8385-14.457,9.0975-19.156,16.344-73.077,96.539-144.01,194.6-215.53,292.34-55.095,76.215-111.15,151.93-164.25,229.44-4.9338,6.548-8.0969,14.242-11.312,21.5,0.01,5.91-1.895,13.002,2.2188,17.875,3.3379,8.3906,12.69,13.169,20.875,15.062,282.71,0.3801,565.42,0.7479,848.12,1.0937,26.312,16.936,55.826,29.006,87.062,32.469,47.325,6.3324,98.37,1.2584,139-25.312,5.5668-3.6759,11.211-8.0317,18.344-6.8438,97.958-1.3943,195.94-0.5941,293.91-0.9062h530.41c9.1917,8.9218,9.8737,22.784,14.281,34.25,6.9004,21.049,12.342,42.842,22.438,62.594,6.5228,13.613,23.232,20.753,37.375,15.031,10.969-3.009,18.572-11.954,24-21.5,17.375-27.484,32.354-56.666,51.5-82.937,3.4066-6.3934,11.838-2.2801,17.75-3.4375,324.17-0.1625,648.33,0.3614,972.5-0.375,20.065-0.4175,938.05,0.4777,958.02-1.25,9.4055-2.9254,15.568-12.596,14.406-22.344,0-169.22,0.6766-376.35,0.2188-550.16-2.8551-10.141-10.641-18.604-20.844-21.406-6.8422-3.2155-913.01-0.9735-920.43-1.875-20.606,0.14-41.511-0.6827-61.938,0.3438-10.941,3.9514-19.186,13.973-19.875,25.656-1.8125,41.022-0.098,82.197-2.1563,123.19-2.6545,4.2088-7.0652-2.1499-9.5624-3.75-24.125-24.826-56.526-44.97-92.063-44.719-31.09-2.1682-61.273,9.8284-86.531,26.844-2.5239,2.1014-6.3102,1.7458-6.5312-2.0312-1.1703-5.4554-1.1875-14.519-8.5938-14.844-12.015-1.4113-24.148-1.254-36.219-1.8437-0.7874-28.213,0.06-56.622-1.9374-84.719-2.0595-10.17-9.2573-19.386-19.406-22.312-5.681-2.7902-13.161-0.8498-19.469-1.6875-19.864,0.038-39.983-0.7083-59.688,0.2188-10.473,4.2336-21.031,10.45-24.469,21.938-3.6032,12.519-1.527,26.084-2.4375,39-0.2335,15.865-0.4278,31.729-0.6562,47.594-21.427,0.9182-43.163-0.3486-64.406,2.25-7.0701,1.5096-10.938,8.2105-14.688,13.656-4.5072,1.8465-8.8315-3.1144-13.031-4.3438-46.764-25.416-104.65-22.796-152.81-3.3125-39.417,15.797-73.733,43.763-94.656,80.844-2.4376,2.6506-4.1489,9.4801-8.5938,8-9.2253-10.341-15.47-23.29-25-33.594-27.324-32.952-63.964-58.664-106.37-67.531-56.984-13.191-118.32,4.3041-163.62,40.094-16.966,11.233-28.945,28.401-44.969,40.625-5.1268,1.2507-3.6098-6.3127-3.4687-9.2812,3.0021-30.424-0.3223-61.995-13.938-89.562-20.616-43.969-63.791-75.986-111.53-84.281-11.057-3.6184-23.169-1.3794-34.688-2.3125-26.655-0.2654-53.313-0.3504-79.969-0.2187-16.586,0.4029-33.54-0.4876-49.906,1.2187-7.1628,3.2126-14.093,8.1846-17.188,15.594-3.5266,4.8068-0.5145,13.995-7.5,16.062-9.5492,0.9776-19.651,1.2047-29.094-0.25-5.8976-1.4842-3.1933-8.7392-5.3437-12.781-1.8668-8.1412-8.2078-13.987-15.719-16.969-5.4315-4.5131-13.365-1.7178-19.906-2.75-11.149,0-22.386-0.2301-33.594-0.2188z"/>
			<g fill="#FFF" transform="translate(-894.4121,522.21942)">
				<path fill="#FFF" d="m2342.2,485.23c-1.6977-2.0455-34.56-97.976-38.618-112.73-5.7644-20.96-6.0819-21.362-9.4904-12.014-1.2005,3.2923-3.6461,7.9048-5.4349,10.25l-3.2522,4.264-397.4,0.25125c-218.57,0.13819-397.76-0.11402-398.21-0.56046-0.4464-0.44644,2.0607-4.6095,5.5715-9.2512,7.4331-9.8277,16.013-23.728,21.782-35.288,2.2375-4.4836,4.9988-9.1644,6.1362-10.402l2.0679-2.25h362.27,362.27l5.117-8.25c4.8646-7.8429,21.283-40.417,38.848-77.075,7.1025-14.823,8.3219-16.786,10.25-16.5,1.2034,0.17851,3.0427,1.474,4.0874,2.8788s5.681,14.455,10.303,29c11.137,35.048,33.626,98.446,35.837,101.03,0.9662,1.1285,2.2977,1.8848,2.9589,1.6808,0.6612-0.20407,4.1271-6.2836,7.7021-13.51,3.575-7.2265,5.9076-18.212,8.1226-17.483l40.457,54.228c-8.5445,11.088-23.884,31.586-34.08,51.001-18.238,34.729-28.732,54.333-31.18,58.25-2.4314,3.8896-4.3219,4.6564-6.1247,2.4841zm-1032.7-77.88c-19.83-2.5413-43.082-9.5531-60.587-18.271-32.564-16.217-56.108-39.458-71.037-70.12-3.2231-6.62-5.9843-13.145-6.1361-14.5l-0.3-2.46,32.381-0.26403c22.975-0.18733,32.777,0.0646,33.744,0.86718,0.7496,0.62216,2.7766,3.602,4.5044,6.6218,12.157,21.248,39.097,36.392,72.537,40.776,26.416,3.4628,47.448,0.80973,68.223-8.6059,20.532-9.3052,40.615-29.051,51.488-50.624,6.2-12.14,10.7-28.27,10.7-38.03v-6.4261l-6.2893,5.0046c-23.5,18.7-54.527,31.399-86.115,35.247-13.649,1.6627-39.126,0.63388-52.069-2.1027-23.7-5.0111-47.667-15.364-66.527-28.738-12.18-8.6368-31.602-28.058-40.239-40.239-13.374-18.861-23.727-42.828-28.738-66.527-2.7366-12.942-3.7655-38.42-2.1027-52.069,3.2047-26.307,12.901-53.23,26.797-74.404,44.771-68.221,131.15-95.799,206.55-65.946,15.425,6.1073,28.412,13.564,42.98,24.676l5.75,4.3864v-13.936c0-10.584,0.3297-14.21,1.3709-15.074,0.9726-0.80715,9.9076-1.0607,30.75-0.87244l29.1,0.279,0.2911,145c0.3071,152.92,0.1899,157.84-4.2928,180.06-7.1986,35.688-25.683,68.266-50.422,88.868-24.369,20.294-52.041,32.066-87.078,37.045-11.616,1.6508-43.835,1.8734-55.464,0.38321zm52.742-181.17c20.095-5.3098,37.655-15.716,52.617-31.183,21.391-22.112,32.09-48.48,32.102-79.121,0.012-31.505-12.195-59.922-35.22-81.986-21.6-20.793-48.2-31.394-78.7-31.394-43.959,0-83.518,25.256-102.58,65.489-2.4637,5.2009-5.6712,13.856-7.1279,19.234-2.4286,8.9657-2.6484,11.355-2.6484,28.777,0,17.423,0.2198,19.812,2.6484,28.777,11.41,42.124,44.489,73.495,87.25,82.747,13.416,2.9025,38.146,2.2629,51.777-1.3391zm-876.69,148.33c-0.64695-1.0468,34.32-52.265,37.725-55.259,1.8865-1.6586,18.141-1.75,311.22-1.75,293.28,0,309.31,0.0903,310.71,1.75,0.8126,0.9625,3.8731,6.025,6.801,11.25,5.2987,9.4556,15.91,25.785,23.204,35.707,2.1053,2.864,3.8278,6.1265,3.8278,7.25v2.0427h-346.44c-227.69,0-346.65-0.33955-347.05-0.9906zm-108.51-1.53c0-1.9722,6.1475-11.791,14.074-22.479,5.0985-6.875,53.37-72.35,107.27-145.5,166.6-226.09,239.13-323.93,256.53-346,9.9173-12.583,7.81-11.946,40.736-12.319,32.591-0.36908,34.491-0.03,36.373,6.4911,0.79461,2.7536,1.0228,63.307,0.81337,215.83l-0.29,212-32.743,0.26365-32.743,0.26366-0.2573-64.764-0.26-64.76-79.18-0.25601-79.18-0.256-35.512,49.256c-19.53,27.09-55.46,76.94-79.83,110.76l-44.315,61.5-35.743,0.26263c-19.66,0.15-35.74,0.02-35.74-0.28zm389.76-355.92c0.18173-53.838-0.0611-76.251-0.83434-77-0.7745-0.7501-2.0854,0.0843-4.5219,2.8783-7.35,8.416-110.41,148.38-110.41,149.93,0,0.35861,25.988,0.53586,57.75,0.39389l57.75-0.258zm2479.2,272.86c-11.69-2.0677-15.132-2.8738-21.837-5.115-35.357-11.817-62.093-40.082-71.826-75.933-2.2781-8.3913-2.6915-11.968-2.7583-23.87l-0.079-14,28.538-0.26499c22.377-0.20778,28.928,0.0197,30.342,1.0536,1.417,1.0361,1.9743,3.4492,2.6017,11.265,1.2128,15.11,5.6454,25.021,15.255,34.109,15.344,14.512,39.349,17.63,58.189,7.5589,6.553-3.5031,15.328-12.308,18.875-18.941,2.9122-5.4448,5.6528-16.223,5.6826-22.349,0.028-5.7386-2.7284-13.393-6.7474-18.737-9.0605-12.048-23.341-19.993-46.223-25.716-53.708-13.434-84.258-37.773-94.11-74.978-2.5196-9.5142-3.0627-30.412-1.0395-40,6.5644-31.111,24.403-54.222,52.784-68.384,39.61-19.765,89.888-12.017,121.04,18.652,16.102,15.854,26.996,39.24,27.592,59.232l0.2236,7.5h-30.455-30.455l-1.2561-6.2065c-2.5-12.611-10.4-23.04-21.9-28.796-5.6215-2.8363-6.6005-3-17.946-3-10.926,0-12.512,0.23988-17.718,2.6801-15.646,7.3332-24.216,23.779-20.847,40.007,2.1912,10.555,11.434,19.806,24.802,24.822,3.1699,1.1896,12.514,3.8898,20.764,6.0003,35.555,9.0959,59.45,21.102,77.074,38.726,24.475,24.475,32.696,58.448,23.296,96.265-9.5138,38.273-37.56,65.695-77.37,75.648-8.0544,2.0138-13.113,2.5695-26,2.8564-8.8,0.1959-17.125,0.15719-18.5-0.086zm176.29-1.8133c-10.414-3.3938-20.361-12.264-25.106-22.387-2.3746-5.0664-2.6801-6.9172-2.6801-16.239,0-9.8607,0.2051-10.938,3.2677-17.159,4.1612-8.4526,12.862-16.738,20.948-19.946,8.306-3.2963,22.336-3.2627,30.785,0.0738,8.316,3.284,18.268,13.236,21.552,21.552,3.3364,8.4488,3.3701,22.479,0.074,30.785-3.1948,8.0503-11.497,16.788-19.866,20.908-5.7016,2.8069-7.7443,3.2644-15.659,3.5071-5.742,0.17611-10.657-0.22776-13.316-1.0941zm-955.3-0.24c-41.472-5.1929-76.734-22.666-105-52.03-13.042-13.549-22.171-26.296-29.961-41.838-13.974-27.88-20.036-57.912-17.935-88.847,4.1041-60.423,40.218-114.21,95.207-141.81,38.898-19.52,85.951-23.149,126.16-9.7296,33.726,11.256,64.312,35.388,84.774,66.885,11.342,17.458,21.321,40.575,24.175,56,2.9921,16.172,4.7576,61.938,2.5486,66.066-1.0156,1.8977-3.5942,1.9343-136.58,1.9343h-135.54l0.6898,3.25c1.3622,6.4183,6.5738,18.56,11.548,26.905,15.866,26.616,40.333,44.95,70.659,52.95,11.98,3.1604,35.795,3.7102,48.262,1.1141,25.92-5.3974,47.747-20.06,60.868-40.888,2.7133-4.3072,6.0744-9.0687,7.469-10.581l2.5358-2.75h31.095c26.898,0,31.174,0.20514,31.678,1.5198,0.9398,2.4492-9.4825,24.889-17.212,37.057-16.474,25.936-41.474,48.179-67.98,60.483-21.341,9.9065-40.155,14.029-65.954,14.452-9.9,0.16232-19.575,0.0979-21.5-0.14312zm118.5-194.62c-5.2-31.032-21.4-57.681-44.7-73.603-7.2-4.887-20.4-10.867-29.3-13.318-6.9-1.8868-10.6-2.1917-26.5-2.1949-16.85-0.003-19.372,0.2312-28.277,2.6303-11.403,3.072-25.713,9.6069-35.96,16.422-15.929,10.594-32.007,30.078-39.871,48.32-3.0613,7.1007-7.891,22.653-7.891,25.41,0,0.32087,47.965,0.58339,106.59,0.58339h106.59zm234.93,194.22c-72.481-6.9554-132.75-58.42-150.44-128.46-3.9445-15.618-5.1804-25.761-5.1804-42.513s1.2359-26.895,5.1804-42.513c7.2193-28.585,20.956-53.513,41.417-75.159,25.611-27.095,58.583-44.907,95.191-51.424,16.624-2.9597,42.157-2.9746,58.66-0.0344,27.604,4.9179,57.095,17.979,76.52,33.89l4.25,3.4811v-13.929c0-9.5662,0.3915-14.464,1.25-15.637,1.1376-1.5538,3.9037-1.6834,30.75-1.4411l29.5,0.26624v163.5,163.5l-29.5,0.26624c-26.846,0.24229-29.612,0.11265-30.75-1.4411-0.8679-1.1855-1.25-6.2705-1.25-16.637v-14.929l-4.25,3.4811c-19.317,15.823-49.534,29.214-76.072,33.714-13.692,2.3213-33.104,3.187-45.276,2.0189zm29.1-58.08c12.898-1.5806,24.393-5.1102,37-11.361,13.143-6.5167,21.495-12.663,31.646-23.288,15.188-15.897,24.526-33.452,29.53-55.517,1.137-5.0133,1.6387-11.971,1.6387-22.725,0-20.6-2.83-33.179-11.279-50.134-7.6698-15.392-20.244-30.551-33.985-40.973-8.603-6.5251-26.344-15.253-37.314-18.356-63.54-17.976-129.56,22.898-142.38,88.152-2.2637,11.521-2.2527,30.872,0.024,42.624,11.314,58.398,66.468,98.767,125.12,91.579zm-1183.1,56.63c-19.049-2.9195-33.494-7.5405-51.884-16.598-18.14-8.9343-30.163-17.6-44.993-32.43-14.442-14.442-23.274-26.605-31.945-43.993-7.8929-15.828-11.772-26.844-15.283-43.398-2.3863-11.253-2.6769-14.795-2.7159-33.102-0.037-17.502,0.2906-22.158,2.2427-31.834,10.396-51.531,41.208-93.855,86.694-119.08,40.399-22.406,89.73-27.132,132.8-12.722,41.306,13.822,75.79,45.302,96.176,87.798,7.0618,14.721,12.088,30.084,13.525,41.34,1.3498,10.573,2.5756,55.082,1.6217,58.883l-0.6569,2.6174h-135.98c-74.79,0-135.98,0.1738-135.98,0.38623s1.1829,3.9249,2.6286,8.25c12.056,36.066,41.951,64.076,79.094,74.105,8.853,2.3906,11.526,2.6458,28.277,2.6993,16.323,0.0522,19.492-0.21206,26.933-2.2452,25.076-6.8519,46.096-22.961,59.063-45.265,1.7366-2.9869,3.8838-5.9932,4.7717-6.6807,1.8831-1.4581,61.795-1.8135,64.056-0.38003,1.0573,0.67035,0.782,2.127-1.3672,7.2347-23.499,55.847-64.675,91.169-119.96,102.9-13.091,2.7786-43.589,3.5869-57.116,1.5137zm124.2-194.53c-1.8118-13.658-9.9289-34.155-18.695-47.207-10.206-15.196-28.544-29.568-45.603-35.741-26.75-9.6794-60.534-7.4636-86.794,5.6927-19.331,9.6847-38.363,28.125-48.921,47.4-4.1323,7.5442-9.0356,20.439-11.041,29.037l-1.3605,5.832h106.54,106.54zm-938.4,188.81c-0.92344-0.92344-1.2-38.473-1.2-162.93,0-145.69,0.15581-161.88,1.5714-163.3,1.3544-1.3544,5.471-1.5714,29.8-1.5714,20.622,0,28.552,0.32335,29.429,1.2,0.79774,0.79774,1.2,5.1556,1.2,13,0,6.49,0.22248,11.8,0.4944,11.8,0.27191,0,4.1544-2.7137,8.6276-6.0304,17.891-13.265,34.866-21.017,56.11-25.623,11.444-2.481,40.398-2.4732,53.702,0.0146,28.994,5.4217,51.639,16.957,70.693,36.012,24.426,24.426,36.301,53.87,38.165,94.627,0.3897,8.525,0.4836,57.8,0.2086,109.5l-0.5,94-29.379,0.26531c-20.842,0.18822-29.777-0.0653-30.75-0.87244-1.2-0.96-1.4-17.96-1.4-103.12,0-98.497-0.1-102.3-2-111.92-5.4-26.457-18.4-45.571-37.2-54.809-13-6.3628-18.9-7.5588-36.8-7.5195-17.83,0.0391-24.51,1.3729-37.84,7.5545-25.03,11.606-40.79,31.525-49.37,62.411-2.2168,7.9798-2.2233,8.2515-2.5561,107.47-0.25488,75.988-0.61704,99.652-1.534,100.23-2.11,1.3413-58.135,0.95868-59.5-0.40633zm1020,0.54514c-0.9946-0.40722-1.25-44.728-1.25-216.89,0-212.91,0.031-216.4,1.9343-217.42,1.2055-0.64518,12.838-1.0352,30.878-1.0352,23.133,0,29.169,0.27205,30.068,1.3552,0.8271,0.99652,1.058,58.628,0.8725,217.75l-0.3,216.39-30.5,0.18c-16.775,0.0982-31.062-0.0518-31.75-0.33333zm158-0.49616c-0.9-0.99-1.2-45.83-1.2-217.02v-215.76l2.0707-1.1082c1.4791-0.79161,21.548-0.9907,70.25-0.69689,64.433,0.38871,68.674,0.52453,77.179,2.4714,48.567,11.117,83.764,47.012,93.141,94.988,2.2797,11.663,2.2392,32.91-0.083,43.775-4.5005,21.052-13.058,38.881-25.823,53.802-2.7301,3.1913-4.7999,5.9277-4.5996,6.0808,0.2004,0.1531,3.9546,2.717,8.3428,5.6976,9.983,6.7807,23.53,20.099,30.434,29.919,26.397,37.552,29.876,86.695,9.0614,128-17.376,34.482-47.643,58.074-86.974,67.794l-10.5,2.5948-80.001,0.35477c-63.016,0.27946-80.266,0.0896-81.25-0.8942zm155.41-61.327c23.084-4.3525,43.482-22.495,50.62-45.022,1.8643-5.884,2.211-9.232,2.1746-21-0.04-12.896-0.2672-14.591-2.8833-21.5-7.2607-19.174-21.558-33.459-40.573-40.54-7.3144-2.7237-8.193-2.8111-35.5-3.5307-15.4-0.40581-36.212-0.78088-46.25-0.83349l-18.2-0.096v67,67h41.412c32.332,0,43.131-0.32403,49.25-1.4778zm-16.122-195.04c25.76-6.5482,44.328-29.026,46.114-55.825,0.6959-10.443-1.4019-20.658-6.2963-30.66-5.1899-10.605-16.979-22.333-27.533-27.39-12.2-5.849-18.5-6.605-54.9-6.605h-31.912v61,61h34.29c27.342,0,35.498-0.30699,40.25-1.515zm865.58,256.16c-0.8271-0.99652-1.058-58.628-0.8725-217.75l0.3-216.39,30.88-0.26464c21.952-0.18813,31.276,0.0641,32.25,0.87244,1.1285,0.9366,1.3701,10.46,1.3701,54.015v52.878h25.3c18.344,0,25.63,0.32991,26.5,1.2,0.8732,0.87318,1.2,8.4444,1.2,27.8s-0.3268,26.927-1.2,27.8c-0.8701,0.87009-8.1556,1.2-26.5,1.2h-25.3v133.8c0,102.73-0.2786,134.08-1.2,135-1.8493,1.8493-61.138,1.7025-62.68-0.15521zm367.35-88.669c-0.2-3.72-0.3-79.65-0.2-173.97l0.2567-171.5h32,32v172.5,172.5l-31.776,0.26408s-2.1874-0.0101-32.257,0.21195z"/>
			</g>
			<path d="m2055.5,833.24,0,36.418c0,40.754-1.1609,37.698,13.215,34.615,14.734-3.1598,24.738-15.62,24.816-30.89,0.035-6.9435-0.024-7.0226-5.7414-7.0226-5.2361,0-5.7889,0.43172-5.7889,4.6027,0,6.5334-6.7543,18.894-11.175,20.451l-3.7248,1.3286v-29.751-29.751h-5.8127zm-389,1.6608,0,6.5482,0.404,7.3561,12.431-0.30974,12.835,0.47451,0,21.519,0,21.519-14.496,0.4745-14.472,0.49823,0,6.5482,0,6.5481,36.418,0,36.418,0,0-6.6193,0-6.6193-14.069,0-14.069,0,0-22.349,0-22.349,12.408,0,12.408,0,0-6.6193,0-6.6193-33.097,0zm147.33,0,0,11.649c0,13.116-3.4075,21.794-12.195,31.127-8.6113,9.147-16.608,12.366-32.907,13.191l-14.496,0.71176v7.2599,7.2362h10.534c29.567,0,50.151-10.978,59.93-31.982,3.3004-7.0883,3.9965-11.188,4.0096-23.868l0.024-15.326h-7.4497-7.4497zm216.85,0,0,25.528c0,14.037-0.4884,26.747-1.0677,28.257-0.5795,1.5098-2.8066,3.4287-4.9585,4.2468-3.0919,1.1755-3.9147,2.6967-3.9147,7.3074,0,3.3914,0.8297,5.8364,1.9692,5.8364,4.5317,0,15.885-6.9902,17.652-10.866,1.203-2.6404,1.898-14.566,1.898-32.242v-28.067h-5.789zm100.97,0,0,26.643c0,31.507,1.4775,36.49,12.29,41.4,5.6666,2.5737,11.05,3.0775,33.642,3.108l26.904,0.0237v-7.4497-7.4497h-26.501c-24.478,0-26.739-0.23802-29.87-3.369-2.819-2.8191-3.303-5.1204-2.8946-13.666l0.4982-10.273,29.372-0.45078,29.395-0.45078v-7.4022-7.426h-29.799-29.799v-6.6193c0-6.6212,0-6.6193-6.6194-6.6193h-6.6193zm233.86,0-0.8777,14.022c-0.6946,11.134-1.7799,15.561-5.2433,21.471-8.4331,14.39-21.542,20.783-42.563,20.783h-13.025v7.6632,7.6632l17.794-0.8541c23.284-1.1243,31.566-4.1504,43.631-15.967,11.406-11.172,14.71-20.377,14.71-40.997v-13.784h-7.2125zm-611.28,1.6608,0,7.4497,0,7.4497,18.221,0,18.197,0,0-7.4497,0-7.4497-18.197,0zm549.57,0,0,16.56,0,16.536,6.6194,0,6.6192,0,0-16.536,0-16.56-6.6192,0zm24.816,0,0,16.56,0,16.536,7.4497,0,7.4497,0,0-16.536,0-16.56-7.4497,0zm-481.69,1.6608,0,5.7178,0,5.7178,12.835,0.5694c7.0559,0.3103,15.614,0.71833,19.028,0.90156,6.1937,0.3324,6.2159,0.31972,6.2159-6.2872v-6.6193h-19.028zm69.135,13.239c-7.465,0-7.4892,0.0213-9.3239,7.3074-2.2738,9.03-10.452,19.956-19.858,26.572-6.567,4.6188-8.3953,5.0507-23.535,5.5754l-16.418,0.5694v7.4971,7.4734l17.794-0.6643c14.844-0.54242,19.356-1.3656,27.165-4.9823,16.749-7.7568,28.601-23.557,30.653-40.878l0.9965-8.4699zm25.22,0,0,6.6193,0,6.6193,10.819,0,10.842,0-0.4982,14.496-0.4746,14.472-10.344,0.49823-10.344,0.49822,0,5.694,0,5.7178,28.138,0,28.138,0,0-5.7889,0-5.7889-9.9171,0-9.9409,0,0-14.899,0-14.899,9.9409,0,9.9171,0,0-6.6193,0-6.6193-28.138,0zm-94.355,6.6193,0,6.6193,0,6.6193,19.051,0,19.028,0,0-6.6193,0-6.6193-19.028,0zm374.1,3.3215,0,8.2564,0,8.2801,31.46,0,31.46,0,0-8.2801,0-8.2564-31.46,0z" fill="#FFF"/>
			<rect fill-rule="nonzero" height="55.529" width="179.18" y="839.52" x="2394.2" fill="#FFF"/>
			<rect fill-rule="nonzero" height="54.522" width="151.33" y="841.47" x="1478.4" fill="#FFF"/>
			<rect fill-rule="nonzero" height="8.8877" width="7.6757" y="836.78" x="1917.3" fill="#FFF"/>
			<rect fill-rule="nonzero" height="8.8877" width="7.6757" y="836.78" x="1907.2" fill="#FFF"/>
			<rect fill-rule="nonzero" height="8.8877" width="7.6757" y="832.74" x="2200.9" fill="#FFF"/>
			<rect fill-rule="nonzero" height="8.8877" width="7.6757" y="832.74" x="2190.8" fill="#FFF"/>
			<g style="letter-spacing:0px;word-spacing:0px;" font-weight="normal" transform="translate(-547.38801,339.83063)" font-size="40px" font-style="normal" font-family="Sans" line-height="125%" fill="#FFF">
				<path d="m3356.3,106.86c-0.0001,6.8656-0.853,13.006-2.5586,18.422-1.7058,5.4157-4.2431,10.011-7.6118,13.784-3.3689,3.7739-7.5373,6.6524-12.505,8.6353-4.968,1.9829-10.714,2.9744-17.238,2.9744-6.4392,0-12.057-0.8422-16.855-2.5266-4.7974-1.6844-8.7952-4.2537-11.993-7.7078-3.1983-3.4541-5.597-7.8463-7.1961-13.177-1.5991-5.3304-2.3987-11.642-2.3987-18.934,0-6.6949,0.8529-12.718,2.5586-18.07,1.7058-5.3517,4.243-9.9038,7.6118-13.656,3.3688-3.7525,7.5372-6.6309,12.505-8.6353,4.9679-2.0041,10.735-3.0063,17.302-3.0063,6.2685,0.000084,11.801,0.83163,16.599,2.4946,4.7973,1.6632,8.8058,4.2218,12.025,7.6758,3.2195,3.4542,5.6502,7.8144,7.292,13.081,1.6417,5.2665,2.4626,11.482,2.4627,18.646zm-17.654,0.89551c-0.0001-4.3496-0.3412-8.3047-1.0235-11.865-0.6823-3.5607-1.8443-6.6096-3.486-9.147-1.6419-2.5372-3.8273-4.4988-6.5564-5.8848-2.7293-1.3858-6.1407-2.0788-10.234-2.0789-4.1365,0.00007-7.5906,0.77831-10.362,2.3347-2.7719,1.5565-5.0106,3.6354-6.7163,6.2366-1.7058,2.6013-2.9105,5.6396-3.614,9.115-0.7037,3.4755-1.0555,7.1534-1.0555,11.034,0,4.5202,0.3412,8.582,1.0235,12.185,0.6822,3.6034,1.8336,6.6844,3.4541,9.2429,1.6204,2.5586,3.7952,4.5095,6.5244,5.8528,2.7291,1.3433,6.1619,2.0149,10.298,2.0149,4.1364,0.00001,7.5905-0.76756,10.362-2.3027,2.7718-1.5351,5.0106-3.6247,6.7163-6.2686s2.9104-5.7248,3.6141-9.2429c0.7035-3.518,1.0553-7.26,1.0554-11.226z"/>
				<path d="m3427.1,91.569c-0.0001,4.6482-0.725,8.7632-2.1748,12.345-1.4499,3.5821-3.5608,6.5991-6.3325,9.051-2.7719,2.452-6.1727,4.3176-10.202,5.5969-4.0299,1.2793-8.7739,1.919-14.232,1.919h-6.9082v26.417c0,0.42643-0.1386,0.81022-0.4158,1.1514-0.2772,0.34115-0.7356,0.61833-1.3752,0.83155-0.6397,0.21321-1.4926,0.38378-2.5586,0.51171-1.0661,0.12793-2.4307,0.1919-4.0938,0.1919-1.6204,0-2.9743-0.064-4.0617-0.1919-1.0875-0.12793-1.951-0.2985-2.5906-0.51171-0.6397-0.21322-1.0874-0.4904-1.3433-0.83155-0.2558-0.34114-0.3838-0.72493-0.3838-1.1514v-74.455c0-2.0042,0.5224-3.5073,1.5672-4.5095,1.0447-1.002,2.42-1.5031,4.1257-1.5032h19.509c1.9615,0.000083,3.8272,0.07471,5.5969,0.22388,1.7697,0.14933,3.8912,0.46916,6.3645,0.95947,2.4733,0.49048,4.9786,1.3966,7.5159,2.7185,2.5372,1.322,4.7013,2.9958,6.4924,5.0212,1.791,2.0256,3.1555,4.3923,4.0938,7.1001,0.938,2.7079,1.4071,5.7462,1.4072,9.115zm-17.59,1.2153c-0.0001-2.8997-0.5118-5.2877-1.5352-7.1641-1.0235-1.8762-2.2815-3.2621-3.7739-4.1577-1.4926-0.89544-3.0597-1.4605-4.7014-1.6951-1.6418-0.23447-3.3369-0.35174-5.0852-0.35181h-7.1641v28.081h7.5478c2.6865,0.00004,4.936-0.36242,6.7483-1.0874,1.8123-0.72489,3.2942-1.7377,4.4456-3.0383,1.1513-1.3006,2.0255-2.857,2.6225-4.6694,0.597-1.8123,0.8955-3.7845,0.8956-5.9167z"/>
				<path d="m3489.3,142.61c-0.0001,1.2367-0.053,2.2708-0.1599,3.1023-0.1067,0.83154-0.2666,1.5032-0.4798,2.0149-0.2132,0.51172-0.4798,0.88485-0.7995,1.1194-0.3199,0.23454-0.6717,0.35181-1.0554,0.35181h-41.577c-1.4072,0-2.5906-0.41577-3.55-1.2473-0.9595-0.83155-1.4393-2.1855-1.4393-4.0618v-72.152c0-1.8762,0.4798-3.2301,1.4393-4.0618,0.9594-0.83146,2.1428-1.2472,3.55-1.2473h41.321c0.3837,0.000083,0.7249,0.10669,1.0234,0.31982,0.2985,0.2133,0.5543,0.58643,0.7676,1.1194,0.2132,0.53312,0.3731,1.2154,0.4797,2.0469,0.1066,0.83162,0.1599,1.887,0.16,3.1663-0.0001,1.1941-0.053,2.2069-0.16,3.0383-0.1066,0.83162-0.2665,1.5032-0.4797,2.0149-0.2133,0.51179-0.4691,0.88492-0.7676,1.1194-0.2985,0.23461-0.6397,0.35188-1.0234,0.35181h-29.552v20.213h25.01c0.3837,0.000049,0.7355,0.11732,1.0554,0.35181,0.3198,0.23458,0.5863,0.59705,0.7996,1.0874,0.2131,0.49044,0.373,1.1514,0.4797,1.9829,0.1066,0.83159,0.1599,1.8444,0.1599,3.0383,0,1.2367-0.053,2.2601-0.1599,3.0703-0.1067,0.81026-0.2666,1.4606-0.4797,1.9509-0.2133,0.49043-0.4798,0.84224-0.7996,1.0554-0.3199,0.21325-0.6717,0.31986-1.0554,0.31982h-25.01v23.347h29.808c0.3837,0.00002,0.7355,0.11728,1.0554,0.35181,0.3197,0.23455,0.5863,0.60768,0.7995,1.1194,0.2132,0.51173,0.3731,1.1834,0.4798,2.0149,0.1065,0.83155,0.1598,1.8656,0.1599,3.1023z"/>
				<path d="m3565.6,147.03c0,0.46907-0.085,0.86352-0.2558,1.1833-0.1707,0.31983-0.5758,0.58635-1.2154,0.79957-0.6397,0.21321-1.5778,0.36246-2.8144,0.44775-1.2367,0.0853-2.9211,0.12793-5.0532,0.12793-1.7911,0-3.2196-0.0426-4.2857-0.12793-1.0661-0.0853-1.9083-0.2452-2.5266-0.47974-0.6184-0.23453-1.0555-0.53304-1.3113-0.8955-0.2559-0.36247-0.4691-0.79956-0.6396-1.3113l-7.4199-18.486c-0.8956-2.0895-1.7698-3.9445-2.6226-5.565-0.8529-1.6204-1.8017-2.9743-2.8464-4.0618-1.0448-1.0874-2.2495-1.9082-3.614-2.4626-1.3647-0.55433-2.9425-0.83151-4.7334-0.83154h-5.2452v31.535c0,0.42643-0.1386,0.81022-0.4157,1.1514-0.2772,0.34115-0.7356,0.61833-1.3753,0.83155-0.6396,0.21321-1.4925,0.38378-2.5586,0.51171s-2.4306,0.1919-4.0937,0.1919c-1.6205,0-2.9744-0.064-4.0618-0.1919-1.0874-0.12793-1.9509-0.2985-2.5906-0.51171-0.6396-0.21322-1.0874-0.4904-1.3432-0.83155-0.2559-0.34114-0.3838-0.72493-0.3838-1.1514v-75.159c0-1.8762,0.4797-3.2301,1.4392-4.0618,0.9595-0.83146,2.1428-1.2472,3.55-1.2473h21.428c2.1747,0.000083,3.9658,0.04273,5.373,0.12793,1.4072,0.08537,2.6865,0.19198,3.8379,0.31982,3.3261,0.46916,6.3218,1.2794,8.9871,2.4307,2.6651,1.1514,4.9252,2.6546,6.7802,4.5095,1.855,1.8551,3.2728,4.0512,4.2537,6.5884,0.9807,2.5373,1.4711,5.4477,1.4712,8.7312-0.0001,2.7719-0.3519,5.2985-1.0554,7.5798-0.7037,2.2815-1.7378,4.3177-3.1023,6.1086-1.3647,1.7911-3.0491,3.3475-5.0532,4.6694-2.0043,1.322-4.2857,2.3881-6.8443,3.1982,1.2366,0.59705,2.3986,1.322,3.4861,2.1748,1.0874,0.8529,2.1108,1.887,3.0703,3.1023,0.9594,1.2154,1.8656,2.6013,2.7185,4.1577,0.8528,1.5565,1.6844,3.3155,2.4947,5.2771l6.9721,16.311c0.6396,1.6204,1.066,2.8038,1.2793,3.55,0.2132,0.74626,0.3198,1.3326,0.3198,1.759zm-21.684-56.161c-0.0001-2.7291-0.6184-5.0318-1.855-6.9082-1.2367-1.8762-3.2623-3.1982-6.0767-3.9658-0.8529-0.21315-1.823-0.38372-2.9104-0.51172-1.0874-0.12786-2.5906-0.19182-4.5095-0.19189h-7.5479v23.475h8.5713c2.388,0.00005,4.4775-0.28779,6.2686-0.86352,1.791-0.57564,3.2835-1.3859,4.4775-2.4307,1.194-1.0447,2.0895-2.292,2.6866-3.7419,0.5969-1.4498,0.8954-3.0703,0.8955-4.8613z"/>
				<path d="m3645.7,142.93c0.5117,1.5352,0.8315,2.7505,0.9595,3.646,0.1278,0.89551-0.043,1.5671-0.5117,2.0149-0.4692,0.44776-1.3007,0.72494-2.4947,0.83155-1.194,0.1066-2.8358,0.15991-4.9252,0.15991-2.1749,0-3.87-0.032-5.0852-0.096-1.2154-0.064-2.1429-0.19189-2.7825-0.38379-0.6397-0.19189-1.0875-0.45841-1.3433-0.79956-0.2559-0.34114-0.4691-0.7889-0.6396-1.3433l-5.565-16.631h-31.087l-5.2451,16.183c-0.1706,0.597-0.3945,1.0981-0.6716,1.5032-0.2772,0.40511-0.725,0.72494-1.3433,0.95947-0.6183,0.23454-1.4925,0.39445-2.6226,0.47974-1.13,0.0853-2.6119,0.12793-4.4455,0.12793-1.9616,0-3.4968-0.064-4.6055-0.1919-1.1087-0.12793-1.8763-0.43709-2.3027-0.92749-0.4264-0.49039-0.5757-1.1833-0.4478-2.0788,0.128-0.89551,0.4478-2.0895,0.9595-3.582l25.522-73.432c0.2558-0.72485,0.5543-1.3112,0.8955-1.759,0.3411-0.44767,0.8848-0.78882,1.6311-1.0234,0.7462-0.23446,1.7803-0.38371,3.1023-0.44775,1.3219-0.06388,3.0703-0.09586,5.2451-0.09595,2.5159,0.000083,4.5201,0.03207,6.0127,0.09595,1.4925,0.06405,2.6545,0.2133,3.4861,0.44775,0.8315,0.23462,1.4285,0.58643,1.791,1.0554,0.3624,0.46916,0.6716,1.1088,0.9275,1.9189zm-37.995-60.703-0.064,0-11.706,35.181,23.475,0z"/>
				<path d="m3712.3,73.339c0,1.2367-0.053,2.2921-0.1599,3.1663-0.1067,0.87426-0.2666,1.5779-0.4797,2.1108-0.2133,0.53311-0.4798,0.92756-0.7996,1.1834-0.3199,0.25593-0.6717,0.38386-1.0554,0.38379h-20.725v66.715c-0.0001,0.42643-0.1386,0.81022-0.4158,1.1514-0.2772,0.34115-0.7356,0.61833-1.3752,0.83155-0.6397,0.21321-1.5032,0.38378-2.5906,0.51171s-2.4414,0.1919-4.0618,0.1919-2.9744-0.064-4.0617-0.1919c-1.0875-0.12793-1.951-0.2985-2.5906-0.51171-0.6397-0.21322-1.0981-0.4904-1.3753-0.83155-0.2772-0.34114-0.4158-0.72493-0.4157-1.1514v-66.715h-20.725c-0.4265,0.000069-0.7889-0.12786-1.0874-0.38379-0.2985-0.25579-0.5544-0.65024-0.7676-1.1834-0.2132-0.53297-0.3731-1.2366-0.4798-2.1108-0.1066-0.87411-0.1599-1.9295-0.1599-3.1663,0-1.2792,0.053-2.3666,0.1599-3.2622,0.1067-0.89543,0.2666-1.6097,0.4798-2.1428,0.2132-0.53296,0.4691-0.91675,0.7676-1.1514,0.2985-0.23446,0.6609-0.35172,1.0874-0.35181h58.336c0.3837,0.000083,0.7355,0.11735,1.0554,0.35181,0.3198,0.23462,0.5863,0.61841,0.7996,1.1514,0.2131,0.53312,0.373,1.2474,0.4797,2.1428,0.1066,0.89559,0.1599,1.983,0.1599,3.2622z"/>
				<path d="m3739.1,146.9c0,0.42643-0.1386,0.81022-0.4158,1.1514-0.2772,0.34115-0.7356,0.61833-1.3752,0.83155-0.6397,0.21321-1.4926,0.38378-2.5586,0.51171-1.0661,0.12793-2.4307,0.1919-4.0938,0.1919-1.6204,0-2.9743-0.064-4.0617-0.1919-1.0874-0.12793-1.951-0.2985-2.5906-0.51171-0.6397-0.21322-1.0981-0.4904-1.3753-0.83155-0.2771-0.34114-0.4157-0.72493-0.4157-1.1514v-78.165c0-0.42635,0.1386-0.81014,0.4157-1.1514,0.2772-0.34106,0.7463-0.61824,1.4073-0.83154,0.6609-0.21313,1.5245-0.38371,2.5906-0.51172,1.066-0.12785,2.4093-0.19181,4.0297-0.1919,1.6631,0.000083,3.0277,0.06405,4.0938,0.1919,1.066,0.12801,1.9189,0.29858,2.5586,0.51172,0.6396,0.2133,1.098,0.49048,1.3752,0.83154,0.2772,0.34123,0.4158,0.72502,0.4158,1.1514z"/>
				<path d="m3831.7,106.86c-0.0001,6.8656-0.853,13.006-2.5586,18.422-1.7058,5.4157-4.2431,10.011-7.6118,13.784-3.3689,3.7739-7.5373,6.6524-12.505,8.6353-4.968,1.9829-10.714,2.9744-17.239,2.9744-6.4391,0-12.057-0.8422-16.855-2.5266-4.7974-1.6844-8.7952-4.2537-11.993-7.7078-3.1983-3.4541-5.597-7.8463-7.1961-13.177-1.5991-5.3304-2.3986-11.642-2.3986-18.934,0-6.6949,0.8528-12.718,2.5586-18.07,1.7057-5.3517,4.2429-9.9038,7.6118-13.656,3.3688-3.7525,7.5371-6.6309,12.505-8.6353,4.9679-2.0041,10.735-3.0063,17.302-3.0063,6.2685,0.000084,11.801,0.83163,16.599,2.4946,4.7973,1.6632,8.8057,4.2218,12.025,7.6758,3.2194,3.4542,5.6501,7.8144,7.2919,13.081,1.6417,5.2665,2.4626,11.482,2.4627,18.646zm-17.654,0.89551c-0.0001-4.3496-0.3412-8.3047-1.0234-11.865-0.6824-3.5607-1.8444-6.6096-3.4861-9.147-1.6419-2.5372-3.8273-4.4988-6.5564-5.8848-2.7292-1.3858-6.1407-2.0788-10.234-2.0789-4.1364,0.00007-7.5905,0.77831-10.362,2.3347-2.7718,1.5565-5.0106,3.6354-6.7163,6.2366-1.7058,2.6013-2.9104,5.6396-3.614,9.115-0.7037,3.4755-1.0555,7.1534-1.0554,11.034-0.0001,4.5202,0.3411,8.582,1.0234,12.185,0.6823,3.6034,1.8336,6.6844,3.4541,9.2429,1.6204,2.5586,3.7952,4.5095,6.5244,5.8528,2.7291,1.3433,6.1619,2.0149,10.298,2.0149,4.1364,0.00001,7.5905-0.76756,10.362-2.3027,2.7717-1.5351,5.0105-3.6247,6.7163-6.2686,1.7056-2.6439,2.9103-5.7248,3.614-9.2429,0.7035-3.518,1.0553-7.26,1.0554-11.226z"/>
				<path d="m3914,143.32c0,0.9808-0.1706,1.855-0.5117,2.6226-0.3412,0.76758-0.7996,1.4072-1.3752,1.919-0.5758,0.51172-1.2581,0.88485-2.0469,1.1194-0.789,0.23454-1.5885,0.35181-2.3987,0.35181h-7.164c-1.4926,0-2.7826-0.14925-3.8699-0.44775-1.0875-0.29851-2.0896-0.84221-3.0064-1.6311s-1.8017-1.855-2.6545-3.1982c-0.8529-1.3433-1.8124-3.081-2.8784-5.2131l-20.597-38.699c-1.194-2.3027-2.4094-4.7866-3.646-7.4519-1.2367-2.6651-2.3454-5.2557-3.3262-7.7717h-0.1279c0.1706,3.0704,0.2985,6.13,0.3838,9.179,0.085,3.049,0.1279,6.194,0.1279,9.4348v43.304c0,0.42644-0.1173,0.81022-0.3518,1.1514-0.2345,0.34114-0.6397,0.62899-1.2153,0.86352-0.5757,0.23454-1.354,0.41577-2.3347,0.5437-0.9808,0.12793-2.2388,0.1919-3.774,0.1919-1.4925,0-2.7291-0.064-3.7099-0.1919-0.9808-0.12793-1.7484-0.30916-2.3028-0.5437-0.5543-0.23453-0.9381-0.52238-1.1513-0.86352-0.2132-0.34115-0.3199-0.72493-0.3198-1.1514v-74.391c-0.0001-2.0042,0.5863-3.5073,1.759-4.5095,1.1727-1.002,2.6119-1.5031,4.3176-1.5032h9.0191c1.6204,0.000083,2.985,0.13867,4.0937,0.41577,1.1087,0.27726,2.1002,0.73568,2.9744,1.3752,0.8741,0.63973,1.695,1.5246,2.4626,2.6545,0.7676,1.1301,1.5565,2.5267,2.3667,4.1897l16.119,30.255c0.9381,1.8337,1.8655,3.6354,2.7824,5.405,0.9168,1.7697,1.8017,3.5394,2.6546,5.3091,0.8528,1.7697,1.6843,3.5074,2.4946,5.2131,0.8102,1.7058,1.5991,3.4115,2.3667,5.1172h0.064c-0.128-2.985-0.224-6.098-0.2879-9.3389-0.064-3.2408-0.096-6.3325-0.096-9.2749v-38.827c-0.0001-0.42635,0.1278-0.81014,0.3838-1.1514,0.2558-0.34106,0.6822-0.63957,1.2793-0.89551,0.5969-0.25578,1.3858-0.43701,2.3667-0.5437,0.9807-0.10652,2.2387-0.15983,3.7739-0.15991,1.4498,0.000083,2.6651,0.05339,3.646,0.15991,0.9807,0.10669,1.7376,0.28792,2.2707,0.5437,0.533,0.25594,0.9061,0.55444,1.1194,0.89551,0.2132,0.34123,0.3198,0.72502,0.3198,1.1514z"/>
				<path d="m3338,297.39c-0.0001,4.8809-0.9093,9.1636-2.7276,12.848-1.8184,3.6846-4.2827,6.759-7.393,9.2234-3.1104,2.4644-6.7471,4.3186-10.91,5.5628-4.1631,1.2441-8.6133,1.8662-13.351,1.8662-3.2061,0-6.1848-0.26319-8.9362-0.78955-2.7515-0.52637-5.18-1.1604-7.2854-1.9021-2.1055-0.7417-3.8641-1.5193-5.2757-2.3328-1.4116-0.81347-2.4285-1.5312-3.0505-2.1533-0.6221-0.62206-1.0647-1.5193-1.3279-2.6916-0.2632-1.1724-0.3948-2.8591-0.3948-5.0603,0-1.4834,0.048-2.7275,0.1436-3.7324,0.096-1.0049,0.2512-1.8183,0.4665-2.4404,0.2154-0.62205,0.5025-1.0647,0.8614-1.3279,0.3588-0.26316,0.7775-0.39476,1.2561-0.39478,0.6699,0.00002,1.6149,0.3948,2.8352,1.1843,1.2202,0.78957,2.7873,1.6629,4.7014,2.6199,1.914,0.95705,4.1989,1.8303,6.8547,2.6199,2.6558,0.78956,5.7302,1.1843,9.2234,1.1843,2.2968,0.00002,4.3545-0.27513,6.1729-0.82544,1.8183-0.55028,3.3615-1.3279,4.6296-2.3328,1.268-1.0049,2.237-2.249,2.907-3.7324,0.6699-1.4834,1.0048-3.1343,1.0049-4.9526-0.0001-2.1054-0.5743-3.9118-1.7227-5.4192-1.1485-1.5073-2.6438-2.8471-4.4861-4.0195-1.8423-1.1723-3.9358-2.2729-6.2805-3.3018-2.3448-1.0288-4.7613-2.1174-7.2495-3.2659-2.4883-1.1484-4.9048-2.4524-7.2495-3.9119-2.3448-1.4594-4.4383-3.206-6.2805-5.2398-1.8423-2.0336-3.3377-4.4382-4.4861-7.2136-1.1485-2.7753-1.7227-6.101-1.7227-9.977,0-4.4501,0.8255-8.362,2.4763-11.736,1.6509-3.3734,3.876-6.1728,6.6753-8.398,2.7993-2.225,6.1011-3.8878,9.9053-4.9885,3.8042-1.1005,7.8357-1.6508,12.094-1.6509,2.2011,0.00009,4.4023,0.16757,6.6035,0.50244,2.2011,0.33505,4.2587,0.78964,6.1729,1.3638,1.914,0.57431,3.6127,1.2203,5.0962,1.938,1.4833,0.71786,2.4642,1.316,2.9428,1.7944,0.4785,0.47861,0.8015,0.88534,0.969,1.2202,0.1674,0.33504,0.311,0.77767,0.4307,1.3279,0.1195,0.55038,0.2033,1.2442,0.2512,2.0815,0.048,0.83749,0.072,1.8783,0.072,3.1223-0.0001,1.3878-0.036,2.5601-0.1077,3.5171-0.072,0.95711-0.1915,1.7467-0.3589,2.3687-0.1675,0.62214-0.4068,1.0767-0.7177,1.3638-0.3111,0.28718-0.7298,0.43073-1.2562,0.43066-0.5264,0.00007-1.3638-0.33489-2.5122-1.0049-1.1485-0.66985-2.5601-1.3996-4.2348-2.1892-1.6749-0.78948-3.6129-1.5072-5.814-2.1533-2.2012-0.64592-4.6177-0.96892-7.2495-0.969-2.0577,0.00008-3.8521,0.2513-5.3833,0.75367-1.5313,0.50252-2.8113,1.1964-3.8401,2.0815-1.0288,0.88533-1.7944,1.95-2.2969,3.1941-0.5024,1.2442-0.7537,2.5601-0.7536,3.9478-0.0001,2.0577,0.5622,3.8402,1.6867,5.3474,1.1245,1.5074,2.6318,2.8472,4.522,4.0195,1.8901,1.1724,4.0315,2.273,6.4241,3.3018,2.3925,1.0289,4.833,2.1175,7.3213,3.2659,2.4882,1.1485,4.9286,2.4524,7.3213,3.9119,2.3925,1.4595,4.5219,3.2061,6.3881,5.2398s3.3735,4.4263,4.522,7.1777c1.1484,2.7515,1.7226,5.9934,1.7227,9.7258z"/>
				<path d="m3424.9,322.66c0,0.47851-0.1556,0.90918-0.4665,1.292-0.3111,0.38281-0.8255,0.69385-1.5432,0.9331-0.7179,0.23926-1.6749,0.43067-2.8711,0.57422-1.1964,0.14356-2.7037,0.21533-4.522,0.21533-1.8663,0-3.4095-0.0718-4.6296-0.21533-1.2203-0.14355-2.1773-0.33496-2.8711-0.57422-0.6939-0.23925-1.1964-0.55029-1.5073-0.9331-0.3111-0.38281-0.4667-0.81348-0.4666-1.292v-37.54h-34.74v37.54c-0.0001,0.47851-0.1436,0.90918-0.4307,1.292-0.2871,0.38281-0.7896,0.69385-1.5073,0.9331-0.7178,0.23926-1.6749,0.43067-2.8711,0.57422-1.1963,0.14356-2.7276,0.21533-4.5938,0.21533-1.8183,0-3.3376-0.0718-4.5578-0.21533-1.2203-0.14355-2.1892-0.33496-2.907-0.57422-0.7178-0.23925-1.2322-0.55029-1.5432-0.9331-0.3111-0.38281-0.4666-0.81348-0.4666-1.292v-87.712c0-0.47842,0.1555-0.90909,0.4666-1.292,0.311-0.38272,0.8254-0.69376,1.5432-0.93311,0.7178-0.23916,1.6867-0.43057,2.907-0.57421,1.2202-0.14347,2.7395-0.21524,4.5578-0.21534,1.8662,0.0001,3.3975,0.0719,4.5938,0.21534,1.1962,0.14364,2.1533,0.33505,2.8711,0.57421,0.7177,0.23935,1.2202,0.55039,1.5073,0.93311,0.2871,0.3829,0.4306,0.81357,0.4307,1.292v34.094h34.74v-34.094c-0.0001-0.47842,0.1555-0.90909,0.4666-1.292,0.3109-0.38272,0.8134-0.69376,1.5073-0.93311,0.6938-0.23916,1.6508-0.43057,2.8711-0.57421,1.2201-0.14347,2.7633-0.21524,4.6296-0.21534,1.8183,0.0001,3.3256,0.0719,4.522,0.21534,1.1962,0.14364,2.1532,0.33505,2.8711,0.57421,0.7177,0.23935,1.2321,0.55039,1.5432,0.93311,0.3109,0.3829,0.4665,0.81357,0.4665,1.292z"/>
				<path d="m3521.3,318.21c0.5742,1.7227,0.9331,3.0864,1.0767,4.0913,0.1435,1.0049-0.048,1.7586-0.5742,2.261-0.5265,0.50244-1.4596,0.81347-2.7993,0.9331-1.34,0.11963-3.1822,0.17944-5.5269,0.17944-2.4405,0-4.3426-0.0359-5.7063-0.10766-1.3638-0.0718-2.4046-0.21533-3.1223-0.43067-0.7178-0.21533-1.2203-0.5144-1.5073-0.89721-0.2872-0.38281-0.5265-0.88525-0.7178-1.5073l-6.2446-18.662h-34.884l-5.8858,18.16c-0.1914,0.66993-0.4426,1.2322-0.7536,1.6868-0.3111,0.45459-0.8135,0.81348-1.5074,1.0767-0.6938,0.26318-1.6748,0.44263-2.9428,0.53833-1.2681,0.0957-2.9309,0.14355-4.9885,0.14355-2.2012,0-3.9239-0.0718-5.168-0.21533-1.2442-0.14355-2.1055-0.49048-2.584-1.0408-0.4785-0.55029-0.646-1.3279-0.5024-2.3328,0.1435-1.0049,0.5024-2.3447,1.0766-4.0195l28.639-82.4c0.2871-0.81339,0.622-1.4714,1.0049-1.9739,0.3827-0.50235,0.9928-0.88516,1.8303-1.1484,0.8374-0.26309,1.9977-0.43057,3.4812-0.50244,1.4833-0.0717,3.4453-0.10757,5.8857-0.10767,2.8232,0.0001,5.0722,0.036,6.7471,0.10767,1.6747,0.0719,2.9787,0.23935,3.9119,0.50244,0.933,0.26328,1.6029,0.65805,2.0097,1.1843,0.4067,0.52645,0.7536,1.2442,1.0408,2.1533zm-42.636-68.117-0.072,0-13.135,39.478,26.342,0z"/>
				<path d="m3611.3,277.44c-0.0001,8.5176-1.1126,15.803-3.3376,21.856-2.2252,6.0532-5.4193,10.994-9.5823,14.822-4.1632,3.8281-9.2235,6.6394-15.181,8.4338-5.9576,1.7944-13.052,2.6916-21.282,2.6916h-22.179c-1.5791,0-2.907-0.46655-3.9837-1.3997-1.0766-0.9331-1.615-2.4524-1.6149-4.5579v-80.965c-0.0001-2.1054,0.5383-3.6247,1.6149-4.5579,1.0767-0.93302,2.4046-1.3996,3.9837-1.3997h23.83c8.2782,0.00009,15.3,0.96908,21.067,2.907,5.7661,1.9381,10.623,4.8092,14.571,8.6133,3.9477,3.8043,6.9504,8.5057,9.0081,14.104,2.0575,5.5987,3.0863,12.083,3.0864,19.452zm-19.523,0.646c-0.0001-4.4023-0.5145-8.4936-1.5432-12.274-1.0289-3.7802-2.6798-7.058-4.9527-9.8335-2.273-2.7753-5.1919-4.9406-8.7568-6.4958-3.565-1.5551-8.2425-2.3327-14.032-2.3328h-9.5464v63.164h9.8335c5.1679,0.00002,9.5224-0.6699,13.064-2.0098,3.541-1.3398,6.4958-3.3616,8.8645-6.0652,2.3686-2.7036,4.1391-6.0652,5.3115-10.085,1.1723-4.0195,1.7585-8.7089,1.7586-14.068z"/>
				<path d="m3710.5,277.72c-0.0001,7.7041-0.9571,14.595-2.8711,20.672-1.9141,6.0772-4.7613,11.233-8.5415,15.468-3.7803,4.2349-8.4578,7.4648-14.032,9.6899-5.5747,2.2251-12.023,3.3376-19.344,3.3376-7.2257,0-13.53-0.94507-18.913-2.8352-5.3833-1.8901-9.8694-4.7732-13.458-8.6492-3.5889-3.876-6.2806-8.8047-8.075-14.786-1.7944-5.9814-2.6916-13.063-2.6916-21.246,0-7.5126,0.957-14.272,2.8711-20.277,1.914-6.0053,4.7612-11.113,8.5415-15.324,3.7802-4.2108,8.4577-7.4408,14.032-9.6899,5.5747-2.2489,12.047-3.3734,19.416-3.3735,7.0341,0.00009,13.243,0.9332,18.626,2.7993,5.3833,1.8663,9.8813,4.7374,13.494,8.6133,3.6127,3.876,6.3402,8.7689,8.1826,14.678,1.8422,5.9097,2.7633,12.884,2.7634,20.923zm-19.81,1.0049c-0.0001-4.8808-0.3829-9.319-1.1485-13.315-0.7657-3.9955-2.0696-7.4169-3.9118-10.264-1.8424-2.8471-4.2948-5.0483-7.3572-6.6035-3.0626-1.5551-6.8907-2.3327-11.484-2.3328-4.6416,0.00008-8.5176,0.87337-11.628,2.6199-3.1104,1.7466-5.6226,4.0794-7.5366,6.9983-1.9141,2.919-3.2659,6.3284-4.0555,10.228-0.7895,3.9-1.1843,8.0272-1.1843,12.382,0,5.0723,0.3828,9.6302,1.1485,13.674,0.7656,4.0435,2.0575,7.5008,3.8759,10.372,1.8184,2.8711,4.2588,5.0603,7.3213,6.5676s6.9145,2.261,11.556,2.261c4.6415,0.00001,8.5175-0.86132,11.628-2.584,3.1103-1.7226,5.6225-4.0674,7.5366-7.0342,1.914-2.9668,3.2658-6.424,4.0554-10.372,0.7895-3.9477,1.1843-8.1467,1.1844-12.597z"/>
				<path d="m3824,320.43c-0.2872,1.1484-0.682,2.0696-1.1844,2.7634-0.5025,0.69384-1.2562,1.2202-2.2609,1.5791-1.005,0.35888-2.297,0.59814-3.876,0.71777-1.5792,0.11963-3.589,0.17944-6.0293,0.17944-2.7276,0-4.9169-0.0598-6.5676-0.17944-1.651-0.11963-2.955-0.35889-3.9119-0.71777-0.9571-0.35889-1.651-0.88526-2.0815-1.5791-0.4308-0.69385-0.7658-1.615-1.0049-2.7634l-14.858-58.857h-0.1436l-14.068,58.857c-0.2393,1.1006-0.5742,1.9978-1.0048,2.6916-0.4308,0.69385-1.1126,1.2322-2.0457,1.615-0.9331,0.38281-2.2012,0.63403-3.8042,0.75366-1.6031,0.11963-3.7205,0.17944-6.3523,0.17944-2.7754,0-4.9885-0.0598-6.6394-0.17944-1.6509-0.11963-2.9549-0.35889-3.9119-0.71777-0.957-0.35889-1.6509-0.88526-2.0815-1.5791-0.4307-0.69385-0.7896-1.615-1.0767-2.7634l-21.102-81.037c-0.4307-1.7226-0.6699-3.0744-0.7178-4.0554-0.048-0.98087,0.2273-1.7345,0.8255-2.261,0.5981-0.52627,1.5791-0.84927,2.9428-0.96899,1.3638-0.11954,3.2659-0.17935,5.7063-0.17945,2.249,0.0001,4.0315,0.036,5.3474,0.10767,1.3159,0.0719,2.3089,0.23935,2.9788,0.50244,0.6699,0.26328,1.1245,0.64609,1.3638,1.1484,0.2392,0.50253,0.4306,1.2083,0.5742,2.1174l16.294,71.131h0.072l16.94-70.629c0.1913-0.90909,0.4426-1.6508,0.7536-2.2251,0.311-0.57412,0.8374-1.0168,1.5791-1.3279,0.7417-0.31094,1.7585-0.52627,3.0506-0.64599,1.2919-0.11954,3.0146-0.17935,5.168-0.17945,2.2968,0.0001,4.1271,0.0479,5.4909,0.14356,1.3637,0.0958,2.4165,0.29916,3.1582,0.61011,0.7416,0.31112,1.28,0.75375,1.615,1.3279,0.3349,0.57431,0.5981,1.3399,0.7896,2.2969l17.514,70.629h0.1436l16.293-70.916c0.1435-0.76553,0.3349-1.4235,0.5743-1.9739,0.2391-0.5502,0.6937-0.98086,1.3637-1.292,0.6698-0.31094,1.6269-0.52627,2.8711-0.64599,1.2441-0.11954,2.9906-0.17935,5.2398-0.17945,2.1053,0.0001,3.7442,0.0599,4.9167,0.17945,1.1723,0.11972,2.0216,0.44272,2.5481,0.96899,0.5263,0.52646,0.7536,1.304,0.6819,2.3328-0.072,1.0289-0.3231,2.4286-0.7537,4.199z"/>
				<path d="m3897,290,0,32.659c0,0.47851-0.1555,0.90918-0.4665,1.292-0.3111,0.38281-0.8255,0.69385-1.5432,0.9331-0.7179,0.23926-1.6868,0.43067-2.907,0.57422-1.2203,0.14356-2.7396,0.21533-4.5579,0.21533-1.8662,0-3.3975-0.0718-4.5937-0.21533-1.1963-0.14355-2.1653-0.33496-2.907-0.57422-0.7417-0.23925-1.2561-0.55029-1.5432-0.9331-0.2872-0.38281-0.4307-0.81348-0.4307-1.292v-32.659l-25.409-50.603c-0.9091-1.7704-1.4953-3.1462-1.7585-4.1272-0.2632-0.98087-0.1196-1.7226,0.4307-2.2251,0.5502-0.50235,1.5671-0.81338,3.0505-0.9331,1.4834-0.11954,3.541-0.17935,6.1728-0.17945,2.2012,0.0001,3.9597,0.0479,5.2757,0.14356,1.3159,0.0958,2.3566,0.27524,3.1223,0.53833,0.7656,0.26327,1.3278,0.6102,1.6868,1.0408,0.3588,0.43075,0.7057,0.98105,1.0407,1.6509l10.336,22.825c1.0048,2.2012,1.9977,4.522,2.9787,6.9624,0.9809,2.4405,1.9739,5.0005,2.9788,7.6802h0.1435c0.9092-2.5839,1.8423-5.0961,2.7994-7.5366,0.9569-2.4404,1.8901-4.7612,2.7993-6.9624l10.192-22.682c0.2392-0.76554,0.5382-1.3756,0.8972-1.8303,0.3588-0.4545,0.8971-0.82535,1.615-1.1126,0.7177-0.28702,1.6986-0.47843,2.9428-0.57422,1.2441-0.0956,2.895-0.14346,4.9527-0.14356,2.7274,0.0001,4.8449,0.0599,6.3523,0.17945,1.5072,0.11972,2.536,0.43075,3.0864,0.9331,0.5502,0.50254,0.6818,1.2562,0.3948,2.261-0.2872,1.005-0.8614,2.3687-1.7227,4.0913z"/>
				<path d="m3336.7,479.4c-0.0001,4.7813-0.8907,8.9766-2.6719,12.586-1.7813,3.6094-4.1953,6.6211-7.2422,9.0352s-6.6094,4.2305-10.688,5.4492c-4.0781,1.2188-8.4375,1.8281-13.078,1.8281-3.1406,0-6.0586-0.25782-8.7539-0.77344-2.6953-0.51563-5.0742-1.1367-7.1367-1.8633-2.0625-0.72656-3.7852-1.4883-5.168-2.2852-1.3828-0.79687-2.3789-1.5-2.9883-2.1094-0.6093-0.60937-1.0429-1.4883-1.3007-2.6367-0.2579-1.1484-0.3868-2.8008-0.3868-4.957,0-1.4531,0.047-2.6719,0.1407-3.6562,0.094-0.98436,0.2461-1.7812,0.457-2.3906,0.2109-0.60935,0.4922-1.043,0.8437-1.3008,0.3516-0.25779,0.7618-0.3867,1.2305-0.38672,0.6563,0.00002,1.582,0.38674,2.7774,1.1602,1.1953,0.77346,2.7304,1.6289,4.6054,2.5664,1.875,0.93752,4.1133,1.793,6.7149,2.5664,2.6015,0.77345,5.6132,1.1602,9.0351,1.1602,2.25,0.00001,4.2656-0.26952,6.0469-0.8086,1.7812-0.53904,3.2929-1.3008,4.5352-2.2852,1.2421-0.98436,2.1913-2.2031,2.8476-3.6562,0.6562-1.4531,0.9843-3.0703,0.9844-4.8516-0.0001-2.0625-0.5626-3.832-1.6875-5.3086-1.1251-1.4765-2.5899-2.789-4.3945-3.9375-1.8048-1.1484-3.8555-2.2265-6.1524-3.2344-2.2969-1.0078-4.6641-2.0742-7.1015-3.1992-2.4376-1.125-4.8048-2.4023-7.1016-3.832-2.2969-1.4296-4.3477-3.1406-6.1524-5.1328-1.8047-1.9921-3.2695-4.3476-4.3945-7.0664-1.125-2.7187-1.6875-5.9765-1.6875-9.7734,0-4.3593,0.8086-8.1913,2.4258-11.496,1.6172-3.3046,3.7969-6.0468,6.5391-8.2266,2.7421-2.1796,5.9765-3.8085,9.7031-4.8867,3.7265-1.078,7.6757-1.6171,11.848-1.6172,2.1562,0.00009,4.3125,0.16415,6.4688,0.49218,2.1562,0.32822,4.1718,0.77353,6.0469,1.3359,1.8749,0.56259,3.539,1.1954,4.9922,1.8984,1.453,0.70321,2.414,1.2892,2.8828,1.7578,0.4687,0.46884,0.7851,0.86728,0.9492,1.1953,0.164,0.32822,0.3046,0.76181,0.4219,1.3008,0.1171,0.53914,0.1991,1.2188,0.2461,2.0391,0.047,0.82039,0.07,1.8399,0.07,3.0586-0.0001,1.3595-0.035,2.5079-0.1055,3.4453-0.07,0.93758-0.1876,1.711-0.3516,2.3203-0.1641,0.60945-0.3985,1.0548-0.7031,1.3359-0.3047,0.28133-0.7149,0.42195-1.2305,0.42188-0.5156,0.00007-1.336-0.32805-2.4609-0.98438-1.1251-0.65617-2.5079-1.371-4.1484-2.1445-1.6407-0.77336-3.5391-1.4765-5.6953-2.1094-2.1563-0.63274-4.5235-0.94914-7.1016-0.94922-2.0157,0.00008-3.7735,0.24617-5.2734,0.73828-1.5001,0.49227-2.754,1.172-3.7618,2.0391-1.0078,0.86727-1.7578,1.9102-2.25,3.1289-0.4922,1.2188-0.7383,2.5079-0.7382,3.8672-0.0001,2.0157,0.5507,3.7618,1.6523,5.2383,1.1015,1.4766,2.5781,2.7891,4.4297,3.9375,1.8515,1.1485,3.9492,2.2266,6.293,3.2344,2.3437,1.0079,4.7343,2.0743,7.1718,3.1992,2.4375,1.125,4.8281,2.4024,7.1719,3.832,2.3437,1.4297,4.4296,3.1407,6.2578,5.1328,1.8281,1.9922,3.3046,4.336,4.4297,7.0312,1.1249,2.6953,1.6874,5.8711,1.6875,9.5273z"/>
				<path d="m3369.4,504.15c0,0.46875-0.1524,0.89063-0.457,1.2656-0.3047,0.37501-0.8086,0.67969-1.5117,0.91407-0.7032,0.23437-1.6407,0.42187-2.8125,0.5625-1.1719,0.14062-2.6719,0.21093-4.5,0.21093-1.7813,0-3.2696-0.0703-4.4649-0.21093s-2.1445-0.32813-2.8476-0.5625c-0.7032-0.23438-1.2071-0.53906-1.5118-0.91407-0.3047-0.37499-0.457-0.79687-0.457-1.2656v-85.922c0-0.46866,0.1523-0.89053,0.457-1.2656,0.3047-0.37491,0.8203-0.6796,1.5469-0.91406,0.7266-0.23429,1.6758-0.42179,2.8477-0.5625,1.1718-0.14054,2.6484-0.21085,4.4297-0.21094,1.8281,0.00009,3.3281,0.0704,4.5,0.21094,1.1718,0.14071,2.1093,0.32821,2.8125,0.5625,0.7031,0.23446,1.207,0.53915,1.5117,0.91406,0.3046,0.37509,0.457,0.79696,0.457,1.2656z"/>
				<path d="m3449.9,423.3c0,1.3595-0.059,2.5196-0.1758,3.4805-0.1172,0.96102-0.293,1.7345-0.5273,2.3203-0.2344,0.58601-0.5274,1.0196-0.8789,1.3008-0.3516,0.28132-0.7384,0.42195-1.1602,0.42187h-22.781v73.336c-0.0001,0.46875-0.1524,0.89063-0.457,1.2656-0.3048,0.37501-0.8087,0.67969-1.5118,0.91407-0.7031,0.23437-1.6523,0.42187-2.8476,0.5625-1.1954,0.14062-2.6836,0.21093-4.4649,0.21093-1.7812,0-3.2695-0.0703-4.4648-0.21093s-2.1446-0.32813-2.8477-0.5625c-0.7031-0.23438-1.207-0.53906-1.5117-0.91407-0.3047-0.37499-0.457-0.79687-0.457-1.2656v-73.336h-22.781c-0.4687,0.00008-0.8672-0.14055-1.1953-0.42187-0.3281-0.28118-0.6094-0.71477-0.8437-1.3008-0.2344-0.58586-0.4102-1.3593-0.5274-2.3203-0.1172-0.96085-0.1758-2.121-0.1757-3.4805-0.0001-1.4062,0.059-2.6015,0.1757-3.5859,0.1172-0.98429,0.293-1.7694,0.5274-2.3555,0.2343-0.58585,0.5156-1.0077,0.8437-1.2656,0.3281-0.25772,0.7266-0.38662,1.1953-0.38672h64.125c0.4218,0.0001,0.8086,0.129,1.1602,0.38672,0.3515,0.25791,0.6445,0.67978,0.8789,1.2656,0.2343,0.58602,0.4101,1.3712,0.5273,2.3555,0.1172,0.98446,0.1758,2.1798,0.1758,3.5859z"/>
				<path d="m3535,472.8c-0.0001,5.5782-0.8204,10.57-2.461,14.977-1.6407,4.4063-4.0547,8.1328-7.2422,11.18-3.1875,3.0469-7.125,5.3672-11.812,6.9609-4.6875,1.5938-10.078,2.3906-16.172,2.3906-5.7188,0-10.852-0.71485-15.398-2.1445-4.5469-1.4297-8.3906-3.5977-11.531-6.5039-3.1407-2.9062-5.543-6.5273-7.2071-10.863-1.664-4.3359-2.4961-9.4101-2.496-15.223v-55.336c-0.0001-0.46866,0.1406-0.89053,0.4218-1.2656,0.2813-0.37491,0.7852-0.6796,1.5117-0.91406,0.7266-0.23429,1.6758-0.42179,2.8477-0.5625,1.1719-0.14054,2.6719-0.21085,4.5-0.21094,1.7812,0.00009,3.2578,0.0704,4.4297,0.21094,1.1718,0.14071,2.1093,0.32821,2.8125,0.5625,0.7031,0.23446,1.207,0.53915,1.5117,0.91406,0.3047,0.37509,0.457,0.79696,0.457,1.2656v53.719c0,3.6094,0.4453,6.7383,1.336,9.3867,0.8906,2.6485,2.1679,4.8399,3.832,6.5742,1.664,1.7344,3.6562,3.0352,5.9766,3.9024,2.3202,0.8672,4.9101,1.3008,7.7695,1.3008,2.9062,0.00001,5.5078-0.4453,7.8047-1.3359,2.2968-0.89061,4.2421-2.1914,5.8359-3.9023,1.5937-1.7109,2.8242-3.8203,3.6914-6.3281s1.3007-5.3554,1.3008-8.543v-54.773c-0.0001-0.46866,0.1406-0.89053,0.4219-1.2656,0.2812-0.37491,0.7734-0.6796,1.4766-0.91406,0.703-0.23429,1.6522-0.42179,2.8476-0.5625,1.1952-0.14054,2.6835-0.21085,4.4649-0.21094,1.7811,0.00009,3.246,0.0704,4.3945,0.21094,1.1483,0.14071,2.0741,0.32821,2.7773,0.5625,0.7031,0.23446,1.1953,0.53915,1.4766,0.91406,0.2812,0.37509,0.4218,0.79696,0.4219,1.2656z"/>
				<path d="m3629.3,499.8c0.5624,1.6875,0.914,3.0234,1.0547,4.0078,0.1405,0.98437-0.047,1.7226-0.5625,2.2148-0.5157,0.49219-1.4298,0.79688-2.7422,0.91406-1.3126,0.11719-3.1173,0.17578-5.414,0.17578-2.3907,0-4.254-0.0351-5.5899-0.10546-1.336-0.0703-2.3555-0.21094-3.0586-0.42188-0.7032-0.21094-1.1954-0.5039-1.4765-0.87891-0.2814-0.37499-0.5157-0.86718-0.7032-1.4766l-6.1172-18.281h-34.172l-5.7657,17.789c-0.1875,0.65626-0.4336,1.207-0.7382,1.6524-0.3048,0.44531-0.7969,0.79687-1.4766,1.0547-0.6797,0.25781-1.6406,0.43359-2.8828,0.52734-1.2422,0.0937-2.8711,0.14062-4.8867,0.14062-2.1563,0-3.8438-0.0703-5.0625-0.21093-1.2188-0.14063-2.0625-0.48047-2.5313-1.0195-0.4687-0.53906-0.6328-1.3008-0.4922-2.2852,0.1406-0.98437,0.4922-2.2969,1.0547-3.9375l28.055-80.719c0.2812-0.79679,0.6093-1.4413,0.9844-1.9336,0.3749-0.4921,0.9726-0.8671,1.7929-1.125,0.8203-0.25773,1.957-0.42179,3.4102-0.49219,1.4531-0.0702,3.375-0.10538,5.7656-0.10547,2.7656,0.00009,4.9687,0.0353,6.6094,0.10547,1.6406,0.0704,2.9179,0.23446,3.832,0.49219,0.914,0.2579,1.5703,0.64462,1.9688,1.1602,0.3984,0.51572,0.7382,1.2188,1.0195,2.1094zm-41.766-66.727-0.07,0-12.867,38.672,25.805,0z"/>
				<path d="m3702.5,423.3c0,1.3595-0.059,2.5196-0.1758,3.4805-0.1172,0.96102-0.293,1.7345-0.5273,2.3203-0.2344,0.58601-0.5274,1.0196-0.8789,1.3008-0.3516,0.28132-0.7384,0.42195-1.1602,0.42187h-22.781v73.336c-0.0001,0.46875-0.1524,0.89063-0.457,1.2656-0.3048,0.37501-0.8087,0.67969-1.5118,0.91407-0.7031,0.23437-1.6523,0.42187-2.8476,0.5625-1.1954,0.14062-2.6836,0.21093-4.4649,0.21093-1.7812,0-3.2695-0.0703-4.4648-0.21093s-2.1446-0.32813-2.8477-0.5625c-0.7031-0.23438-1.207-0.53906-1.5117-0.91407-0.3047-0.37499-0.457-0.79687-0.457-1.2656v-73.336h-22.781c-0.4687,0.00008-0.8672-0.14055-1.1953-0.42187-0.3281-0.28118-0.6094-0.71477-0.8437-1.3008-0.2344-0.58586-0.4102-1.3593-0.5274-2.3203-0.1172-0.96085-0.1758-2.121-0.1757-3.4805-0.0001-1.4062,0.059-2.6015,0.1757-3.5859,0.1172-0.98429,0.293-1.7694,0.5274-2.3555,0.2343-0.58585,0.5156-1.0077,0.8437-1.2656,0.3281-0.25772,0.7266-0.38662,1.1953-0.38672h64.125c0.4218,0.0001,0.8086,0.129,1.1602,0.38672,0.3515,0.25791,0.6445,0.67978,0.8789,1.2656,0.2343,0.58602,0.4101,1.3712,0.5273,2.3555,0.1172,0.98446,0.1758,2.1798,0.1758,3.5859z"/>
				<path d="m3731.9,504.15c-0.0001,0.46875-0.1524,0.89063-0.4571,1.2656-0.3047,0.37501-0.8086,0.67969-1.5117,0.91407-0.7031,0.23437-1.6406,0.42187-2.8125,0.5625-1.1719,0.14062-2.6719,0.21093-4.5,0.21093-1.7813,0-3.2695-0.0703-4.4648-0.21093-1.1954-0.14063-2.1446-0.32813-2.8477-0.5625-0.7031-0.23438-1.207-0.53906-1.5117-0.91407-0.3047-0.37499-0.457-0.79687-0.457-1.2656v-85.922c0-0.46866,0.1523-0.89053,0.457-1.2656,0.3047-0.37491,0.8203-0.6796,1.5469-0.91406,0.7265-0.23429,1.6757-0.42179,2.8476-0.5625,1.1719-0.14054,2.6484-0.21085,4.4297-0.21094,1.8281,0.00009,3.3281,0.0704,4.5,0.21094,1.1719,0.14071,2.1094,0.32821,2.8125,0.5625,0.7031,0.23446,1.207,0.53915,1.5117,0.91406,0.3047,0.37509,0.457,0.79696,0.4571,1.2656z"/>
				<path d="m3833.7,460.14c-0.0001,7.5469-0.9376,14.297-2.8125,20.25-1.8751,5.9532-4.6642,11.004-8.3672,15.152-3.7032,4.1484-8.2853,7.3125-13.746,9.4922-5.461,2.1797-11.777,3.2695-18.949,3.2695-7.0782,0-13.254-0.92578-18.527-2.7774-5.2734-1.8516-9.668-4.6758-13.184-8.4726-3.5156-3.7969-6.1523-8.625-7.9101-14.484-1.7579-5.8593-2.6368-12.797-2.6367-20.812-0.0001-7.3593,0.9374-13.98,2.8125-19.863,1.8749-5.8827,4.664-10.887,8.3671-15.012,3.7031-4.1249,8.2852-7.289,13.746-9.4922,5.4609-2.203,11.801-3.3046,19.02-3.3047,6.8905,0.00009,12.973,0.91415,18.246,2.7422,5.2733,1.8282,9.6796,4.6407,13.219,8.4375,3.539,3.797,6.2109,8.5899,8.0156,14.379,1.8046,5.7891,2.707,12.621,2.7071,20.496zm-19.406,0.98438c-0.0001-4.7812-0.3751-9.1288-1.125-13.043-0.7501-3.914-2.0274-7.2656-3.832-10.055-1.8048-2.789-4.2071-4.9452-7.207-6.4688-3.0001-1.5234-6.7501-2.2851-11.25-2.2852-4.547,0.00007-8.3438,0.85554-11.391,2.5664-3.0469,1.711-5.5078,3.9962-7.3828,6.8555-1.875,2.8594-3.1992,6.1993-3.9726,10.02-0.7735,3.8204-1.1602,7.8633-1.1602,12.129,0,4.9688,0.375,9.4336,1.125,13.395,0.75,3.961,2.0156,7.3477,3.7969,10.16,1.7812,2.8125,4.1718,4.957,7.1719,6.4336,2.9999,1.4766,6.7733,2.2149,11.32,2.2148,4.5468,0.00002,8.3437-0.84373,11.391-2.5312,3.0468-1.6875,5.5077-3.9844,7.3828-6.8906,1.8749-2.9062,3.1991-6.2929,3.9727-10.16,0.7733-3.8672,1.16-7.9804,1.1601-12.34z"/>
				<path d="m3924.2,500.22c-0.0001,1.0781-0.1876,2.0391-0.5625,2.8828-0.3751,0.84376-0.879,1.5469-1.5118,2.1094-0.6329,0.5625-1.3829,0.97265-2.25,1.2305-0.8672,0.25781-1.7461,0.38671-2.6367,0.38671h-7.875c-1.6407,0-3.0586-0.16406-4.2539-0.49218-1.1954-0.32813-2.2969-0.92578-3.3047-1.793-1.0079-0.86719-1.9805-2.0391-2.9179-3.5156-0.9376-1.4766-1.9923-3.3867-3.1641-5.7305l-22.641-42.539c-1.3126-2.5312-2.6485-5.2617-4.0078-8.1914-1.3595-2.9296-2.5782-5.7773-3.6563-8.543h-0.1406c0.1874,3.3751,0.3281,6.7383,0.4219,10.09,0.094,3.3516,0.1405,6.8086,0.1406,10.371v47.602c-0.0001,0.46875-0.129,0.89062-0.3867,1.2656-0.2579,0.375-0.7032,0.69141-1.336,0.94922s-1.4883,0.45703-2.5664,0.59766c-1.0781,0.14062-2.4609,0.21093-4.1484,0.21093-1.6407,0-3-0.0703-4.0781-0.21093-1.0782-0.14063-1.9219-0.33985-2.5313-0.59766s-1.0313-0.57422-1.2656-0.94922c-0.2344-0.375-0.3516-0.79687-0.3516-1.2656v-81.773c0-2.203,0.6445-3.8554,1.9336-4.957,1.2891-1.1015,2.8711-1.6522,4.7461-1.6524h9.9141c1.7812,0.0001,3.2812,0.15244,4.5,0.45704,1.2187,0.30477,2.3085,0.80868,3.2695,1.5117,0.9609,0.70322,1.8632,1.6759,2.707,2.918,0.8437,1.2423,1.7109,2.7774,2.6016,4.6055l17.719,33.258c1.0312,2.0157,2.0508,3.9961,3.0586,5.9414,1.0078,1.9454,1.9804,3.8907,2.918,5.8359,0.9374,1.9454,1.8515,3.8555,2.7422,5.7305,0.8905,1.875,1.7577,3.75,2.6016,5.625h0.07c-0.1407-3.2812-0.2462-6.7031-0.3164-10.266-0.07-3.5625-0.1056-6.9609-0.1055-10.195v-42.68c-0.0001-0.46866,0.1405-0.89053,0.4219-1.2656,0.2811-0.37491,0.7499-0.70304,1.4062-0.98438,0.6562-0.28116,1.5234-0.48038,2.6016-0.59765,1.078-0.1171,2.4608-0.17569,4.1484-0.17579,1.5937,0.0001,2.9296,0.0587,4.0078,0.17579,1.0781,0.11727,1.9101,0.31649,2.4961,0.59765,0.5859,0.28134,0.996,0.60947,1.2305,0.98438,0.2343,0.37509,0.3515,0.79696,0.3516,1.2656z"/>
			</g>
		</g>
	</g>
</svg>
