<?xml version="1.0" encoding="UTF-8" standalone="no"?>
<!-- Created with Inkscape (http://www.inkscape.org/) -->

<svg
   xmlns:dc="http://purl.org/dc/elements/1.1/"
   xmlns:cc="http://creativecommons.org/ns#"
   xmlns:rdf="http://www.w3.org/1999/02/22-rdf-syntax-ns#"
   xmlns:svg="http://www.w3.org/2000/svg"
   xmlns="http://www.w3.org/2000/svg"
   xmlns:xlink="http://www.w3.org/1999/xlink"
   xmlns:sodipodi="http://sodipodi.sourceforge.net/DTD/sodipodi-0.dtd"
   xmlns:inkscape="http://www.inkscape.org/namespaces/inkscape"
   width="4093.5696"
   height="751.45508"
   id="svg2"
   version="1.1"
   inkscape:version="0.48.4 r9939"
   sodipodi:docname="logo_inkscape.svg"
   inkscape:export-filename="C:\Users\Sandro\Desktop\logo_inkscape.png"
   inkscape:export-xdpi="22.224585"
   inkscape:export-ydpi="22.224585">
  <defs
     id="defs4">
    <linearGradient
       y2="359.27341"
       x2="1938.2939"
       y1="359.27341"
       x1="1230.8387"
       gradientTransform="matrix(0,-1,1,0,673.86333,2278.1245)"
       gradientUnits="userSpaceOnUse"
       id="linearGradient4172"
       xlink:href="#linearGradient3850"
       inkscape:collect="always" />
    <linearGradient
       inkscape:collect="always"
       xlink:href="#linearGradient3850"
       id="linearGradient3856"
       x1="1230.8387"
       y1="359.27341"
       x2="1938.2939"
       y2="359.27341"
       gradientUnits="userSpaceOnUse"
       gradientTransform="matrix(0,-1,1,0,1225.2929,1943.8398)" />
    <linearGradient
       inkscape:collect="always"
       xlink:href="#linearGradient5486"
       id="linearGradient5492"
       x1="807.42468"
       y1="69.418091"
       x2="1518.8005"
       y2="69.418091"
       gradientUnits="userSpaceOnUse"
       gradientTransform="matrix(0,-1,1,0,1517.1764,1520.4245)" />
    <linearGradient
       inkscape:collect="always"
       xlink:href="#linearGradient3813"
       id="linearGradient5476"
       x1="-88.788345"
       y1="1168.3657"
       x2="3127.2117"
       y2="1168.3657"
       gradientUnits="userSpaceOnUse" />
    <linearGradient
       inkscape:collect="always"
       xlink:href="#linearGradient3813"
       id="linearGradient3833"
       x1="0"
       y1="378.5"
       x2="3216"
       y2="378.5"
       gradientUnits="userSpaceOnUse"
       spreadMethod="pad" />
    <linearGradient
       id="linearGradient3813">
      <stop
         style="stop-color:#bf0713;stop-opacity:1;"
         offset="0"
         id="stop3839" />
      <stop
         style="stop-color:#9d0b11;stop-opacity:1;"
         offset="0.5"
         id="stop3837" />
      <stop
         style="stop-color:#800000;stop-opacity:1;"
         offset="1"
         id="stop3817" />
    </linearGradient>
    <linearGradient
       id="linearGradient5486">
      <stop
         id="stop5496"
         offset="0"
         style="stop-color:#800000;stop-opacity:1;" />
      <stop
         style="stop-color:#9b0409;stop-opacity:1;"
         offset="0.125"
         id="stop5504" />
      <stop
         style="stop-color:#b60813;stop-opacity:1;"
         offset="0.25"
         id="stop5502" />
      <stop
         style="stop-color:#e10318;stop-opacity:1;"
         offset="1"
         id="stop5490" />
    </linearGradient>
    <linearGradient
       id="linearGradient3850">
      <stop
         style="stop-color:#990000;stop-opacity:1;"
         offset="0"
         id="stop3852" />
      <stop
         id="stop3860"
         offset="1"
         style="stop-color:#e10318;stop-opacity:1;" />
    </linearGradient>
  </defs>
  <sodipodi:namedview
     id="base"
     pagecolor="#ffffff"
     bordercolor="#666666"
     borderopacity="1.0"
     inkscape:pageopacity="0.0"
     inkscape:pageshadow="2"
     inkscape:zoom="0.24748737"
     inkscape:cx="2002.1985"
     inkscape:cy="124.33384"
     inkscape:document-units="px"
     inkscape:current-layer="g3047"
     showgrid="false"
     fit-margin-top="0"
     fit-margin-left="0"
     fit-margin-right="0"
     fit-margin-bottom="0"
     inkscape:window-width="1920"
     inkscape:window-height="1017"
     inkscape:window-x="-8"
     inkscape:window-y="-8"
     inkscape:window-maximized="1" />
  <metadata
     id="metadata7">
    <rdf:RDF>
      <cc:Work
         rdf:about="">
        <dc:format>image/svg+xml</dc:format>
        <dc:type
           rdf:resource="http://purl.org/dc/dcmitype/StillImage" />
        <dc:title></dc:title>
      </cc:Work>
    </rdf:RDF>
  </metadata>
  <g
     inkscape:label="Layer 1"
     inkscape:groupmode="layer"
     id="layer1"
     transform="translate(1006.5654,-147.42847)">
    <g
       id="g3047"
       transform="translate(-455.13678,-192.40216)">
      <path
         inkscape:connector-curvature="0"
         id="path4178"
         d="m 1042.6283,383.83102 c -11.2083,0.011 -22.3884,0.2721 -33.4376,1.2188 -10.69387,4.8193 -17.96877,16.0578 -18.03117,27.8437 -2.31,46.34729 0.2681,92.8502 -1.9375,139.1875 -1.8847,4.5899 -6.7217,-0.9253 -8.7813,-2.5 -25.838,-25.3589 -56.0322,-47.5034 -91.2812,-57.875 -39.2742,-12.2521 -82.563,-9.6861 -120.5312,5.7188 -28.643,11.161 -54.7537,28.5176 -77.0626,49.4687 -4.8951,2.274 -5.6074,-4.9441 -5.3437,-8.1562 -0.3729,-12.4642 1.7904,-27.6472 -8.9375,-36.5313 -8.2034,-10.1019 -22.2929,-7.5068 -33.75,-8.2187 -18.9729,0.3965 -38.132,-1.0953 -57,0.9062 -5.7989,1.4819 -9.8875,6.7932 -9.6875,12.7188 -1.8819,5.2082 -8.3036,1.6299 -11.3437,-0.375 -42.8152,-26.8989 -97.7354,-28.6906 -145.0626,-13.6563 -40.8558,13.2873 -77.5244,39.5687 -101.3124,75.4688 -2.4829,2.2931 -4.6757,8.748 -8.9063,6.8437 -5.5473,-6.675 -8.6454,-15.2865 -14.0625,-22.2187 -17.4279,-24.6069 -41.2068,-45.5275 -69.2188,-56.9063 -39.1137,-16.7211 -85.923,-20.5383 -125.4687,-2.9375 -7.033271,2.6589 -12.596701,7.9623 -19.468751,10.6563 -10.6356,-3.9528 -20.82064,-10.2692 -32.5,-10.5625 -11.60909,-0.8613 -23.21036,0.8101 -34.8125,1.0937 -0.78534,-26.3938 0.14312,-52.8931 -1.96875,-79.2187 -2.27925,-9.3201 -7.8387204,-17.8993 -15.3750004,-23.875 -3.45922,-2.7429 -7.32994,-4.9522 -11.4999996,-6.4063 -5.99846,-2.5143 -13.36896,-0.7782 -19.84375,-1.5 -20.88314,0.1058 -42.03055,-0.6358 -62.75,0.3438 -8.354769,2.8385 -14.457149,9.0975 -19.156249,16.3437 -73.07713,96.5395 -144.00575,194.6001 -215.53126,292.3438 -55.0947,76.2146 -111.14531,151.9271 -164.25001,229.4375 -4.9338,6.548 -8.0969,14.2416 -11.3125,21.5 0.01,5.91 -1.895,13.0024 2.2188,17.875 3.3379,8.3906 12.6899,13.1687 20.875,15.0625 282.70828,0.3801 565.416609,0.7479 848.12497,1.0937 26.3121,16.9358 55.8264,29.00638 87.0625,32.46878 47.3252,6.3324 98.3704,1.2584 139,-25.31248 5.5668,-3.6759 11.2107,-8.0317 18.3438,-6.8438 97.9584,-1.3943 195.9388,-0.5941 293.9062,-0.9062 l 530.40617,0 c 9.1917,8.9218 9.8737,22.78428 14.2813,34.24998 6.9004,21.0487 12.3423,42.8424 22.4375,62.5937 6.5228,13.6129 23.2319,20.753 37.375,15.0313 10.9686,-3.009 18.5715,-11.9543 24,-21.5 17.3751,-27.4836 32.3537,-56.6661 51.5,-82.93748 3.4066,-6.3934 11.838,-2.2801 17.75,-3.4375 324.1664,-0.1625 648.3341,0.3614 972.4999,-0.375 20.0653,-0.4175 934.5971,0.4777 954.5726,-1.25 9.4055,-2.9254 15.568,-12.5959 14.4062,-22.3438 0,-172.58477 0.6767,-376.30608 0.2188,-550.1562 -2.8551,-10.1407 -10.6413,-18.6042 -20.8438,-21.4063 -6.8422,-3.2155 -909.5645,-0.9735 -916.9788,-1.875 -20.6065,0.14 -41.5106,-0.6827 -61.9375,0.3438 -10.9413,3.9514 -19.1857,13.9727 -19.875,25.6562 -1.8125,41.0215 -0.098,82.1967 -2.1563,123.1875 -2.6545,4.2088 -7.0652,-2.1499 -9.5624,-3.75 -24.1254,-24.8265 -56.5259,-44.9695 -92.0626,-44.7187 -31.0896,-2.1682 -61.2726,9.8284 -86.5312,26.8437 -2.5239,2.1014 -6.3102,1.7458 -6.5312,-2.0312 -1.1703,-5.4554 -1.1875,-14.5192 -8.5938,-14.8438 -12.0151,-1.4113 -24.148,-1.254 -36.2188,-1.8437 -0.7874,-28.2135 0.06,-56.6225 -1.9374,-84.7188 -2.0595,-10.1703 -9.2573,-19.3855 -19.4063,-22.3125 -5.681,-2.7902 -13.1608,-0.8498 -19.4687,-1.6875 -19.8637,0.038 -39.9833,-0.7083 -59.6876,0.2188 -10.4728,4.2336 -21.0307,10.4495 -24.4687,21.9375 -3.6032,12.5186 -1.527,26.0844 -2.4375,39 -0.2335,15.86459 -0.4278,31.7291 -0.6562,47.5937 -21.4273,0.9182 -43.1632,-0.3486 -64.4063,2.25 -7.0701,1.5096 -10.9375,8.2105 -14.6875,13.6563 -4.5072,1.8465 -8.8315,-3.1144 -13.0312,-4.3438 -46.7645,-25.4165 -104.6461,-22.7962 -152.8126,-3.3125 -39.4171,15.797 -73.733,43.763 -94.6562,80.8438 -2.4376,2.6506 -4.1489,9.4801 -8.5938,8 -9.2253,-10.3413 -15.4701,-23.2895 -25,-33.5938 -27.3236,-32.9517 -63.964,-58.6637 -106.3749,-67.5312 -56.9837,-13.1906 -118.3204,4.3041 -163.625,40.0937 -16.9655,11.2327 -28.9454,28.4012 -44.9687,40.625 -5.1268,1.2507 -3.6098,-6.3127 -3.4687,-9.2812 3.0021,-30.4238 -0.3223,-61.9952 -13.9376,-89.5625 -20.6165,-43.9689 -63.7909,-75.9861 -111.5312,-84.2813 -11.0566,-3.6184 -23.1692,-1.3794 -34.6875,-2.3125 -26.655,-0.2654 -53.3128,-0.3504 -79.9687,-0.2187 -16.5856,0.4029 -33.5395,-0.4876 -49.9063,1.2187 -7.1628,3.2126 -14.0931,8.1846 -17.1875,15.5938 -3.5266,4.8068 -0.5145,13.9951 -7.5,16.0625 -9.5492,0.9776 -19.6514,1.2047 -29.0938,-0.25 -5.8976,-1.4842 -3.1933,-8.7392 -5.3437,-12.7813 -1.8668,-8.1412 -8.2078,-13.9871 -15.7187,-16.9687 -5.4315,-4.5131 -13.3652,-1.7178 -19.9063,-2.75 -11.1494,0 -22.3855,-0.2301 -33.5937,-0.2188 z"
         style="fill:#000000;fill-opacity:1"
         sodipodi:nodetypes="ccccccccccccccccccccccccscccccccccccccccccccccccccccccccccccccccccccccccccccccccccccccccccc" />
      <path
         style="fill:url(#linearGradient4172);fill-opacity:1"
         d="m 998.62833,339.83103 c -11.2083,0.011 -22.3884,0.2721 -33.4376,1.2188 -10.6939,4.8193 -17.9688,16.0578 -18.0312,27.8437 -2.31,46.34729 0.2681,92.85019 -1.9375,139.18749 -1.8847,4.5899 -6.7217,-0.9253 -8.7813,-2.5 -25.838,-25.3589 -56.0322,-47.5034 -91.2812,-57.875 -39.2742,-12.2521 -82.563,-9.6861 -120.5312,5.7188 -28.643,11.161 -54.7537,28.5176 -77.0626,49.4687 -4.8951,2.274 -5.6074,-4.9441 -5.3437,-8.1562 -0.3729,-12.4642 1.7904,-27.6472 -8.9375,-36.5313 -8.2034,-10.1019 -22.2929,-7.5068 -33.75,-8.2187 -18.9729,0.3965 -38.132,-1.0953 -57,0.9062 -5.7989,1.4819 -9.8875,6.7932 -9.6875,12.7188 -1.8819,5.2082 -8.3036,1.6299 -11.3437,-0.375 -42.8152,-26.8989 -97.73544,-28.6906 -145.0626,-13.6563 -40.8558,13.2873 -77.5244,39.5687 -101.3124,75.4688 -2.4829,2.2931 -4.6757,8.748 -8.9063,6.8437 -5.5473,-6.675 -8.6454,-15.2865 -14.0625,-22.2187 -17.4279,-24.6069 -41.2068,-45.5275 -69.2188,-56.9063 -39.1137,-16.7211 -85.923001,-20.53829 -125.468701,-2.9375 -7.03327,2.6589 -12.5967,7.9623 -19.46875,10.6563 -10.6356,-3.9528 -20.82064,-10.2692 -32.5000004,-10.5625 -11.60909,-0.8613 -23.2103596,0.8101 -34.8124996,1.0937 -0.78534,-26.39379 0.14312,-52.89309 -1.96875,-79.21869 -2.27925,-9.3201 -7.83872,-17.8993 -15.375,-23.875 -3.45922,-2.7429 -7.32994,-4.9522 -11.5,-6.4063 -5.99846,-2.5143 -13.36896,-0.7782 -19.84375,-1.5 -20.88314,0.1058 -42.030549,-0.6358 -62.749999,0.3438 -8.35477,2.8385 -14.45715,9.0975 -19.15625,16.3437 -73.07713,96.53949 -144.00575,194.60009 -215.53126,292.34379 -55.0947,76.2146 -111.14531,151.9271 -164.25001,229.4375 -4.9338,6.548 -8.0969,14.2416 -11.3125,21.5 0.01,5.91 -1.895,13.0024 2.2188,17.875 3.3379,8.3906 12.6899,13.1687 20.875,15.0625 282.70828,0.3801 565.416609,0.7479 848.12497,1.0937 26.3121,16.9358 55.8264,29.0064 87.06246,32.4688 47.32524,6.3324 98.37044,1.2584 139.00004,-25.3125 5.5668,-3.6759 11.2107,-8.0317 18.3438,-6.8438 97.9584,-1.3943 195.9388,-0.5941 293.9062,-0.9062 l 530.40617,0 c 9.1917,8.9218 9.8737,22.7843 14.2813,34.25 6.9004,21.0487 12.3423,42.84238 22.4375,62.59368 6.5228,13.6129 23.2319,20.753 37.375,15.0313 10.9686,-3.009 18.5715,-11.9543 24,-21.5 17.3751,-27.48358 32.3537,-56.66608 51.5,-82.93748 3.4066,-6.3934 11.838,-2.2801 17.75,-3.4375 324.1664,-0.1625 648.3341,0.3614 972.4999,-0.375 20.0653,-0.4175 938.0461,0.4777 958.0216,-1.25 9.4055,-2.9254 15.568,-12.5959 14.4062,-22.3438 0,-169.22335 0.6766,-376.3491 0.2188,-550.15619 -2.8551,-10.1407 -10.6413,-18.6042 -20.8438,-21.4063 -6.8422,-3.2155 -913.0135,-0.9735 -920.4278,-1.875 -20.6065,0.14 -41.5106,-0.6827 -61.9375,0.3438 -10.9413,3.9514 -19.1857,13.9727 -19.875,25.6562 -1.8125,41.0215 -0.098,82.19669 -2.1563,123.18749 -2.6545,4.2088 -7.0652,-2.1499 -9.5624,-3.75 -24.1254,-24.8265 -56.5259,-44.9695 -92.0626,-44.7187 -31.0896,-2.1682 -61.2726,9.8284 -86.5312,26.8437 -2.5239,2.1014 -6.3102,1.7458 -6.5312,-2.0312 -1.1703,-5.4554 -1.1875,-14.5192 -8.5938,-14.8438 -12.0151,-1.4113 -24.148,-1.254 -36.2188,-1.8437 -0.7874,-28.21349 0.06,-56.62249 -1.9374,-84.71879 -2.0595,-10.1703 -9.2573,-19.3855 -19.4063,-22.3125 -5.681,-2.7902 -13.1608,-0.8498 -19.4687,-1.6875 -19.8637,0.038 -39.9833,-0.7083 -59.6876,0.2188 -10.4728,4.2336 -21.0307,10.4495 -24.4687,21.9375 -3.6032,12.5186 -1.527,26.0844 -2.4375,39 -0.2335,15.86459 -0.4278,31.7291 -0.6562,47.59369 -21.4273,0.9182 -43.1632,-0.3486 -64.4063,2.25 -7.0701,1.5096 -10.9375,8.2105 -14.6875,13.6563 -4.5072,1.8465 -8.8315,-3.1144 -13.0312,-4.3438 -46.7645,-25.4165 -104.6461,-22.7962 -152.8126,-3.3125 -39.4171,15.797 -73.733,43.763 -94.6562,80.8438 -2.4376,2.6506 -4.1489,9.4801 -8.5938,8 -9.2253,-10.3413 -15.4701,-23.2895 -25,-33.5938 -27.3236,-32.9517 -63.964,-58.6637 -106.3749,-67.5312 -56.9837,-13.19059 -118.3204,4.3041 -163.625,40.0937 -16.9655,11.2327 -28.9454,28.4012 -44.9687,40.625 -5.1268,1.2507 -3.6098,-6.3127 -3.4687,-9.2812 3.0021,-30.4238 -0.3223,-61.9952 -13.9376,-89.56249 -20.6165,-43.9689 -63.7909,-75.9861 -111.5312,-84.2813 -11.0566,-3.6184 -23.1692,-1.3794 -34.6875,-2.3125 -26.655,-0.2654 -53.3128,-0.3504 -79.9687,-0.2187 -16.5856,0.4029 -33.5395,-0.4876 -49.9063,1.2187 -7.1628,3.2126 -14.0931,8.1846 -17.1875,15.5938 -3.5266,4.8068 -0.5145,13.9951 -7.5,16.0625 -9.5492,0.9776 -19.6514,1.2047 -29.0938,-0.25 -5.8976,-1.4842 -3.1933,-8.7392 -5.3437,-12.7813 -1.8668,-8.1412 -8.2078,-13.9871 -15.7187,-16.9687 -5.4315,-4.5131 -13.3652,-1.7178 -19.9063,-2.75 -11.1494,0 -22.3855,-0.2301 -33.59367,-0.2188 z"
         id="path3941"
         inkscape:connector-curvature="0"
         sodipodi:nodetypes="ccccccccccccccccccccccccscccccccccccccccccccccccccccccccccccccccccccccccccccccccccccccccccc" />
      <path
         style="fill:#000000"
         d=""
         id="path3008"
         inkscape:connector-curvature="0" />
      <g
         id="g3042"
         transform="translate(-894.4121,522.21942)"
         style="fill:#ffffff">
        <path
           style="fill:#ffffff"
           d="m 2342.1943,485.23407 c -1.6977,-2.0455 -34.5598,-97.97574 -38.6185,-112.73407 -5.7644,-20.96029 -6.0819,-21.36219 -9.4904,-12.014 -1.2005,3.29229 -3.6461,7.90479 -5.4349,10.25 l -3.2522,4.264 -397.3979,0.25125 c -218.5689,0.13819 -397.7632,-0.11402 -398.2096,-0.56046 -0.4464,-0.44644 2.0607,-4.6095 5.5715,-9.25125 7.4331,-9.8277 16.0133,-23.7278 21.7822,-35.28762 2.2375,-4.48356 4.9988,-9.16442 6.1362,-10.40192 l 2.0679,-2.25 362.2743,0 362.2744,0 5.117,-8.25 c 4.8646,-7.84294 21.2829,-40.41726 38.8476,-77.07456 7.1025,-14.82296 8.3219,-16.78595 10.2495,-16.5 1.2034,0.17851 3.0427,1.47398 4.0874,2.87882 1.0447,1.40485 5.681,14.45485 10.303,29 11.1372,35.04835 33.6258,98.44595 35.8372,101.0287 0.9662,1.12848 2.2977,1.88481 2.9589,1.68075 0.6612,-0.20407 4.1271,-6.28359 7.7021,-13.51005 3.575,-7.22646 5.9076,-18.21166 8.1226,-17.48295 l 40.4568,54.22799 c -8.5445,11.08817 -23.884,31.58645 -34.0799,51.0013 -18.2381,34.7287 -28.7323,54.33348 -31.1805,58.25 -2.4314,3.88962 -4.3219,4.65638 -6.1247,2.48407 z M 1309.5356,407.35449 c -19.83,-2.54131 -43.0816,-9.55311 -60.5867,-18.27067 -32.5636,-16.21666 -56.1083,-39.45757 -71.0367,-70.12022 -3.2231,-6.62002 -5.9843,-13.14502 -6.1361,-14.5 L 1171.5,302 l 32.3806,-0.26403 c 22.975,-0.18733 32.7766,0.0646 33.7437,0.86718 0.7496,0.62216 2.7766,3.60198 4.5044,6.62183 12.1569,21.24799 39.0974,36.39224 72.5371,40.77581 26.4157,3.4628 47.4479,0.80973 68.2234,-8.60592 20.5317,-9.30521 40.6146,-29.05106 51.4876,-50.62367 C 1440.4936,278.63513 1445,262.50812 1445,252.75393 l 0,-6.42614 -6.2893,5.00456 c -23.5002,18.69964 -54.5269,31.39894 -86.1147,35.24689 -13.6493,1.66272 -39.1264,0.63388 -52.0688,-2.10269 -23.6996,-5.01108 -47.6667,-15.36422 -66.5272,-28.73799 -12.1801,-8.63678 -31.6018,-28.05843 -40.2386,-40.23856 -13.3737,-18.86054 -23.7269,-42.8276 -28.7379,-66.52716 -2.7366,-12.94244 -3.7655,-38.41952 -2.1027,-52.06879 3.2047,-26.30732 12.9009,-53.22991 26.7967,-74.40405 44.7714,-68.22132 131.1508,-95.79947 206.553,-65.94571 15.4253,6.10728 28.4125,13.56377 42.9795,24.6762 l 5.75,4.3864 0,-13.936 c 0,-10.58438 0.3297,-14.20963 1.3709,-15.07376 0.9726,-0.80715 9.9076,-1.06066 30.75,-0.87244 L 1506.5,-44 l 0.2911,145 c 0.3071,152.92 0.1899,157.83503 -4.2928,180.05836 -7.1986,35.68794 -25.6828,68.26625 -50.4215,88.86762 -24.369,20.29357 -52.0414,32.06617 -87.0776,37.0453 -11.6162,1.65082 -43.8353,1.87343 -55.4636,0.38321 z m 52.7417,-181.16963 c 20.095,-5.30983 37.6548,-15.71639 52.617,-31.18267 21.3911,-22.11168 32.0895,-48.4802 32.1017,-79.1212 0.012,-31.50452 -12.1952,-59.92194 -35.2199,-81.9861 C 1390.0768,13.10096 1363.4616,2.5 1332.9548,2.5 c -43.9586,0 -83.5183,25.2565 -102.5767,65.48909 -2.4637,5.20092 -5.6712,13.85602 -7.1279,19.23356 -2.4286,8.96573 -2.6484,11.35453 -2.6484,28.77735 0,17.42282 0.2198,19.81162 2.6484,28.77735 11.4104,42.12414 44.4887,73.4952 87.2498,82.74657 13.4156,2.90247 38.1458,2.2629 51.7773,-1.33906 z M 485.50581,374.5094 c -0.64695,-1.04678 34.31951,-52.26508 37.72529,-55.2594 1.88651,-1.6586 18.14085,-1.75 311.2247,-1.75 293.2793,0 309.3105,0.0903 310.7117,1.75 0.8126,0.9625 3.8731,6.025 6.801,11.25 5.2987,9.45565 15.91,25.78492 23.2037,35.7073 2.1053,2.86402 3.8278,6.12652 3.8278,7.25 l 0,2.0427 -346.44098,0 c -227.69092,0 -346.65084,-0.33955 -347.05321,-0.9906 z M 377,372.97939 c 0,-1.97217 6.14753,-11.79141 14.07366,-22.47939 5.09846,-6.875 53.3698,-72.35 107.26965,-145.5 166.59543,-226.09443 239.12775,-323.92543 256.52586,-346 9.91727,-12.58293 7.81002,-11.9457 40.73586,-12.31857 32.59076,-0.36908 34.49099,-0.03 36.37272,6.49107 0.79461,2.75365 1.02281,63.30673 0.81337,215.8275 L 832.5,281 l -32.7427,0.26365 -32.7427,0.26366 -0.2573,-64.76366 L 766.5,152 l -79.18033,-0.25601 -79.18032,-0.256 -35.51196,49.256 C 553.09581,227.8348 517.17376,277.675 492.80061,311.5 l -44.31482,61.5 -35.7429,0.26263 C 393.0843,373.40708 377,373.27962 377,372.97939 z M 766.75633,17.05633 c 0.18173,-53.838 -0.0611,-76.25114 -0.83434,-77 -0.7745,-0.7501 -2.0854,0.0843 -4.52194,2.87832 C 754.06136,-48.64997 651,91.31324 651,92.86423 c 0,0.35861 25.9875,0.53586 57.75,0.39389 L 766.5,93 z M 3246,289.91888 c -11.69,-2.06767 -15.1317,-2.87385 -21.8371,-5.11497 -35.357,-11.81743 -62.0926,-40.08194 -71.826,-75.93349 -2.2781,-8.39129 -2.6915,-11.96839 -2.7583,-23.87042 l -0.079,-14 28.5384,-0.26499 c 22.3771,-0.20778 28.9277,0.0197 30.3416,1.05361 1.417,1.03614 1.9743,3.44921 2.6017,11.26499 1.2128,15.10952 5.6454,25.02057 15.2548,34.10877 15.3445,14.51212 39.3487,17.63035 58.1886,7.55887 6.553,-3.50309 15.3275,-12.30824 18.8749,-18.94086 2.9122,-5.44477 5.6528,-16.2234 5.6826,-22.34889 0.028,-5.73859 -2.7284,-13.39271 -6.7474,-18.73675 -9.0605,-12.04796 -23.3408,-19.99286 -46.2229,-25.71631 -53.7083,-13.43396 -84.2578,-37.77289 -94.1105,-74.97844 -2.5196,-9.51417 -3.0627,-30.4117 -1.0395,-40 6.5644,-31.111 24.4033,-54.22185 52.7845,-68.38377 39.61,-19.76503 89.8882,-12.01712 121.0371,18.65192 16.1021,15.85401 26.9964,39.24048 27.5925,59.23185 l 0.2236,7.5 -30.4549,0 -30.455,0 -1.2561,-6.2065 C 3297.7816,22.18502 3289.8538,11.75603 3278.4455,6 c -5.6215,-2.83634 -6.6005,-3 -17.9459,-3 -10.9259,0 -12.5118,0.23988 -17.7181,2.68006 -15.6458,7.33321 -24.2157,23.77941 -20.8469,40.00676 2.1912,10.55479 11.4345,19.80593 24.8015,24.82231 3.1699,1.18962 12.5135,3.88978 20.7635,6.00034 35.5551,9.09591 59.4502,21.10206 77.0742,38.72601 24.4747,24.47472 32.6963,58.44837 23.296,96.26452 -9.5138,38.27255 -37.5604,65.69504 -77.3702,75.64846 -8.0544,2.01379 -13.113,2.56954 -26,2.85643 -8.8,0.1959 -17.125,0.15719 -18.5,-0.086 z m 176.286,-1.81332 c -10.4141,-3.39385 -20.3608,-12.26352 -25.1059,-22.38749 -2.3746,-5.06635 -2.6801,-6.91722 -2.6801,-16.2391 0,-9.86071 0.2051,-10.93761 3.2677,-17.15868 4.1612,-8.45261 12.862,-16.73751 20.9477,-19.94636 8.306,-3.29628 22.3358,-3.26267 30.7846,0.0738 8.316,3.28398 18.2683,13.23636 21.5523,21.55231 3.3364,8.44876 3.3701,22.47859 0.074,30.78458 -3.1948,8.05029 -11.4971,16.78812 -19.8657,20.90798 -5.7016,2.80687 -7.7443,3.26439 -15.6587,3.50713 -5.742,0.17611 -10.6572,-0.22776 -13.3157,-1.09413 z M 2467,287.86853 c -41.4718,-5.19286 -76.734,-22.66603 -105.0011,-52.03021 -13.0423,-13.5486 -22.1708,-26.29589 -29.9608,-41.83832 -13.9737,-27.87991 -20.0361,-57.91219 -17.9349,-88.84696 4.1041,-60.42312 40.218,-114.21396 95.2071,-141.80876 38.8977,-19.5198 85.9506,-23.14866 126.1571,-9.72963 33.7261,11.2562 64.312,35.388 84.7739,66.88535 11.3415,17.4582 21.321,40.57513 24.1749,56 2.9921,16.17154 4.7576,61.93816 2.5486,66.06574 -1.0156,1.89774 -3.5942,1.93426 -136.5794,1.93426 l -135.5443,0 0.6898,3.25 c 1.3622,6.41826 6.5738,18.56014 11.5483,26.90471 15.8664,26.61563 40.3327,44.95014 70.6591,52.95029 11.9804,3.16042 35.7948,3.71016 48.2617,1.11407 25.9195,-5.39741 47.747,-20.06005 60.8677,-40.88785 2.7133,-4.30717 6.0744,-9.06872 7.469,-10.58122 l 2.5358,-2.75 31.0951,0 c 26.8981,0 31.1739,0.20514 31.6784,1.51985 0.9398,2.44923 -9.4825,24.8889 -17.2115,37.05666 -16.4743,25.93585 -41.4744,48.17887 -67.98,60.483 -21.3407,9.90653 -40.1549,14.02914 -65.9545,14.45214 -9.9,0.16232 -19.575,0.0979 -21.5,-0.14312 z M 2585.4702,93.25 C 2580.3181,62.21836 2564.1298,35.56909 2540.7594,19.64666 2533.587,14.76007 2520.4489,8.78019 2511.5,6.32916 2504.6115,4.44243 2500.9297,4.13749 2485,4.13427 c -16.85,-0.003 -19.372,0.2312 -28.2773,2.63034 -11.4031,3.07205 -25.713,9.60692 -35.9604,16.42199 -15.9293,10.5938 -32.0066,30.07798 -39.8713,48.3203 -3.0613,7.10071 -7.891,22.65284 -7.891,25.40971 0,0.32087 47.9646,0.58339 106.5879,0.58339 l 106.5879,0 z m 234.9313,194.22273 c -72.481,-6.95539 -132.7511,-58.41953 -150.4399,-128.45943 -3.9445,-15.61835 -5.1804,-25.76102 -5.1804,-42.5133 0,-16.75228 1.2359,-26.89495 5.1804,-42.5133 7.2193,-28.5852 20.9557,-53.51259 41.4169,-75.15882 25.6112,-27.09453 58.5829,-44.90656 95.1908,-51.42421 16.6237,-2.95967 42.1569,-2.97463 58.6604,-0.0344 27.6039,4.91793 57.0951,17.97942 76.5203,33.89047 l 4.25,3.48114 0,-13.92933 c 0,-9.5662 0.3915,-14.46413 1.25,-15.6367 1.1376,-1.55378 3.9037,-1.68342 30.75,-1.44113 l 29.5,0.26624 0,163.5 0,163.5 -29.5,0.26624 c -26.8463,0.24229 -29.6124,0.11265 -30.75,-1.44113 -0.8679,-1.18552 -1.25,-6.2705 -1.25,-16.6367 l 0,-14.92933 -4.25,3.48114 c -19.3174,15.82269 -49.5345,29.21426 -76.0723,33.71359 -13.6915,2.32132 -33.1042,3.18696 -45.2762,2.01892 z M 2849.5,229.39144 c 12.8979,-1.5806 24.393,-5.11025 37,-11.36116 13.1431,-6.51673 21.4951,-12.66281 31.6465,-23.28821 15.1883,-15.8974 24.5258,-33.45192 29.5301,-55.51677 1.137,-5.01331 1.6387,-11.97055 1.6387,-22.7253 0,-20.59951 -2.83,-33.17854 -11.2792,-50.1341 -7.6698,-15.39162 -20.2437,-30.551 -33.985,-40.97331 -8.603,-6.52507 -26.3445,-15.2527 -37.3143,-18.3562 -63.5404,-17.97632 -129.5591,22.89762 -142.3805,88.15162 -2.2637,11.52084 -2.2527,30.87212 0.024,42.62398 11.3144,58.39809 66.468,98.76702 125.1196,91.57945 z M 1666.3839,286.0213 c -19.049,-2.91949 -33.4938,-7.54048 -51.8839,-16.59801 -18.1399,-8.93432 -30.1627,-17.60016 -44.9929,-32.43039 -14.4424,-14.44239 -23.2744,-26.60534 -31.9452,-43.9929 -7.8929,-15.82765 -11.7722,-26.84383 -15.2827,-43.39845 -2.3863,-11.25327 -2.6769,-14.79491 -2.7159,-33.10155 -0.037,-17.5018 0.2906,-22.15761 2.2427,-31.83379 10.3959,-51.5309 41.2083,-93.85453 86.694,-119.08212 40.3987,-22.40617 89.7304,-27.13205 132.7955,-12.72155 41.3064,13.82199 75.7905,45.30198 96.1764,87.79796 7.0618,14.7208 12.0884,30.08447 13.5252,41.3395 1.3498,10.57307 2.5756,55.08187 1.6217,58.8826 l -0.6569,2.6174 -135.981,0 c -74.7895,0 -135.9809,0.1738 -135.9809,0.38623 0,0.21243 1.1829,3.92493 2.6286,8.25 12.0558,36.06567 41.9513,64.07555 79.0941,74.1053 8.853,2.39061 11.5261,2.64579 28.2773,2.69933 16.3227,0.0522 19.4925,-0.21206 26.9332,-2.24521 25.0757,-6.85191 46.0957,-22.96129 59.063,-45.26495 1.7366,-2.98689 3.8838,-5.9932 4.7717,-6.6807 1.8831,-1.45809 61.795,-1.81353 64.056,-0.38003 1.0573,0.67035 0.782,2.12704 -1.3672,7.23469 -23.499,55.847 -64.6748,91.169 -119.9567,102.90297 -13.0909,2.77862 -43.589,3.58688 -57.1161,1.51367 z M 1790.5927,91.48711 c -1.8118,-13.65821 -9.9289,-34.15452 -18.6953,-47.20731 -10.2055,-15.19559 -28.5439,-29.56801 -45.6033,-35.74082 -26.7502,-9.67937 -60.5339,-7.46355 -86.7941,5.69269 -19.3309,9.68467 -38.363,28.12509 -48.9208,47.39968 -4.1323,7.54422 -9.0356,20.43879 -11.0413,29.03661 l -1.3605,5.83204 106.5401,0 106.5402,0 z M 852.2,280.3 c -0.92344,-0.92344 -1.2,-38.47302 -1.2,-162.92857 0,-145.69264 0.15581,-161.88439 1.57143,-163.3 1.35435,-1.35435 5.47099,-1.57143 29.8,-1.57143 20.62222,0 28.55192,0.32335 29.42857,1.2 0.79774,0.79774 1.2,5.15556 1.2,13 0,6.49 0.22248,11.8 0.4944,11.8 0.27191,0 4.15436,-2.7137 8.62765,-6.03044 17.89112,-13.26546 34.86628,-21.01732 56.10977,-25.62304 11.44362,-2.48105 40.39768,-2.47316 53.70158,0.0146 28.9938,5.42173 51.6387,16.95732 70.6934,36.01202 24.426,24.42601 36.3013,53.86997 38.1646,94.62682 0.3897,8.525 0.4836,57.8 0.2086,109.5 l -0.5,94 -29.3791,0.26531 c -20.8424,0.18822 -29.7774,-0.0653 -30.75,-0.87244 C 1079.2261,279.44276 1079,262.4376 1079,177.28464 1079,78.78312 1078.931,74.97563 1076.972,65.36266 1071.5805,38.90596 1058.5997,19.79183 1039.7503,10.55371 1026.7682,4.19116 1020.9227,2.99515 1003,3.03449 985.16975,3.07359 978.48866,4.40738 965.15648,10.58921 940.1258,22.19538 924.37084,42.11353 915.79049,73 c -2.21681,7.97977 -2.22327,8.25149 -2.55607,107.47165 -0.25488,75.988 -0.61704,99.65179 -1.53404,100.23468 -2.11004,1.34128 -58.13537,0.95868 -59.50038,-0.40633 z m 1020.05,0.54514 c -0.9946,-0.40722 -1.25,-44.72773 -1.25,-216.89329 0,-212.90657 0.031,-216.39811 1.9343,-217.41667 1.2055,-0.64518 12.8385,-1.03518 30.8775,-1.03518 23.1331,0 29.1691,0.27205 30.068,1.35521 0.8271,0.99652 1.058,58.627906 0.8725,217.75 L 1934.5,281 1904,281.17847 c -16.775,0.0982 -31.0625,-0.0518 -31.75,-0.33333 z m 157.999,-0.49616 C 2029.2581,279.35806 2029,234.51969 2029,63.33518 l 0,-215.76481 2.0707,-1.10821 c 1.4791,-0.79161 21.5482,-0.9907 70.25,-0.69689 64.4326,0.38871 68.6739,0.52453 77.1793,2.47143 48.5668,11.11706 83.7638,47.01203 93.1413,94.98842 2.2797,11.66305 2.2392,32.91039 -0.083,43.77488 -4.5005,21.05183 -13.0575,38.88078 -25.8226,53.80241 -2.7301,3.19132 -4.7999,5.92768 -4.5996,6.08079 0.2004,0.1531 3.9546,2.71702 8.3428,5.69759 9.983,6.78072 23.5305,20.09927 30.4336,29.91921 26.3972,37.5515 29.8762,86.6946 9.0614,128 -17.3761,34.48168 -47.6432,58.07411 -86.9735,67.7936 l -10.5,2.59481 -80.001,0.35477 c -63.0156,0.27946 -80.2662,0.0896 -81.25,-0.8942 z m 155.413,-61.32681 c 23.0844,-4.35248 43.4824,-22.49476 50.6201,-45.02217 1.8643,-5.88402 2.211,-9.23196 2.1746,-21 -0.04,-12.89603 -0.2672,-14.59141 -2.8833,-21.5 -7.2607,-19.17366 -21.5581,-33.4593 -40.5734,-40.54019 -7.3144,-2.72371 -8.193,-2.8111 -35.5,-3.53067 -15.4,-0.40581 -36.2125,-0.78088 -46.25,-0.83349 L 2095,86.5 l 0,67 0,67 41.412,0 c 32.3321,0 43.1306,-0.32403 49.25,-1.47783 z m -16.1221,-195.0372 c 25.7603,-6.54815 44.3281,-29.02631 46.1139,-55.82528 0.6959,-10.44314 -1.4019,-20.65836 -6.2963,-30.65969 -5.1899,-10.60511 -16.9786,-22.33261 -27.533,-27.389963 C 2169.6086,-95.743502 2163.3241,-96.5 2126.912,-96.5 l -31.912,0 0,61 0,61 34.2899,0 c 27.3418,0 35.4976,-0.30699 40.25,-1.51503 z m 865.5803,256.15982 c -0.8271,-0.99652 -1.058,-58.62791 -0.8725,-217.75 L 3034.5,-154 l 30.8799,-0.26464 c 21.9522,-0.18813 31.276,0.0641 32.25,0.87244 1.1285,0.9366 1.3701,10.46043 1.3701,54.014645 l 0,52.877555 25.3,0 c 18.3444,0 25.6299,0.32991 26.5,1.2 0.8732,0.87318 1.2,8.44444 1.2,27.8 0,19.35556 -0.3268,26.92682 -1.2,27.8 -0.8701,0.87009 -8.1556,1.2 -26.5,1.2 l -25.3,0 0,133.8 c 0,102.73333 -0.2786,134.07862 -1.2,135 -1.8493,1.84931 -61.1381,1.7025 -62.6798,-0.15521 z m 367.3471,-88.66876 C 3402.203,187.75091 3402.1021,111.825 3402.2433,17.5 l 0.2567,-171.5 32,0 32,0 0,172.5 0,172.5 -31.776,0.26408 c 0,0 -2.1874,-0.0101 -32.2567,0.21195 z"
           id="path3044"
           inkscape:connector-curvature="0"
           sodipodi:nodetypes="cscccssssccccsssssccsccsscsssccscssssscsssssssssscscscssssssscssssssssssssssscssssssssscccccccsscssssssscscssccscsssccsssssssccccsssssssssscccsssssscssccsssssssscscsssssccscssssssscssssscscssssssscssscccscscsscccsssssssscccssssscsssssscsscssssssssssssssscccsssssssssssssscssssssssscscscscscsccscsssscscsssscsccssssssscccssssssscccsscscscscssssscssccsccccccc" />
      </g>
      <path
         sodipodi:nodetypes="csscssccccccccccccccccccccccccccccccccssccccscccccccscssscsccccssccccssccccccccssccccssccccssccccccccccccccccccccccccccccccccccsscccssscccccsccsccccccccccccccccccccccccccccccccccccccccccc"
         inkscape:connector-curvature="0"
         id="path4132"
         d="m 2055.5415,833.23933 0,36.41812 c 0,40.75387 -1.1609,37.69806 13.2149,34.61501 14.7336,-3.1598 24.7376,-15.61996 24.8165,-30.89016 0.035,-6.94346 -0.024,-7.02265 -5.7414,-7.02265 -5.2361,0 -5.7889,0.43172 -5.7889,4.60268 0,6.53345 -6.7543,18.89384 -11.1746,20.45109 l -3.7248,1.32861 0,-29.75135 0,-29.75135 -5.8127,0 z m -388.9976,1.66076 0,6.54815 0.404,7.35611 12.4313,-0.30974 12.8353,0.47451 0,21.51872 0,21.51871 -14.4961,0.4745 -14.4723,0.49823 0,6.54815 0,6.54814 36.4181,0 36.418,0 0,-6.61932 0,-6.61932 -14.0689,0 -14.069,0 0,-22.34909 0,-22.34911 12.4082,0 12.4083,0 0,-6.61931 0,-6.61933 -33.0966,0 z m 147.3332,0 0,11.64906 c 0,13.11604 -3.4075,21.79361 -12.1948,31.1274 -8.6113,9.14702 -16.6085,12.36566 -32.9067,13.19119 l -14.4962,0.71176 0,7.25989 0,7.23618 10.534,0 c 29.5672,0 50.1507,-10.9777 59.9298,-31.98152 3.3004,-7.08828 3.9965,-11.18756 4.0096,-23.86751 l 0.024,-15.32645 -7.4497,0 -7.4497,0 z m 216.848,0 0,25.52828 c 0,14.03703 -0.4884,26.74683 -1.0677,28.25665 -0.5795,1.50983 -2.8066,3.42868 -4.9585,4.24681 -3.0919,1.17549 -3.9147,2.69669 -3.9147,7.30735 0,3.3914 0.8297,5.83639 1.9692,5.83639 4.5317,0 15.8854,-6.99025 17.6515,-10.86612 1.203,-2.64036 1.898,-14.56613 1.898,-32.24249 l 0,-28.06687 -5.789,0 z m 100.9742,0 0,26.64335 c 0,31.50653 1.4775,36.48978 12.2896,41.40041 5.6666,2.57366 11.0502,3.07747 33.6422,3.10799 l 26.9044,0.0237 0,-7.4497 0,-7.4497 -26.501,0 c -24.4784,0 -26.739,-0.23802 -29.8699,-3.36897 -2.819,-2.81906 -3.303,-5.12041 -2.8946,-13.6657 l 0.4982,-10.27299 29.3719,-0.45078 29.3954,-0.45078 0,-7.40224 0,-7.42597 -29.7988,0 -29.7987,0 0,-6.61933 c 0,-6.62124 0,-6.61932 -6.6194,-6.61932 l -6.6193,0 z m 233.8588,0 -0.8777,14.02157 c -0.6946,11.13397 -1.7799,15.56133 -5.2433,21.47127 -8.4331,14.38988 -21.5422,20.78324 -42.563,20.78324 l -13.0251,0 0,7.66322 0,7.66323 17.7939,-0.8541 c 23.2837,-1.12433 31.566,-4.15042 43.6306,-15.96703 11.4061,-11.17157 14.7096,-20.37701 14.7096,-40.99707 l 0,-13.78433 -7.2125,0 z m -611.2787,1.66077 0,7.4497 0,7.44969 18.221,0 18.1973,0 0,-7.44969 0,-7.4497 -18.1973,0 z m 549.5696,0 0,16.56016 0,16.53643 6.6194,0 6.6192,0 0,-16.53643 0,-16.56016 -6.6192,0 z m 24.8165,0 0,16.56016 0,16.53643 7.4497,0 7.4497,0 0,-16.53643 0,-16.56016 -7.4497,0 z m -481.6917,1.66076 0,5.71777 0,5.71775 12.8352,0.5694 c 7.0559,0.3103 15.6135,0.71833 19.0276,0.90156 6.1937,0.3324 6.2159,0.31972 6.2159,-6.28717 l 0,-6.61931 -19.0275,0 z m 69.1349,13.23863 c -7.465,0 -7.4892,0.0213 -9.3239,7.30735 -2.2738,9.03003 -10.452,19.95648 -19.8579,26.57218 -6.567,4.61883 -8.3953,5.05067 -23.5354,5.57542 l -16.4177,0.5694 0,7.49714 0,7.47343 17.7937,-0.6643 c 14.8443,-0.54242 19.3562,-1.36563 27.1654,-4.98229 16.7488,-7.75682 28.6012,-23.55656 30.6528,-40.87845 l 0.9965,-8.46988 z m 25.2199,0 0,6.61933 0,6.61931 10.8187,0 10.8424,0 -0.4982,14.49607 -0.4746,14.47235 -10.3441,0.49823 -10.3442,0.49822 0,5.69404 0,5.71777 28.138,0 28.1381,0 0,-5.78894 0,-5.78893 -9.9171,0 -9.9409,0 0,-14.89941 0,-14.8994 9.9409,0 9.9171,0 0,-6.61931 0,-6.61933 -28.1381,0 z m -94.3548,6.61933 0,6.61931 0,6.61932 19.0512,0 19.0275,0 0,-6.61932 0,-6.61931 -19.0275,0 z m 374.0982,3.32151 0,8.25636 0,8.28009 31.4595,0 31.4597,0 0,-8.28009 0,-8.25636 -31.4597,0 z"
         style="fill:#ffffff" />
      <rect
         y="839.521"
         x="2394.2185"
         height="55.529411"
         width="179.17647"
         id="rect4164"
         style="fill:#ffffff;fill-opacity:1;fill-rule:nonzero;stroke:none" />
      <rect
         y="841.46997"
         x="1478.4226"
         height="54.521614"
         width="151.32552"
         id="rect4166"
         style="fill:#ffffff;fill-opacity:1;fill-rule:nonzero;stroke:none" />
      <rect
         y="836.77637"
         x="1917.3121"
         height="8.8876524"
         width="7.6756787"
         id="rect4168"
         style="fill:#ffffff;fill-opacity:1;fill-rule:nonzero;stroke:none" />
      <rect
         style="fill:#ffffff;fill-opacity:1;fill-rule:nonzero;stroke:none"
         id="rect4170"
         width="7.6756787"
         height="8.8876524"
         x="1907.2125"
         y="836.77637" />
      <rect
         style="fill:#ffffff;fill-opacity:1;fill-rule:nonzero;stroke:none"
         id="rect4174"
         width="7.6756787"
         height="8.8876524"
         x="2200.9084"
         y="832.73651" />
      <rect
         y="832.73651"
         x="2190.8088"
         height="8.8876524"
         width="7.6756787"
         id="rect4176"
         style="fill:#ffffff;fill-opacity:1;fill-rule:nonzero;stroke:none" />
      <g
         transform="translate(-547.38801,339.83063)"
         style="font-size:40px;font-style:normal;font-weight:normal;line-height:125%;letter-spacing:0px;word-spacing:0px;fill:#000000;fill-opacity:1;stroke:none;font-family:Sans"
         id="flowRoot3073">
        <path
           d="m 3356.3179,106.85702 c -1e-4,6.8656 -0.853,13.00622 -2.5586,18.42188 -1.7058,5.41571 -4.2431,10.01051 -7.6118,13.78442 -3.3689,3.77393 -7.5373,6.65235 -12.5052,8.63526 -4.968,1.98291 -10.7141,2.97436 -17.2385,2.97436 -6.4392,0 -12.0574,-0.8422 -16.8547,-2.52661 -4.7974,-1.6844 -8.7952,-4.25366 -11.9934,-7.70776 -3.1983,-3.45409 -5.597,-7.84634 -7.1961,-13.17676 -1.5991,-5.33038 -2.3987,-11.64157 -2.3987,-18.9336 0,-6.69493 0.8529,-12.718285 2.5586,-18.070064 1.7058,-5.35166 4.243,-9.903821 7.6118,-13.656494 3.3688,-3.752527 7.5372,-6.630943 12.5052,-8.635254 4.9679,-2.004148 10.7354,-3.006263 17.3025,-3.006347 6.2685,8.4e-5 11.8014,0.831626 16.5988,2.494629 4.7973,1.663166 8.8058,4.221757 12.0254,7.675781 3.2195,3.454172 5.6502,7.814438 7.292,13.08081 1.6417,5.266495 2.4626,11.481739 2.4627,18.645749 z m -17.6543,0.89551 c -10e-5,-4.34956 -0.3412,-8.304718 -1.0235,-11.865477 -0.6823,-3.560653 -1.8443,-6.609641 -3.486,-9.146973 -1.6419,-2.537207 -3.8273,-4.498794 -6.5564,-5.884766 -2.7293,-1.385835 -6.1407,-2.078787 -10.2344,-2.078857 -4.1365,7e-5 -7.5906,0.778309 -10.3623,2.334717 -2.7719,1.556544 -5.0106,3.6354 -6.7163,6.236572 -1.7058,2.601296 -2.9105,5.639623 -3.614,9.11499 -0.7037,3.475473 -1.0555,7.153444 -1.0555,11.033934 0,4.52022 0.3412,8.58198 1.0235,12.1853 0.6822,3.60338 1.8336,6.68435 3.4541,9.24292 1.6204,2.55862 3.7952,4.50954 6.5244,5.85279 2.7291,1.34327 6.1619,2.0149 10.2983,2.01489 4.1364,10e-6 7.5905,-0.76756 10.3623,-2.30273 2.7718,-1.53514 5.0106,-3.62466 6.7163,-6.26856 1.7057,-2.64386 2.9104,-5.72483 3.6141,-9.24292 0.7035,-3.51803 1.0553,-7.25997 1.0554,-11.22583 z"
           style="font-size:131px;font-variant:normal;font-weight:bold;font-stretch:normal;fill:#ffffff;fill-opacity:1;font-family:Calibri;-inkscape-font-specification:Calibri Bold"
           id="path3854"
           inkscape:connector-curvature="0" />
        <path
           d="m 3427.063,91.569426 c -1e-4,4.648165 -0.725,8.763234 -2.1748,12.345214 -1.4499,3.58207 -3.5608,6.59908 -6.3325,9.05103 -2.7719,2.45202 -6.1727,4.31765 -10.2024,5.59692 -4.0299,1.27933 -8.7739,1.91897 -14.2322,1.91895 l -6.9082,0 0,26.41748 c 0,0.42643 -0.1386,0.81022 -0.4158,1.15136 -0.2772,0.34115 -0.7356,0.61833 -1.3752,0.83155 -0.6397,0.21321 -1.4926,0.38378 -2.5586,0.51171 -1.0661,0.12793 -2.4307,0.1919 -4.0938,0.1919 -1.6204,0 -2.9743,-0.064 -4.0617,-0.1919 -1.0875,-0.12793 -1.951,-0.2985 -2.5906,-0.51171 -0.6397,-0.21322 -1.0874,-0.4904 -1.3433,-0.83155 -0.2558,-0.34114 -0.3838,-0.72493 -0.3838,-1.15136 l 0,-74.455082 c 0,-2.004154 0.5224,-3.507326 1.5672,-4.509522 1.0447,-1.002034 2.42,-1.503091 4.1257,-1.503174 l 19.5093,0 c 1.9615,8.3e-5 3.8272,0.07471 5.5969,0.223877 1.7697,0.149334 3.8912,0.469158 6.3645,0.959473 2.4733,0.490478 4.9786,1.396646 7.5159,2.718506 2.5372,1.322017 4.7013,2.995762 6.4924,5.02124 1.791,2.025625 3.1555,4.392322 4.0938,7.100098 0.938,2.707909 1.4071,5.746236 1.4072,9.11499 z m -17.5903,1.215332 c -10e-5,-2.89968 -0.5118,-5.287699 -1.5352,-7.164063 -1.0235,-1.876236 -2.2815,-3.26214 -3.7739,-4.157715 -1.4926,-0.895439 -3.0597,-1.460461 -4.7014,-1.695068 -1.6418,-0.234468 -3.3369,-0.351737 -5.0852,-0.351807 l -7.1641,0 0,28.080565 7.5478,0 c 2.6865,4e-5 4.936,-0.36242 6.7483,-1.0874 1.8123,-0.72489 3.2942,-1.73767 4.4456,-3.03833 1.1513,-1.30057 2.0255,-2.85705 2.6225,-4.669434 0.597,-1.812285 0.8955,-3.784532 0.8956,-5.916748 z"
           style="font-size:131px;font-variant:normal;font-weight:bold;font-stretch:normal;fill:#ffffff;fill-opacity:1;font-family:Calibri;-inkscape-font-specification:Calibri Bold"
           id="path3856"
           inkscape:connector-curvature="0" />
        <path
           d="m 3489.3008,142.61337 c -1e-4,1.23666 -0.053,2.27076 -0.1599,3.1023 -0.1067,0.83154 -0.2666,1.50317 -0.4798,2.01489 -0.2132,0.51172 -0.4798,0.88485 -0.7995,1.11938 -0.3199,0.23454 -0.6717,0.35181 -1.0554,0.35181 l -41.5772,0 c -1.4072,0 -2.5906,-0.41577 -3.55,-1.24731 -0.9595,-0.83155 -1.4393,-2.18547 -1.4393,-4.06177 l 0,-72.152346 c 0,-1.876223 0.4798,-3.230144 1.4393,-4.061767 0.9594,-0.831461 2.1428,-1.247232 3.55,-1.247315 l 41.3213,0 c 0.3837,8.3e-5 0.7249,0.106691 1.0234,0.319824 0.2985,0.213299 0.5543,0.586427 0.7676,1.119385 0.2132,0.533121 0.3731,1.215412 0.4797,2.046875 0.1066,0.831622 0.1599,1.88704 0.16,3.16626 -1e-4,1.194085 -0.053,2.206861 -0.16,3.03833 -0.1066,0.831615 -0.2665,1.503245 -0.4797,2.014893 -0.2133,0.511789 -0.4691,0.884917 -0.7676,1.119384 -0.2985,0.234608 -0.6397,0.351877 -1.0234,0.351807 l -29.5518,0 0,20.212891 25.0103,0 c 0.3837,4.9e-5 0.7355,0.117318 1.0554,0.351809 0.3198,0.23458 0.5863,0.59705 0.7996,1.0874 0.2131,0.49044 0.373,1.15141 0.4797,1.98291 0.1066,0.83159 0.1599,1.84436 0.1599,3.03833 0,1.2367 -0.053,2.26013 -0.1599,3.07031 -0.1067,0.81026 -0.2666,1.46057 -0.4797,1.95093 -0.2133,0.49043 -0.4798,0.84224 -0.7996,1.05542 -0.3199,0.21325 -0.6717,0.31986 -1.0554,0.31982 l -25.0103,0 0,23.34717 29.8077,0 c 0.3837,2e-5 0.7355,0.11728 1.0554,0.35181 0.3197,0.23455 0.5863,0.60768 0.7995,1.11938 0.2132,0.51173 0.3731,1.18336 0.4798,2.0149 0.1065,0.83155 0.1598,1.86565 0.1599,3.10229 z"
           style="font-size:131px;font-variant:normal;font-weight:bold;font-stretch:normal;fill:#ffffff;fill-opacity:1;font-family:Calibri;-inkscape-font-specification:Calibri Bold"
           id="path3858"
           inkscape:connector-curvature="0" />
        <path
           d="m 3565.6108,147.02695 c 0,0.46907 -0.085,0.86352 -0.2558,1.18334 -0.1707,0.31983 -0.5758,0.58635 -1.2154,0.79957 -0.6397,0.21321 -1.5778,0.36246 -2.8144,0.44775 -1.2367,0.0853 -2.9211,0.12793 -5.0532,0.12793 -1.7911,0 -3.2196,-0.0426 -4.2857,-0.12793 -1.0661,-0.0853 -1.9083,-0.2452 -2.5266,-0.47974 -0.6184,-0.23453 -1.0555,-0.53304 -1.3113,-0.8955 -0.2559,-0.36247 -0.4691,-0.79956 -0.6396,-1.31128 l -7.4199,-18.48584 c -0.8956,-2.0895 -1.7698,-3.94448 -2.6226,-5.56495 -0.8529,-1.62041 -1.8017,-2.97433 -2.8464,-4.06176 -1.0448,-1.08737 -2.2495,-1.90825 -3.614,-2.46265 -1.3647,-0.55433 -2.9425,-0.83151 -4.7334,-0.83154 l -5.2452,0 0,31.53467 c 0,0.42643 -0.1386,0.81022 -0.4157,1.15136 -0.2772,0.34115 -0.7356,0.61833 -1.3753,0.83155 -0.6396,0.21321 -1.4925,0.38378 -2.5586,0.51171 -1.0661,0.12793 -2.4306,0.1919 -4.0937,0.1919 -1.6205,0 -2.9744,-0.064 -4.0618,-0.1919 -1.0874,-0.12793 -1.9509,-0.2985 -2.5906,-0.51171 -0.6396,-0.21322 -1.0874,-0.4904 -1.3432,-0.83155 -0.2559,-0.34114 -0.3838,-0.72493 -0.3838,-1.15136 l 0,-75.158696 c 0,-1.876223 0.4797,-3.230144 1.4392,-4.061767 0.9595,-0.831461 2.1428,-1.247232 3.55,-1.247315 l 21.4283,0 c 2.1747,8.3e-5 3.9658,0.04273 5.373,0.12793 1.4072,0.08537 2.6865,0.191977 3.8379,0.319824 3.3261,0.469157 6.3218,1.279378 8.9871,2.430664 2.6651,1.151446 4.9252,2.654618 6.7802,4.509522 1.855,1.855054 3.2728,4.051178 4.2537,6.588379 0.9807,2.537338 1.4711,5.447735 1.4712,8.731201 -1e-4,2.771867 -0.3519,5.298476 -1.0554,7.579834 -0.7037,2.281463 -1.7378,4.317674 -3.1023,6.108644 -1.3647,1.79106 -3.0491,3.34753 -5.0532,4.66943 -2.0043,1.32198 -4.2857,2.38806 -6.8443,3.19824 1.2366,0.59705 2.3986,1.32198 3.4861,2.17481 1.0874,0.8529 2.1108,1.887 3.0703,3.10229 0.9594,1.21537 1.8656,2.60127 2.7185,4.15772 0.8528,1.5565 1.6844,3.31554 2.4947,5.2771 l 6.9721,16.31103 c 0.6396,1.62045 1.066,2.8038 1.2793,3.55005 0.2132,0.74626 0.3198,1.33261 0.3198,1.75904 z m -21.684,-56.161137 c -1e-4,-2.729106 -0.6184,-5.031838 -1.855,-6.908204 -1.2367,-1.876235 -3.2623,-3.198173 -6.0767,-3.96582 -0.8529,-0.213147 -1.823,-0.383719 -2.9104,-0.511719 -1.0874,-0.12786 -2.5906,-0.191824 -4.5095,-0.191894 l -7.5479,0 0,23.475094 8.5713,0 c 2.388,5e-5 4.4775,-0.28779 6.2686,-0.86352 1.791,-0.57564 3.2835,-1.38586 4.4775,-2.430666 1.194,-1.044708 2.0895,-2.292022 2.6866,-3.741943 0.5969,-1.449815 0.8954,-3.070256 0.8955,-4.861328 z"
           style="font-size:131px;font-variant:normal;font-weight:bold;font-stretch:normal;fill:#ffffff;fill-opacity:1;font-family:Calibri;-inkscape-font-specification:Calibri Bold"
           id="path3860"
           inkscape:connector-curvature="0" />
        <path
           d="m 3645.6948,142.9332 c 0.5117,1.53516 0.8315,2.75049 0.9595,3.64599 0.1278,0.89551 -0.043,1.56714 -0.5117,2.01489 -0.4692,0.44776 -1.3007,0.72494 -2.4947,0.83155 -1.194,0.1066 -2.8358,0.15991 -4.9252,0.15991 -2.1749,0 -3.87,-0.032 -5.0852,-0.096 -1.2154,-0.064 -2.1429,-0.19189 -2.7825,-0.38379 -0.6397,-0.19189 -1.0875,-0.45841 -1.3433,-0.79956 -0.2559,-0.34114 -0.4691,-0.7889 -0.6396,-1.34326 l -5.565,-16.63086 -31.0869,0 -5.2451,16.18311 c -0.1706,0.597 -0.3945,1.09806 -0.6716,1.50317 -0.2772,0.40511 -0.725,0.72494 -1.3433,0.95947 -0.6183,0.23454 -1.4925,0.39445 -2.6226,0.47974 -1.13,0.0853 -2.6119,0.12793 -4.4455,0.12793 -1.9616,0 -3.4968,-0.064 -4.6055,-0.1919 -1.1087,-0.12793 -1.8763,-0.43709 -2.3027,-0.92749 -0.4264,-0.49039 -0.5757,-1.18334 -0.4478,-2.07885 0.128,-0.89551 0.4478,-2.08952 0.9595,-3.58203 l 25.522,-73.431645 c 0.2558,-0.724854 0.5543,-1.311198 0.8955,-1.759033 0.3411,-0.447672 0.8848,-0.788818 1.6311,-1.023438 0.7462,-0.234455 1.7803,-0.383706 3.1023,-0.447754 1.3219,-0.06388 3.0703,-0.09586 5.2451,-0.09595 2.5159,8.3e-5 4.5201,0.03207 6.0127,0.09595 1.4925,0.06405 2.6545,0.213299 3.4861,0.447754 0.8315,0.23462 1.4285,0.586427 1.791,1.05542 0.3624,0.469157 0.6716,1.108805 0.9275,1.918946 z m -37.9951,-60.702641 -0.064,0 -11.7055,35.180661 23.4751,0 z"
           style="font-size:131px;font-variant:normal;font-weight:bold;font-stretch:normal;fill:#ffffff;fill-opacity:1;font-family:Calibri;-inkscape-font-specification:Calibri Bold"
           id="path3862"
           inkscape:connector-curvature="0" />
        <path
           d="m 3712.2822,73.339445 c 0,1.236729 -0.053,2.292147 -0.1599,3.16626 -0.1067,0.874258 -0.2666,1.577871 -0.4797,2.11084 -0.2133,0.53311 -0.4798,0.92756 -0.7996,1.18335 -0.3199,0.255928 -0.6717,0.383858 -1.0554,0.383789 l -20.7246,0 0,66.715336 c -1e-4,0.42643 -0.1386,0.81022 -0.4158,1.15136 -0.2772,0.34115 -0.7356,0.61833 -1.3752,0.83155 -0.6397,0.21321 -1.5032,0.38378 -2.5906,0.51171 -1.0874,0.12793 -2.4414,0.1919 -4.0618,0.1919 -1.6204,0 -2.9744,-0.064 -4.0617,-0.1919 -1.0875,-0.12793 -1.951,-0.2985 -2.5906,-0.51171 -0.6397,-0.21322 -1.0981,-0.4904 -1.3753,-0.83155 -0.2772,-0.34114 -0.4158,-0.72493 -0.4157,-1.15136 l 0,-66.715336 -20.7246,0 c -0.4265,6.9e-5 -0.7889,-0.127861 -1.0874,-0.383789 -0.2985,-0.25579 -0.5544,-0.65024 -0.7676,-1.18335 -0.2132,-0.532969 -0.3731,-1.236582 -0.4798,-2.11084 -0.1066,-0.874113 -0.1599,-1.929531 -0.1599,-3.16626 0,-1.279219 0.053,-2.366621 0.1599,-3.262207 0.1067,-0.895428 0.2666,-1.609701 0.4798,-2.142822 0.2132,-0.532959 0.4691,-0.916747 0.7676,-1.151367 0.2985,-0.234455 0.6609,-0.351724 1.0874,-0.351807 l 58.3359,0 c 0.3837,8.3e-5 0.7355,0.117352 1.0554,0.351807 0.3198,0.23462 0.5863,0.618408 0.7996,1.151367 0.2131,0.533121 0.373,1.247394 0.4797,2.142822 0.1066,0.895586 0.1599,1.982988 0.1599,3.262207 z"
           style="font-size:131px;font-variant:normal;font-weight:bold;font-stretch:normal;fill:#ffffff;fill-opacity:1;font-family:Calibri;-inkscape-font-specification:Calibri Bold"
           id="path3864"
           inkscape:connector-curvature="0" />
        <path
           d="m 3739.0835,146.89902 c 0,0.42643 -0.1386,0.81022 -0.4158,1.15136 -0.2772,0.34115 -0.7356,0.61833 -1.3752,0.83155 -0.6397,0.21321 -1.4926,0.38378 -2.5586,0.51171 -1.0661,0.12793 -2.4307,0.1919 -4.0938,0.1919 -1.6204,0 -2.9743,-0.064 -4.0617,-0.1919 -1.0874,-0.12793 -1.951,-0.2985 -2.5906,-0.51171 -0.6397,-0.21322 -1.0981,-0.4904 -1.3753,-0.83155 -0.2771,-0.34114 -0.4157,-0.72493 -0.4157,-1.15136 l 0,-78.165043 c 0,-0.426352 0.1386,-0.810141 0.4157,-1.151368 0.2772,-0.341063 0.7463,-0.618244 1.4073,-0.831543 0.6609,-0.213133 1.5245,-0.383706 2.5906,-0.511718 1.066,-0.127847 2.4093,-0.191812 4.0297,-0.191895 1.6631,8.3e-5 3.0277,0.06405 4.0938,0.191895 1.066,0.128012 1.9189,0.298585 2.5586,0.511718 0.6396,0.213299 1.098,0.49048 1.3752,0.831543 0.2772,0.341227 0.4158,0.725016 0.4158,1.151368 z"
           style="font-size:131px;font-variant:normal;font-weight:bold;font-stretch:normal;fill:#ffffff;fill-opacity:1;font-family:Calibri;-inkscape-font-specification:Calibri Bold"
           id="path3866"
           inkscape:connector-curvature="0" />
        <path
           d="m 3831.7046,106.85702 c -1e-4,6.8656 -0.853,13.00622 -2.5586,18.42188 -1.7058,5.41571 -4.2431,10.01051 -7.6118,13.78442 -3.3689,3.77393 -7.5373,6.65235 -12.5051,8.63526 -4.968,1.98291 -10.7142,2.97436 -17.2386,2.97436 -6.4391,0 -12.0574,-0.8422 -16.8547,-2.52661 -4.7974,-1.6844 -8.7952,-4.25366 -11.9934,-7.70776 -3.1983,-3.45409 -5.597,-7.84634 -7.1961,-13.17676 -1.5991,-5.33038 -2.3986,-11.64157 -2.3986,-18.9336 0,-6.69493 0.8528,-12.718285 2.5586,-18.070064 1.7057,-5.35166 4.2429,-9.903821 7.6118,-13.656494 3.3688,-3.752527 7.5371,-6.630943 12.5051,-8.635254 4.9679,-2.004148 10.7354,-3.006263 17.3025,-3.006347 6.2685,8.4e-5 11.8014,0.831626 16.5989,2.494629 4.7973,1.663166 8.8057,4.221757 12.0254,7.675781 3.2194,3.454172 5.6501,7.814438 7.2919,13.08081 1.6417,5.266495 2.4626,11.481739 2.4627,18.645749 z m -17.6543,0.89551 c -10e-5,-4.34956 -0.3412,-8.304718 -1.0234,-11.865477 -0.6824,-3.560653 -1.8444,-6.609641 -3.4861,-9.146973 -1.6419,-2.537207 -3.8273,-4.498794 -6.5564,-5.884766 -2.7292,-1.385835 -6.1407,-2.078787 -10.2344,-2.078857 -4.1364,7e-5 -7.5905,0.778309 -10.3623,2.334717 -2.7718,1.556544 -5.0106,3.6354 -6.7163,6.236572 -1.7058,2.601296 -2.9104,5.639623 -3.614,9.11499 -0.7037,3.475473 -1.0555,7.153444 -1.0554,11.033934 -10e-5,4.52022 0.3411,8.58198 1.0234,12.1853 0.6823,3.60338 1.8336,6.68435 3.4541,9.24292 1.6204,2.55862 3.7952,4.50954 6.5244,5.85279 2.7291,1.34327 6.1619,2.0149 10.2983,2.01489 4.1364,10e-6 7.5905,-0.76756 10.3624,-2.30273 2.7717,-1.53514 5.0105,-3.62466 6.7163,-6.26856 1.7056,-2.64386 2.9103,-5.72483 3.614,-9.24292 0.7035,-3.51803 1.0553,-7.25997 1.0554,-11.22583 z"
           style="font-size:131px;font-variant:normal;font-weight:bold;font-stretch:normal;fill:#ffffff;fill-opacity:1;font-family:Calibri;-inkscape-font-specification:Calibri Bold"
           id="path3868"
           inkscape:connector-curvature="0" />
        <path
           d="m 3914.0273,143.31698 c 0,0.9808 -0.1706,1.85499 -0.5117,2.62256 -0.3412,0.76758 -0.7996,1.40723 -1.3752,1.91895 -0.5758,0.51172 -1.2581,0.88485 -2.0469,1.11938 -0.789,0.23454 -1.5885,0.35181 -2.3987,0.35181 l -7.164,0 c -1.4926,0 -2.7826,-0.14925 -3.8699,-0.44775 -1.0875,-0.29851 -2.0896,-0.84221 -3.0064,-1.63111 -0.9168,-0.78889 -1.8017,-1.85497 -2.6545,-3.19824 -0.8529,-1.34326 -1.8124,-3.08096 -2.8784,-5.21313 l -20.5967,-38.69874 c -1.194,-2.302678 -2.4094,-4.786644 -3.646,-7.451899 -1.2367,-2.665143 -2.3454,-5.255717 -3.3262,-7.771729 l -0.1279,0 c 0.1706,3.070374 0.2985,6.130022 0.3838,9.178955 0.085,3.049043 0.1279,6.193983 0.1279,9.434813 l 0,43.3042 c 0,0.42644 -0.1173,0.81022 -0.3518,1.15137 -0.2345,0.34114 -0.6397,0.62899 -1.2153,0.86352 -0.5757,0.23454 -1.354,0.41577 -2.3347,0.5437 -0.9808,0.12793 -2.2388,0.1919 -3.774,0.1919 -1.4925,0 -2.7291,-0.064 -3.7099,-0.1919 -0.9808,-0.12793 -1.7484,-0.30916 -2.3028,-0.5437 -0.5543,-0.23453 -0.9381,-0.52238 -1.1513,-0.86352 -0.2132,-0.34115 -0.3199,-0.72493 -0.3198,-1.15137 l 0,-74.391112 c -10e-5,-2.004154 0.5863,-3.507326 1.759,-4.509522 1.1727,-1.002034 2.6119,-1.503091 4.3176,-1.503174 l 9.0191,0 c 1.6204,8.3e-5 2.985,0.138673 4.0937,0.415772 1.1087,0.277263 2.1002,0.735677 2.9744,1.375244 0.8741,0.639729 1.695,1.524575 2.4626,2.654541 0.7676,1.130123 1.5565,2.526687 2.3667,4.189697 l 16.1192,30.255374 c 0.9381,1.8337 1.8655,3.63537 2.7824,5.40503 0.9168,1.76973 1.8017,3.53942 2.6546,5.30908 0.8528,1.76972 1.6843,3.50743 2.4946,5.21313 0.8102,1.70576 1.5991,3.41149 2.3667,5.11719 l 0.064,0 c -0.128,-2.985 -0.224,-6.09795 -0.2879,-9.33887 -0.064,-3.24085 -0.096,-6.33248 -0.096,-9.2749 l 0,-38.826659 c -1e-4,-0.426351 0.1278,-0.81014 0.3838,-1.151367 0.2558,-0.341064 0.6822,-0.639566 1.2793,-0.895508 0.5969,-0.255777 1.3858,-0.43701 2.3667,-0.543701 0.9807,-0.106525 2.2387,-0.159829 3.7739,-0.159912 1.4498,8.3e-5 2.6651,0.05339 3.646,0.159912 0.9807,0.106691 1.7376,0.287924 2.2707,0.543701 0.533,0.255942 0.9061,0.554444 1.1194,0.895508 0.2132,0.341227 0.3198,0.725016 0.3198,1.151367 z"
           style="font-size:131px;font-variant:normal;font-weight:bold;font-stretch:normal;fill:#ffffff;fill-opacity:1;font-family:Calibri;-inkscape-font-specification:Calibri Bold"
           id="path3870"
           inkscape:connector-curvature="0" />
        <path
           d="m 3338.0176,297.39014 c -1e-4,4.88088 -0.9093,9.16359 -2.7276,12.84815 -1.8184,3.68458 -4.2827,6.75904 -7.393,9.22338 -3.1104,2.46436 -6.7471,4.31861 -10.9102,5.56275 -4.1631,1.24414 -8.6133,1.86621 -13.3506,1.86621 -3.2061,0 -6.1848,-0.26319 -8.9362,-0.78955 -2.7515,-0.52637 -5.18,-1.1604 -7.2854,-1.9021 -2.1055,-0.7417 -3.8641,-1.51929 -5.2757,-2.33277 -1.4116,-0.81347 -2.4285,-1.53124 -3.0505,-2.15332 -0.6221,-0.62206 -1.0647,-1.51928 -1.3279,-2.69165 -0.2632,-1.17235 -0.3948,-2.85912 -0.3948,-5.0603 0,-1.48338 0.048,-2.72752 0.1436,-3.73242 0.096,-1.00487 0.2512,-1.81834 0.4665,-2.44043 0.2154,-0.62205 0.5025,-1.06468 0.8614,-1.32788 0.3588,-0.26316 0.7775,-0.39476 1.2561,-0.39478 0.6699,2e-5 1.6149,0.3948 2.8352,1.18433 1.2202,0.78957 2.7873,1.66286 4.7014,2.61987 1.914,0.95705 4.1989,1.83034 6.8547,2.61988 2.6558,0.78956 5.7302,1.18434 9.2234,1.18432 2.2968,2e-5 4.3545,-0.27513 6.1729,-0.82544 1.8183,-0.55028 3.3615,-1.32786 4.6296,-2.33276 1.268,-1.00487 2.237,-2.24901 2.907,-3.73242 0.6699,-1.48338 1.0048,-3.13426 1.0049,-4.95264 -10e-5,-2.10544 -0.5743,-3.91184 -1.7227,-5.41919 -1.1485,-1.50729 -2.6438,-2.84713 -4.4861,-4.01953 -1.8423,-1.17233 -3.9358,-2.27291 -6.2805,-3.30176 -2.3448,-1.02877 -4.7613,-2.11739 -7.2495,-3.26587 -2.4883,-1.14839 -4.9048,-2.45235 -7.2495,-3.91186 -2.3448,-1.45943 -4.4383,-3.20601 -6.2805,-5.23975 -1.8423,-2.03364 -3.3377,-4.43818 -4.4861,-7.21362 -1.1485,-2.77533 -1.7227,-6.10101 -1.7227,-9.97705 0,-4.45013 0.8255,-8.36199 2.4763,-11.7356 1.6509,-3.37345 3.876,-6.17276 6.6753,-8.39795 2.7993,-2.225 6.1011,-3.88785 9.9053,-4.98852 3.8042,-1.10049 7.8357,-1.65079 12.0945,-1.65088 2.2011,9e-5 4.4023,0.16757 6.6035,0.50244 2.2011,0.33505 4.2587,0.78964 6.1729,1.36377 1.914,0.57431 3.6127,1.22031 5.0962,1.93799 1.4833,0.71786 2.4642,1.316 2.9428,1.79443 0.4785,0.47861 0.8015,0.88534 0.969,1.22022 0.1674,0.33504 0.311,0.77767 0.4307,1.32788 0.1195,0.55038 0.2033,1.24422 0.2512,2.08154 0.048,0.83749 0.072,1.87826 0.072,3.12231 -1e-4,1.38778 -0.036,2.56014 -0.1077,3.51709 -0.072,0.95711 -0.1915,1.74666 -0.3589,2.36866 -0.1675,0.62214 -0.4068,1.07673 -0.7177,1.36377 -0.3111,0.28718 -0.7298,0.43073 -1.2562,0.43066 -0.5264,7e-5 -1.3638,-0.33489 -2.5122,-1.00488 -1.1485,-0.66985 -2.5601,-1.39959 -4.2348,-2.18921 -1.6749,-0.78948 -3.6129,-1.50725 -5.814,-2.15332 -2.2012,-0.64592 -4.6177,-0.96892 -7.2495,-0.969 -2.0577,8e-5 -3.8521,0.2513 -5.3833,0.75367 -1.5313,0.50252 -2.8113,1.19636 -3.8401,2.08154 -1.0288,0.88533 -1.7944,1.95003 -2.2969,3.19409 -0.5024,1.24421 -0.7537,2.56013 -0.7536,3.94775 -10e-5,2.05769 0.5622,3.84016 1.6867,5.34742 1.1245,1.50738 2.6318,2.84723 4.522,4.01953 1.8901,1.17242 4.0315,2.27301 6.4241,3.30176 2.3925,1.02886 4.833,2.11748 7.3213,3.26586 2.4882,1.1485 4.9286,2.45245 7.3213,3.91187 2.3925,1.45952 4.5219,3.2061 6.3881,5.23975 1.8662,2.03373 3.3735,4.42631 4.522,7.17773 1.1484,2.7515 1.7226,5.99344 1.7227,9.72583 z"
           style="font-size:147px;font-variant:normal;font-weight:bold;font-stretch:normal;fill:#ffffff;fill-opacity:1;font-family:Calibri;-inkscape-font-specification:Calibri Bold"
           id="path3872"
           inkscape:connector-curvature="0" />
        <path
           d="m 3424.9399,322.65577 c 0,0.47851 -0.1556,0.90918 -0.4665,1.29199 -0.3111,0.38281 -0.8255,0.69385 -1.5432,0.9331 -0.7179,0.23926 -1.6749,0.43067 -2.8711,0.57422 -1.1964,0.14356 -2.7037,0.21533 -4.522,0.21533 -1.8663,0 -3.4095,-0.0718 -4.6296,-0.21533 -1.2203,-0.14355 -2.1773,-0.33496 -2.8711,-0.57422 -0.6939,-0.23925 -1.1964,-0.55029 -1.5073,-0.9331 -0.3111,-0.38281 -0.4667,-0.81348 -0.4666,-1.29199 l 0,-37.53956 -34.7402,0 0,37.53956 c -10e-5,0.47851 -0.1436,0.90918 -0.4307,1.29199 -0.2871,0.38281 -0.7896,0.69385 -1.5073,0.9331 -0.7178,0.23926 -1.6749,0.43067 -2.8711,0.57422 -1.1963,0.14356 -2.7276,0.21533 -4.5938,0.21533 -1.8183,0 -3.3376,-0.0718 -4.5578,-0.21533 -1.2203,-0.14355 -2.1892,-0.33496 -2.907,-0.57422 -0.7178,-0.23925 -1.2322,-0.55029 -1.5432,-0.9331 -0.3111,-0.38281 -0.4666,-0.81348 -0.4666,-1.29199 l 0,-87.71192 c 0,-0.47842 0.1555,-0.90909 0.4666,-1.29199 0.311,-0.38272 0.8254,-0.69376 1.5432,-0.93311 0.7178,-0.23916 1.6867,-0.43057 2.907,-0.57421 1.2202,-0.14347 2.7395,-0.21524 4.5578,-0.21534 1.8662,1e-4 3.3975,0.0719 4.5938,0.21534 1.1962,0.14364 2.1533,0.33505 2.8711,0.57421 0.7177,0.23935 1.2202,0.55039 1.5073,0.93311 0.2871,0.3829 0.4306,0.81357 0.4307,1.29199 l 0,34.09424 34.7402,0 0,-34.09424 c -1e-4,-0.47842 0.1555,-0.90909 0.4666,-1.29199 0.3109,-0.38272 0.8134,-0.69376 1.5073,-0.93311 0.6938,-0.23916 1.6508,-0.43057 2.8711,-0.57421 1.2201,-0.14347 2.7633,-0.21524 4.6296,-0.21534 1.8183,1e-4 3.3256,0.0719 4.522,0.21534 1.1962,0.14364 2.1532,0.33505 2.8711,0.57421 0.7177,0.23935 1.2321,0.55039 1.5432,0.93311 0.3109,0.3829 0.4665,0.81357 0.4665,1.29199 z"
           style="font-size:147px;font-variant:normal;font-weight:bold;font-stretch:normal;fill:#ffffff;fill-opacity:1;font-family:Calibri;-inkscape-font-specification:Calibri Bold"
           id="path3874"
           inkscape:connector-curvature="0" />
        <path
           d="m 3521.2651,318.20557 c 0.5742,1.72266 0.9331,3.08643 1.0767,4.09131 0.1435,1.00488 -0.048,1.75855 -0.5742,2.26099 -0.5265,0.50244 -1.4596,0.81347 -2.7993,0.9331 -1.34,0.11963 -3.1822,0.17944 -5.5269,0.17944 -2.4405,0 -4.3426,-0.0359 -5.7063,-0.10766 -1.3638,-0.0718 -2.4046,-0.21533 -3.1223,-0.43067 -0.7178,-0.21533 -1.2203,-0.5144 -1.5073,-0.89721 -0.2872,-0.38281 -0.5265,-0.88525 -0.7178,-1.50733 l -6.2446,-18.66211 -34.8838,0 -5.8858,18.15967 c -0.1914,0.66993 -0.4426,1.23218 -0.7536,1.68677 -0.3111,0.45459 -0.8135,0.81348 -1.5074,1.07666 -0.6938,0.26318 -1.6748,0.44263 -2.9428,0.53833 -1.2681,0.0957 -2.9309,0.14355 -4.9885,0.14355 -2.2012,0 -3.9239,-0.0718 -5.168,-0.21533 -1.2442,-0.14355 -2.1055,-0.49048 -2.584,-1.04077 -0.4785,-0.55029 -0.646,-1.32788 -0.5024,-2.33276 0.1435,-1.00488 0.5024,-2.34472 1.0766,-4.01953 l 28.6392,-82.40039 c 0.2871,-0.81339 0.622,-1.47135 1.0049,-1.97388 0.3827,-0.50235 0.9928,-0.88516 1.8303,-1.14844 0.8374,-0.26309 1.9977,-0.43057 3.4812,-0.50244 1.4833,-0.0717 3.4453,-0.10757 5.8857,-0.10767 2.8232,1e-4 5.0722,0.036 6.7471,0.10767 1.6747,0.0719 2.9787,0.23935 3.9119,0.50244 0.933,0.26328 1.6029,0.65805 2.0097,1.18433 0.4067,0.52645 0.7536,1.24423 1.0408,2.15332 z m -42.6357,-68.1167 -0.072,0 -13.1352,39.47754 26.3422,0 z"
           style="font-size:147px;font-variant:normal;font-weight:bold;font-stretch:normal;fill:#ffffff;fill-opacity:1;font-family:Calibri;-inkscape-font-specification:Calibri Bold"
           id="path3876"
           inkscape:connector-curvature="0" />
        <path
           d="m 3611.3457,277.43604 c -10e-5,8.51762 -1.1126,15.80301 -3.3376,21.8562 -2.2252,6.05324 -5.4193,10.99391 -9.5823,14.82202 -4.1632,3.82813 -9.2235,6.63941 -15.1809,8.43384 -5.9576,1.79443 -13.0516,2.69165 -21.282,2.69165 l -22.1792,0 c -1.5791,0 -2.907,-0.46655 -3.9837,-1.39966 -1.0766,-0.9331 -1.615,-2.45239 -1.6149,-4.55786 l 0,-80.96484 c -1e-4,-2.10538 0.5383,-3.62467 1.6149,-4.55786 1.0767,-0.93302 2.4046,-1.39957 3.9837,-1.39966 l 23.8301,0 c 8.2782,9e-5 15.3005,0.96908 21.0666,2.90698 5.7661,1.93808 10.623,4.80917 14.5708,8.61328 3.9477,3.80428 6.9504,8.50569 9.0081,14.10425 2.0575,5.59869 3.0863,12.08257 3.0864,19.45166 z m -19.5234,0.646 c -10e-5,-4.4023 -0.5145,-8.4936 -1.5432,-12.27393 -1.0289,-3.78021 -2.6798,-7.05804 -4.9527,-9.8335 -2.273,-2.77532 -5.1919,-4.9406 -8.7568,-6.49585 -3.565,-1.55509 -8.2425,-2.33268 -14.0325,-2.33276 l -9.5464,0 0,63.16406 9.8335,0 c 5.1679,2e-5 9.5224,-0.6699 13.0635,-2.00976 3.541,-1.33983 6.4958,-3.36156 8.8645,-6.06519 2.3686,-2.70359 4.1391,-6.06516 5.3115,-10.08472 1.1723,-4.01949 1.7585,-8.70894 1.7586,-14.06835 z"
           style="font-size:147px;font-variant:normal;font-weight:bold;font-stretch:normal;fill:#ffffff;fill-opacity:1;font-family:Calibri;-inkscape-font-specification:Calibri Bold"
           id="path3878"
           inkscape:connector-curvature="0" />
        <path
           d="m 3710.4702,277.72315 c -1e-4,7.70414 -0.9571,14.59476 -2.8711,20.67187 -1.9141,6.07717 -4.7613,11.23317 -8.5415,15.46802 -3.7803,4.23487 -8.4578,7.46485 -14.0325,9.68994 -5.5747,2.2251 -12.0227,3.33765 -19.3439,3.33765 -7.2257,0 -13.5301,-0.94507 -18.9134,-2.83521 -5.3833,-1.89013 -9.8694,-4.77318 -13.4582,-8.64917 -3.5889,-3.87596 -6.2806,-8.80466 -8.075,-14.78613 -1.7944,-5.98141 -2.6916,-13.06344 -2.6916,-21.24609 0,-7.51264 0.957,-14.27167 2.8711,-20.2771 1.914,-6.0053 4.7612,-11.11345 8.5415,-15.32447 3.7802,-4.21085 8.4577,-7.44082 14.0324,-9.68994 5.5747,-2.24893 12.0466,-3.37344 19.4158,-3.37353 7.0341,9e-5 13.2429,0.9332 18.6262,2.79931 5.3833,1.86631 9.8813,4.7374 13.4942,8.61329 3.6127,3.87605 6.3402,8.76887 8.1826,14.67846 1.8422,5.90973 2.7633,12.88409 2.7634,20.9231 z m -19.8105,1.00488 c -1e-4,-4.88081 -0.3829,-9.31903 -1.1485,-13.3147 -0.7657,-3.99554 -2.0696,-7.41692 -3.9118,-10.26416 -1.8424,-2.84709 -4.2948,-5.04826 -7.3572,-6.60351 -3.0626,-1.5551 -6.8907,-2.33269 -11.4844,-2.33277 -4.6416,8e-5 -8.5176,0.87337 -11.6279,2.61988 -3.1104,1.74665 -5.6226,4.07942 -7.5366,6.99829 -1.9141,2.91901 -3.2659,6.32843 -4.0555,10.22827 -0.7895,3.89996 -1.1843,8.02715 -1.1843,12.38159 0,5.07231 0.3828,9.63017 1.1485,13.67359 0.7656,4.04348 2.0575,7.50075 3.8759,10.37182 1.8184,2.87112 4.2588,5.06032 7.3213,6.56763 3.0625,1.50734 6.9145,2.261 11.5562,2.26099 4.6415,10e-6 8.5175,-0.86132 11.6279,-2.58399 3.1103,-1.72264 5.6225,-4.06736 7.5366,-7.03418 1.914,-2.96677 3.2658,-6.42404 4.0554,-10.37182 0.7895,-3.94772 1.1843,-8.14669 1.1844,-12.59693 z"
           style="font-size:147px;font-variant:normal;font-weight:bold;font-stretch:normal;fill:#ffffff;fill-opacity:1;font-family:Calibri;-inkscape-font-specification:Calibri Bold"
           id="path3880"
           inkscape:connector-curvature="0" />
        <path
           d="m 3824.022,320.43067 c -0.2872,1.14844 -0.682,2.06958 -1.1844,2.76343 -0.5025,0.69384 -1.2562,1.22021 -2.2609,1.5791 -1.005,0.35888 -2.297,0.59814 -3.876,0.71777 -1.5792,0.11963 -3.589,0.17944 -6.0293,0.17944 -2.7276,0 -4.9169,-0.0598 -6.5676,-0.17944 -1.651,-0.11963 -2.955,-0.35889 -3.9119,-0.71777 -0.9571,-0.35889 -1.651,-0.88526 -2.0815,-1.5791 -0.4308,-0.69385 -0.7658,-1.61499 -1.0049,-2.76343 l -14.8579,-58.85742 -0.1436,0 -14.0684,58.85742 c -0.2393,1.10059 -0.5742,1.9978 -1.0048,2.69165 -0.4308,0.69385 -1.1126,1.23218 -2.0457,1.61499 -0.9331,0.38281 -2.2012,0.63403 -3.8042,0.75366 -1.6031,0.11963 -3.7205,0.17944 -6.3523,0.17944 -2.7754,0 -4.9885,-0.0598 -6.6394,-0.17944 -1.6509,-0.11963 -2.9549,-0.35889 -3.9119,-0.71777 -0.957,-0.35889 -1.6509,-0.88526 -2.0815,-1.5791 -0.4307,-0.69385 -0.7896,-1.61499 -1.0767,-2.76343 l -21.1025,-81.03662 c -0.4307,-1.72257 -0.6699,-3.07438 -0.7178,-4.05542 -0.048,-0.98087 0.2273,-1.73453 0.8255,-2.26099 0.5981,-0.52627 1.5791,-0.84927 2.9428,-0.96899 1.3638,-0.11954 3.2659,-0.17935 5.7063,-0.17945 2.249,1e-4 4.0315,0.036 5.3474,0.10767 1.3159,0.0719 2.3089,0.23935 2.9788,0.50244 0.6699,0.26328 1.1245,0.64609 1.3638,1.14844 0.2392,0.50253 0.4306,1.20834 0.5742,2.11743 l 16.2935,71.13135 0.072,0 16.9395,-70.62891 c 0.1913,-0.90909 0.4426,-1.65079 0.7536,-2.2251 0.311,-0.57412 0.8374,-1.01675 1.5791,-1.32788 0.7417,-0.31094 1.7585,-0.52627 3.0506,-0.64599 1.2919,-0.11954 3.0146,-0.17935 5.168,-0.17945 2.2968,1e-4 4.1271,0.0479 5.4909,0.14356 1.3637,0.0958 2.4165,0.29916 3.1582,0.61011 0.7416,0.31112 1.28,0.75375 1.615,1.32788 0.3349,0.57431 0.5981,1.33993 0.7896,2.29687 l 17.5136,70.62891 0.1436,0 16.2934,-70.91602 c 0.1435,-0.76553 0.3349,-1.42349 0.5743,-1.97388 0.2391,-0.5502 0.6937,-0.98086 1.3637,-1.29199 0.6698,-0.31094 1.6269,-0.52627 2.8711,-0.64599 1.2441,-0.11954 2.9906,-0.17935 5.2398,-0.17945 2.1053,1e-4 3.7442,0.0599 4.9167,0.17945 1.1723,0.11972 2.0216,0.44272 2.5481,0.96899 0.5263,0.52646 0.7536,1.30405 0.6819,2.33276 -0.072,1.0289 -0.3231,2.42856 -0.7537,4.19898 z"
           style="font-size:147px;font-variant:normal;font-weight:bold;font-stretch:normal;fill:#ffffff;fill-opacity:1;font-family:Calibri;-inkscape-font-specification:Calibri Bold"
           id="path3882"
           inkscape:connector-curvature="0" />
        <path
           d="m 3897.0195,289.99707 0,32.6587 c 0,0.47851 -0.1555,0.90918 -0.4665,1.29199 -0.3111,0.38281 -0.8255,0.69385 -1.5432,0.9331 -0.7179,0.23926 -1.6868,0.43067 -2.907,0.57422 -1.2203,0.14356 -2.7396,0.21533 -4.5579,0.21533 -1.8662,0 -3.3975,-0.0718 -4.5937,-0.21533 -1.1963,-0.14355 -2.1653,-0.33496 -2.907,-0.57422 -0.7417,-0.23925 -1.2561,-0.55029 -1.5432,-0.9331 -0.2872,-0.38281 -0.4307,-0.81348 -0.4307,-1.29199 l 0,-32.6587 -25.4092,-50.60302 c -0.9091,-1.77042 -1.4953,-3.14615 -1.7585,-4.1272 -0.2632,-0.98087 -0.1196,-1.72256 0.4307,-2.2251 0.5502,-0.50235 1.5671,-0.81338 3.0505,-0.9331 1.4834,-0.11954 3.541,-0.17935 6.1728,-0.17945 2.2012,1e-4 3.9597,0.0479 5.2757,0.14356 1.3159,0.0958 2.3566,0.27524 3.1223,0.53833 0.7656,0.26327 1.3278,0.6102 1.6868,1.04077 0.3588,0.43075 0.7057,0.98105 1.0407,1.65088 l 10.336,22.82519 c 1.0048,2.20124 1.9977,4.52204 2.9787,6.96241 0.9809,2.44048 1.9739,5.00054 2.9788,7.68017 l 0.1435,0 c 0.9092,-2.58393 1.8423,-5.09613 2.7994,-7.53662 0.9569,-2.44037 1.8901,-4.76117 2.7993,-6.9624 l 10.1924,-22.68164 c 0.2392,-0.76554 0.5382,-1.37564 0.8972,-1.83032 0.3588,-0.4545 0.8971,-0.82535 1.615,-1.11255 0.7177,-0.28702 1.6986,-0.47843 2.9428,-0.57422 1.2441,-0.0956 2.895,-0.14346 4.9527,-0.14356 2.7274,1e-4 4.8449,0.0599 6.3523,0.17945 1.5072,0.11972 2.536,0.43075 3.0864,0.9331 0.5502,0.50254 0.6818,1.2562 0.3948,2.26099 -0.2872,1.00497 -0.8614,2.36874 -1.7227,4.09131 z"
           style="font-size:147px;font-variant:normal;font-weight:bold;font-stretch:normal;fill:#ffffff;fill-opacity:1;font-family:Calibri;-inkscape-font-specification:Calibri Bold"
           id="path3884"
           inkscape:connector-curvature="0" />
        <path
           d="m 3336.6875,479.4045 c -1e-4,4.78127 -0.8907,8.97658 -2.6719,12.58594 -1.7813,3.60938 -4.1953,6.6211 -7.2422,9.03515 -3.0469,2.41407 -6.6094,4.23047 -10.6875,5.44922 -4.0781,1.21875 -8.4375,1.82813 -13.0781,1.82813 -3.1406,0 -6.0586,-0.25782 -8.7539,-0.77344 -2.6953,-0.51563 -5.0742,-1.13672 -7.1367,-1.86328 -2.0625,-0.72656 -3.7852,-1.48828 -5.168,-2.28516 -1.3828,-0.79687 -2.3789,-1.49999 -2.9883,-2.10937 -0.6093,-0.60937 -1.0429,-1.48828 -1.3007,-2.63672 -0.2579,-1.14843 -0.3868,-2.80077 -0.3868,-4.95703 0,-1.45311 0.047,-2.67186 0.1407,-3.65625 0.094,-0.98436 0.2461,-1.78123 0.457,-2.39063 0.2109,-0.60935 0.4922,-1.04295 0.8437,-1.30078 0.3516,-0.25779 0.7618,-0.3867 1.2305,-0.38672 0.6563,2e-5 1.582,0.38674 2.7774,1.16016 1.1953,0.77346 2.7304,1.62892 4.6054,2.5664 1.875,0.93752 4.1133,1.79299 6.7149,2.56641 2.6015,0.77345 5.6132,1.16017 9.0351,1.16016 2.25,1e-5 4.2656,-0.26952 6.0469,-0.8086 1.7812,-0.53904 3.2929,-1.30076 4.5352,-2.28515 1.2421,-0.98436 2.1913,-2.20311 2.8476,-3.65625 0.6562,-1.45311 0.9843,-3.07029 0.9844,-4.85157 -1e-4,-2.06247 -0.5626,-3.832 -1.6875,-5.30859 -1.1251,-1.47653 -2.5899,-2.78903 -4.3945,-3.9375 -1.8048,-1.1484 -3.8555,-2.22652 -6.1524,-3.23437 -2.2969,-1.00778 -4.6641,-2.07418 -7.1015,-3.19922 -2.4376,-1.12496 -4.8048,-2.4023 -7.1016,-3.83203 -2.2969,-1.42965 -4.3477,-3.14058 -6.1524,-5.13282 -1.8047,-1.99213 -3.2695,-4.3476 -4.3945,-7.0664 -1.125,-2.71869 -1.6875,-5.9765 -1.6875,-9.77344 0,-4.3593 0.8086,-8.19133 2.4258,-11.49609 1.6172,-3.30461 3.7969,-6.04679 6.5391,-8.22657 2.7421,-2.1796 5.9765,-3.8085 9.7031,-4.88672 3.7265,-1.07803 7.6757,-1.61709 11.8476,-1.61718 2.1562,9e-5 4.3125,0.16415 6.4688,0.49218 2.1562,0.32822 4.1718,0.77353 6.0469,1.33594 1.8749,0.56259 3.539,1.1954 4.9922,1.89844 1.453,0.70321 2.414,1.28915 2.8828,1.75781 0.4687,0.46884 0.7851,0.86728 0.9492,1.19531 0.164,0.32822 0.3046,0.76181 0.4219,1.30079 0.1171,0.53914 0.1991,1.21883 0.2461,2.03906 0.047,0.82039 0.07,1.83992 0.07,3.05859 -10e-5,1.35946 -0.035,2.50789 -0.1055,3.44531 -0.07,0.93758 -0.1876,1.71102 -0.3516,2.32032 -0.1641,0.60945 -0.3985,1.05476 -0.7031,1.33593 -0.3047,0.28133 -0.7149,0.42195 -1.2305,0.42188 -0.5156,7e-5 -1.336,-0.32805 -2.4609,-0.98438 -1.1251,-0.65617 -2.5079,-1.37101 -4.1484,-2.14453 -1.6407,-0.77336 -3.5391,-1.47648 -5.6953,-2.10937 -2.1563,-0.63274 -4.5235,-0.94914 -7.1016,-0.94922 -2.0157,8e-5 -3.7735,0.24617 -5.2734,0.73828 -1.5001,0.49227 -2.754,1.17195 -3.7618,2.03906 -1.0078,0.86727 -1.7578,1.91023 -2.25,3.12891 -0.4922,1.21882 -0.7383,2.50788 -0.7382,3.86719 -10e-5,2.01569 0.5507,3.76178 1.6523,5.23828 1.1015,1.47662 2.5781,2.78912 4.4297,3.9375 1.8515,1.14849 3.9492,2.22662 6.293,3.23437 2.3437,1.00787 4.7343,2.07428 7.1718,3.19922 2.4375,1.12505 4.8281,2.4024 7.1719,3.83203 2.3437,1.42974 4.4296,3.14067 6.2578,5.13282 1.8281,1.99223 3.3046,4.33597 4.4297,7.03125 1.1249,2.69534 1.6874,5.87112 1.6875,9.52734 z"
           style="font-size:144px;font-variant:normal;font-weight:bold;font-stretch:normal;fill:#ffffff;fill-opacity:1;font-family:Calibri;-inkscape-font-specification:Calibri Bold"
           id="path3886"
           inkscape:connector-curvature="0" />
        <path
           d="m 3369.3828,504.1545 c 0,0.46875 -0.1524,0.89063 -0.457,1.26562 -0.3047,0.37501 -0.8086,0.67969 -1.5117,0.91407 -0.7032,0.23437 -1.6407,0.42187 -2.8125,0.5625 -1.1719,0.14062 -2.6719,0.21093 -4.5,0.21093 -1.7813,0 -3.2696,-0.0703 -4.4649,-0.21093 -1.1953,-0.14063 -2.1445,-0.32813 -2.8476,-0.5625 -0.7032,-0.23438 -1.2071,-0.53906 -1.5118,-0.91407 -0.3047,-0.37499 -0.457,-0.79687 -0.457,-1.26562 l 0,-85.92188 c 0,-0.46866 0.1523,-0.89053 0.457,-1.26562 0.3047,-0.37491 0.8203,-0.6796 1.5469,-0.91406 0.7266,-0.23429 1.6758,-0.42179 2.8477,-0.5625 1.1718,-0.14054 2.6484,-0.21085 4.4297,-0.21094 1.8281,9e-5 3.3281,0.0704 4.5,0.21094 1.1718,0.14071 2.1093,0.32821 2.8125,0.5625 0.7031,0.23446 1.207,0.53915 1.5117,0.91406 0.3046,0.37509 0.457,0.79696 0.457,1.26562 z"
           style="font-size:144px;font-variant:normal;font-weight:bold;font-stretch:normal;fill:#ffffff;fill-opacity:1;font-family:Calibri;-inkscape-font-specification:Calibri Bold"
           id="path3888"
           inkscape:connector-curvature="0" />
        <path
           d="m 3449.8906,423.29512 c 0,1.35946 -0.059,2.51962 -0.1758,3.48047 -0.1172,0.96102 -0.293,1.73446 -0.5273,2.32032 -0.2344,0.58601 -0.5274,1.0196 -0.8789,1.30078 -0.3516,0.28132 -0.7384,0.42195 -1.1602,0.42187 l -22.7812,0 0,73.33594 c -1e-4,0.46875 -0.1524,0.89063 -0.457,1.26562 -0.3048,0.37501 -0.8087,0.67969 -1.5118,0.91407 -0.7031,0.23437 -1.6523,0.42187 -2.8476,0.5625 -1.1954,0.14062 -2.6836,0.21093 -4.4649,0.21093 -1.7812,0 -3.2695,-0.0703 -4.4648,-0.21093 -1.1953,-0.14063 -2.1446,-0.32813 -2.8477,-0.5625 -0.7031,-0.23438 -1.207,-0.53906 -1.5117,-0.91407 -0.3047,-0.37499 -0.457,-0.79687 -0.457,-1.26562 l 0,-73.33594 -22.7813,0 c -0.4687,8e-5 -0.8672,-0.14055 -1.1953,-0.42187 -0.3281,-0.28118 -0.6094,-0.71477 -0.8437,-1.30078 -0.2344,-0.58586 -0.4102,-1.3593 -0.5274,-2.32032 -0.1172,-0.96085 -0.1758,-2.12101 -0.1757,-3.48047 -1e-4,-1.40616 0.059,-2.60147 0.1757,-3.58593 0.1172,-0.98429 0.293,-1.76945 0.5274,-2.35547 0.2343,-0.58585 0.5156,-1.00772 0.8437,-1.26563 0.3281,-0.25772 0.7266,-0.38662 1.1953,-0.38672 l 64.125,0 c 0.4218,10e-5 0.8086,0.129 1.1602,0.38672 0.3515,0.25791 0.6445,0.67978 0.8789,1.26563 0.2343,0.58602 0.4101,1.37118 0.5273,2.35547 0.1172,0.98446 0.1758,2.17977 0.1758,3.58593 z"
           style="font-size:144px;font-variant:normal;font-weight:bold;font-stretch:normal;fill:#ffffff;fill-opacity:1;font-family:Calibri;-inkscape-font-specification:Calibri Bold"
           id="path3890"
           inkscape:connector-curvature="0" />
        <path
           d="m 3535.0391,472.79512 c -10e-5,5.57816 -0.8204,10.57034 -2.461,14.97657 -1.6407,4.40626 -4.0547,8.13282 -7.2422,11.17968 -3.1875,3.04688 -7.125,5.36719 -11.8125,6.96094 -4.6875,1.59375 -10.0781,2.39063 -16.1718,2.39063 -5.7188,0 -10.8516,-0.71485 -15.3985,-2.14453 -4.5469,-1.42969 -8.3906,-3.59766 -11.5312,-6.50391 -3.1407,-2.90624 -5.543,-6.52733 -7.2071,-10.86328 -1.664,-4.33592 -2.4961,-9.41013 -2.496,-15.22266 l 0,-55.33594 c -1e-4,-0.46866 0.1406,-0.89053 0.4218,-1.26562 0.2813,-0.37491 0.7852,-0.6796 1.5117,-0.91406 0.7266,-0.23429 1.6758,-0.42179 2.8477,-0.5625 1.1719,-0.14054 2.6719,-0.21085 4.5,-0.21094 1.7812,9e-5 3.2578,0.0704 4.4297,0.21094 1.1718,0.14071 2.1093,0.32821 2.8125,0.5625 0.7031,0.23446 1.207,0.53915 1.5117,0.91406 0.3047,0.37509 0.457,0.79696 0.457,1.26562 l 0,53.71875 c 0,3.60941 0.4453,6.73831 1.336,9.38672 0.8906,2.64846 2.1679,4.83987 3.832,6.57422 1.664,1.73439 3.6562,3.03517 5.9766,3.90235 2.3202,0.8672 4.9101,1.30079 7.7695,1.30078 2.9062,1e-5 5.5078,-0.4453 7.8047,-1.33594 2.2968,-0.89061 4.2421,-2.19139 5.8359,-3.90234 1.5937,-1.71092 2.8242,-3.82029 3.6914,-6.32813 0.8672,-2.50778 1.3007,-5.35544 1.3008,-8.54297 l 0,-54.77344 c -10e-5,-0.46866 0.1406,-0.89053 0.4219,-1.26562 0.2812,-0.37491 0.7734,-0.6796 1.4766,-0.91406 0.703,-0.23429 1.6522,-0.42179 2.8476,-0.5625 1.1952,-0.14054 2.6835,-0.21085 4.4649,-0.21094 1.7811,9e-5 3.246,0.0704 4.3945,0.21094 1.1483,0.14071 2.0741,0.32821 2.7773,0.5625 0.7031,0.23446 1.1953,0.53915 1.4766,0.91406 0.2812,0.37509 0.4218,0.79696 0.4219,1.26562 z"
           style="font-size:144px;font-variant:normal;font-weight:bold;font-stretch:normal;fill:#ffffff;fill-opacity:1;font-family:Calibri;-inkscape-font-specification:Calibri Bold"
           id="path3892"
           inkscape:connector-curvature="0" />
        <path
           d="m 3629.2578,499.79512 c 0.5624,1.68751 0.914,3.02345 1.0547,4.00782 0.1405,0.98437 -0.047,1.72265 -0.5625,2.21484 -0.5157,0.49219 -1.4298,0.79688 -2.7422,0.91406 -1.3126,0.11719 -3.1173,0.17578 -5.414,0.17578 -2.3907,0 -4.254,-0.0351 -5.5899,-0.10546 -1.336,-0.0703 -2.3555,-0.21094 -3.0586,-0.42188 -0.7032,-0.21094 -1.1954,-0.5039 -1.4765,-0.87891 -0.2814,-0.37499 -0.5157,-0.86718 -0.7032,-1.47656 l -6.1172,-18.28125 -34.1718,0 -5.7657,17.78906 c -0.1875,0.65626 -0.4336,1.20704 -0.7382,1.65235 -0.3048,0.44531 -0.7969,0.79687 -1.4766,1.05469 -0.6797,0.25781 -1.6406,0.43359 -2.8828,0.52734 -1.2422,0.0937 -2.8711,0.14062 -4.8867,0.14062 -2.1563,0 -3.8438,-0.0703 -5.0625,-0.21093 -1.2188,-0.14063 -2.0625,-0.48047 -2.5313,-1.01953 -0.4687,-0.53906 -0.6328,-1.30078 -0.4922,-2.28516 0.1406,-0.98437 0.4922,-2.29687 1.0547,-3.9375 l 28.0547,-80.71875 c 0.2812,-0.79679 0.6093,-1.44132 0.9844,-1.93359 0.3749,-0.4921 0.9726,-0.8671 1.7929,-1.125 0.8203,-0.25773 1.957,-0.42179 3.4102,-0.49219 1.4531,-0.0702 3.375,-0.10538 5.7656,-0.10547 2.7656,9e-5 4.9687,0.0353 6.6094,0.10547 1.6406,0.0704 2.9179,0.23446 3.832,0.49219 0.914,0.2579 1.5703,0.64462 1.9688,1.16015 0.3984,0.51572 0.7382,1.21884 1.0195,2.10938 z m -41.7656,-66.72656 -0.07,0 -12.8672,38.67188 25.8047,0 z"
           style="font-size:144px;font-variant:normal;font-weight:bold;font-stretch:normal;fill:#ffffff;fill-opacity:1;font-family:Calibri;-inkscape-font-specification:Calibri Bold"
           id="path3894"
           inkscape:connector-curvature="0" />
        <path
           d="m 3702.4531,423.29512 c 0,1.35946 -0.059,2.51962 -0.1758,3.48047 -0.1172,0.96102 -0.293,1.73446 -0.5273,2.32032 -0.2344,0.58601 -0.5274,1.0196 -0.8789,1.30078 -0.3516,0.28132 -0.7384,0.42195 -1.1602,0.42187 l -22.7812,0 0,73.33594 c -1e-4,0.46875 -0.1524,0.89063 -0.457,1.26562 -0.3048,0.37501 -0.8087,0.67969 -1.5118,0.91407 -0.7031,0.23437 -1.6523,0.42187 -2.8476,0.5625 -1.1954,0.14062 -2.6836,0.21093 -4.4649,0.21093 -1.7812,0 -3.2695,-0.0703 -4.4648,-0.21093 -1.1953,-0.14063 -2.1446,-0.32813 -2.8477,-0.5625 -0.7031,-0.23438 -1.207,-0.53906 -1.5117,-0.91407 -0.3047,-0.37499 -0.457,-0.79687 -0.457,-1.26562 l 0,-73.33594 -22.7813,0 c -0.4687,8e-5 -0.8672,-0.14055 -1.1953,-0.42187 -0.3281,-0.28118 -0.6094,-0.71477 -0.8437,-1.30078 -0.2344,-0.58586 -0.4102,-1.3593 -0.5274,-2.32032 -0.1172,-0.96085 -0.1758,-2.12101 -0.1757,-3.48047 -1e-4,-1.40616 0.059,-2.60147 0.1757,-3.58593 0.1172,-0.98429 0.293,-1.76945 0.5274,-2.35547 0.2343,-0.58585 0.5156,-1.00772 0.8437,-1.26563 0.3281,-0.25772 0.7266,-0.38662 1.1953,-0.38672 l 64.125,0 c 0.4218,10e-5 0.8086,0.129 1.1602,0.38672 0.3515,0.25791 0.6445,0.67978 0.8789,1.26563 0.2343,0.58602 0.4101,1.37118 0.5273,2.35547 0.1172,0.98446 0.1758,2.17977 0.1758,3.58593 z"
           style="font-size:144px;font-variant:normal;font-weight:bold;font-stretch:normal;fill:#ffffff;fill-opacity:1;font-family:Calibri;-inkscape-font-specification:Calibri Bold"
           id="path3896"
           inkscape:connector-curvature="0" />
        <path
           d="m 3731.9141,504.1545 c -10e-5,0.46875 -0.1524,0.89063 -0.4571,1.26562 -0.3047,0.37501 -0.8086,0.67969 -1.5117,0.91407 -0.7031,0.23437 -1.6406,0.42187 -2.8125,0.5625 -1.1719,0.14062 -2.6719,0.21093 -4.5,0.21093 -1.7813,0 -3.2695,-0.0703 -4.4648,-0.21093 -1.1954,-0.14063 -2.1446,-0.32813 -2.8477,-0.5625 -0.7031,-0.23438 -1.207,-0.53906 -1.5117,-0.91407 -0.3047,-0.37499 -0.457,-0.79687 -0.457,-1.26562 l 0,-85.92188 c 0,-0.46866 0.1523,-0.89053 0.457,-1.26562 0.3047,-0.37491 0.8203,-0.6796 1.5469,-0.91406 0.7265,-0.23429 1.6757,-0.42179 2.8476,-0.5625 1.1719,-0.14054 2.6484,-0.21085 4.4297,-0.21094 1.8281,9e-5 3.3281,0.0704 4.5,0.21094 1.1719,0.14071 2.1094,0.32821 2.8125,0.5625 0.7031,0.23446 1.207,0.53915 1.5117,0.91406 0.3047,0.37509 0.457,0.79696 0.4571,1.26562 z"
           style="font-size:144px;font-variant:normal;font-weight:bold;font-stretch:normal;fill:#ffffff;fill-opacity:1;font-family:Calibri;-inkscape-font-specification:Calibri Bold"
           id="path3898"
           inkscape:connector-curvature="0" />
        <path
           d="m 3833.7266,460.13887 c -10e-5,7.54692 -0.9376,14.29691 -2.8125,20.25 -1.8751,5.95315 -4.6642,11.00393 -8.3672,15.15235 -3.7032,4.14844 -8.2853,7.3125 -13.7461,9.49219 -5.461,2.17968 -11.7774,3.26953 -18.9492,3.26953 -7.0782,0 -13.254,-0.92578 -18.5274,-2.77735 -5.2734,-1.85156 -9.668,-4.67577 -13.1836,-8.47265 -3.5156,-3.79686 -6.1523,-8.62498 -7.9101,-14.48438 -1.7579,-5.85934 -2.6368,-12.79684 -2.6367,-20.8125 -1e-4,-7.35932 0.9374,-13.98041 2.8125,-19.86328 1.8749,-5.88274 4.664,-10.88664 8.3671,-15.01172 3.7031,-4.12491 8.2852,-7.28897 13.7461,-9.49219 5.4609,-2.20303 11.8008,-3.30459 19.0196,-3.30468 6.8905,9e-5 12.9726,0.91415 18.2461,2.74218 5.2733,1.82822 9.6796,4.64072 13.2187,8.4375 3.539,3.79696 6.2109,8.58992 8.0156,14.37891 1.8046,5.78913 2.707,12.62115 2.7071,20.49609 z m -19.4063,0.98438 c -10e-5,-4.7812 -0.3751,-9.12885 -1.125,-13.04297 -0.7501,-3.914 -2.0274,-7.26556 -3.832,-10.05469 -1.8048,-2.78899 -4.2071,-4.94524 -7.207,-6.46875 -3.0001,-1.52336 -6.7501,-2.28508 -11.25,-2.28515 -4.547,7e-5 -8.3438,0.85554 -11.3907,2.5664 -3.0469,1.71101 -5.5078,3.99617 -7.3828,6.85547 -1.875,2.85944 -3.1992,6.19928 -3.9726,10.01953 -0.7735,3.82037 -1.1602,7.86334 -1.1602,12.12891 0,4.96879 0.375,9.43363 1.125,13.39453 0.75,3.96097 2.0156,7.34768 3.7969,10.16016 1.7812,2.81252 4.1718,4.95705 7.1719,6.43359 2.9999,1.47658 6.7733,2.21486 11.3203,2.21484 4.5468,2e-5 8.3437,-0.84373 11.3906,-2.53125 3.0468,-1.68748 5.5077,-3.98435 7.3828,-6.89062 1.8749,-2.90622 3.1991,-6.29294 3.9727,-10.16016 0.7733,-3.86715 1.16,-7.98042 1.1601,-12.33984 z"
           style="font-size:144px;font-variant:normal;font-weight:bold;font-stretch:normal;fill:#ffffff;fill-opacity:1;font-family:Calibri;-inkscape-font-specification:Calibri Bold"
           id="path3900"
           inkscape:connector-curvature="0" />
        <path
           d="m 3924.2188,500.217 c -1e-4,1.07813 -0.1876,2.03907 -0.5625,2.88281 -0.3751,0.84376 -0.879,1.54688 -1.5118,2.10938 -0.6329,0.5625 -1.3829,0.97265 -2.25,1.23047 -0.8672,0.25781 -1.7461,0.38671 -2.6367,0.38671 l -7.875,0 c -1.6407,0 -3.0586,-0.16406 -4.2539,-0.49218 -1.1954,-0.32813 -2.2969,-0.92578 -3.3047,-1.79297 -1.0079,-0.86719 -1.9805,-2.03906 -2.9179,-3.51563 -0.9376,-1.47655 -1.9923,-3.38671 -3.1641,-5.73047 l -22.6406,-42.53906 c -1.3126,-2.53119 -2.6485,-5.26166 -4.0078,-8.1914 -1.3595,-2.92963 -2.5782,-5.77728 -3.6563,-8.54297 l -0.1406,0 c 0.1874,3.37506 0.3281,6.73834 0.4219,10.08984 0.094,3.35162 0.1405,6.80865 0.1406,10.37109 l 0,47.60157 c -10e-5,0.46875 -0.129,0.89062 -0.3867,1.26562 -0.2579,0.375 -0.7032,0.69141 -1.336,0.94922 -0.6328,0.25781 -1.4883,0.45703 -2.5664,0.59766 -1.0781,0.14062 -2.4609,0.21093 -4.1484,0.21093 -1.6407,0 -3,-0.0703 -4.0781,-0.21093 -1.0782,-0.14063 -1.9219,-0.33985 -2.5313,-0.59766 -0.6094,-0.25781 -1.0313,-0.57422 -1.2656,-0.94922 -0.2344,-0.375 -0.3516,-0.79687 -0.3516,-1.26562 l 0,-81.77344 c 0,-2.20304 0.6445,-3.85538 1.9336,-4.95703 1.2891,-1.10147 2.8711,-1.65225 4.7461,-1.65235 l 9.9141,0 c 1.7812,10e-5 3.2812,0.15244 4.5,0.45704 1.2187,0.30477 2.3085,0.80868 3.2695,1.51171 0.9609,0.70322 1.8632,1.67587 2.707,2.91797 0.8437,1.24228 1.7109,2.77743 2.6016,4.60547 l 17.7187,33.25781 c 1.0312,2.01568 2.0508,3.99614 3.0586,5.94141 1.0078,1.94535 1.9804,3.89066 2.918,5.83594 0.9374,1.94535 1.8515,3.8555 2.7422,5.73047 0.8905,1.87503 1.7577,3.75002 2.6016,5.625 l 0.07,0 c -0.1407,-3.28122 -0.2462,-6.7031 -0.3164,-10.26563 -0.07,-3.56246 -0.1056,-6.96089 -0.1055,-10.19531 l 0,-42.67969 c -1e-4,-0.46866 0.1405,-0.89053 0.4219,-1.26562 0.2811,-0.37491 0.7499,-0.70304 1.4062,-0.98438 0.6562,-0.28116 1.5234,-0.48038 2.6016,-0.59765 1.078,-0.1171 2.4608,-0.17569 4.1484,-0.17579 1.5937,10e-5 2.9296,0.0587 4.0078,0.17579 1.0781,0.11727 1.9101,0.31649 2.4961,0.59765 0.5859,0.28134 0.996,0.60947 1.2305,0.98438 0.2343,0.37509 0.3515,0.79696 0.3516,1.26562 z"
           style="font-size:144px;font-variant:normal;font-weight:bold;font-stretch:normal;fill:#ffffff;fill-opacity:1;font-family:Calibri;-inkscape-font-specification:Calibri Bold"
           id="path3902"
           inkscape:connector-curvature="0" />
      </g>
    </g>
  </g>
</svg>
